<svg id="Layer_1" data-name="Layer 1" xmlns="http://www.w3.org/2000/svg" xmlns:xlink="http://www.w3.org/1999/xlink" viewBox="0 0 288 288"><defs><style>.cls-1{fill:#fff;}.cls-2{fill:url(#linear-gradient);}.cls-3{fill:#ff2f2f;}</style><linearGradient id="linear-gradient" x1="204.75" y1="311.16" x2="88.21" y2="37.91" gradientUnits="userSpaceOnUse"><stop offset="0.11" stop-color="#ff4d4d"/><stop offset="0.24" stop-color="#ff4040"/><stop offset="0.49" stop-color="#ff2c2c"/><stop offset="0.75" stop-color="#ff2020"/><stop offset="1" stop-color="#ff1c1c"/></linearGradient></defs><rect class="cls-1" width="288" height="288"/><path class="cls-2" d="M85.21,53.56c-12.42,2.29-26.77-4.93-37.11,2.31-9.27,6.48-8.83,20.25-6.25,31.27s6.13,23.33.27,33c-7.6,12.54-27.95,14.74-32,28.83-2.68,9.25,3.4,18.61,9.7,25.89s13.55,15.06,13.73,24.69c.27,14.43-15.34,24.63-17.65,38.88-2,12.47,7.5,24.82,19.44,29s25.32,1.47,36.72-4c7.88-3.77,15.4-8.91,24.06-10,17.91-2.25,32.64,12.92,49,20.57,11.54,5.4,25.74,6.92,36.75.52,8.43-4.91,13.84-13.63,21.18-20.06a48,48,0,0,1,38-11.19c8,1.18,16.26,4.42,24,2,9.53-3,14.73-13.61,15.36-23.58a44.37,44.37,0,0,0-14.31-35.12c-6.86-6.19-15.65-10.19-21.67-17.21-9.08-10.58-10-26.12-6.91-39.71s9.77-26.07,14.5-39.19,7.5-27.78,2.73-40.88S235.43,26.21,222.07,30.2c-6.81,2-12.33,7.29-19.17,9.25-22.11,6.34-42.31-18.18-64.27-18C115.51,21.62,106.5,49.64,85.21,53.56Z"/><path class="cls-1" d="M118.12,151.75l19.35-29.06,1.47-2.21a100.82,100.82,0,0,0,5.35-8.89,20.2,20.2,0,0,0,2.16-7.43c.21-2.31,0-4-.8-5.13a3.44,3.44,0,0,0-3.6-1.35,6.43,6.43,0,0,0-5.14,3.46,20.82,20.82,0,0,0-2.09,8l-.3,3.29-12.94,1.62.33-3.56q.93-10.12,6.06-16.62t14.89-7.71q9-1.14,13.25,3.21t3.42,13.41a27.76,27.76,0,0,1-2.88,10.16,111.52,111.52,0,0,1-7.17,11.67l-1.08,1.63-15.27,22.48,20.56-2.58-1,10.84-35.46,4.46Z"/><path class="cls-1" d="M174.2,137.59l-21.07,2.64,1-10.67,22.15-46.72,15.33-1.93-4.1,44.72,6.76-.85-.95,10.41-6.77.85L185,152.93l-12.33,1.55Zm1-10.41L178,96.6l-13.43,31.92Z"/><path class="cls-1" d="M115,198.28,125.24,197l-.31,3.45-5.51.69-.59,6.5,4.25-.54-.32,3.48-4.25.53-.71,7.68,5.56-.7-.31,3.39-10.33,1.3Z"/><path class="cls-1" d="M126.32,196.86l4.17-.53,1.24,16.58,4.17-17.26,4.34-.54-6.73,25-4.95.62Z"/><path class="cls-1" d="M142.34,194.84l10.28-1.29L152.3,197l-5.5.69-.6,6.5,4.25-.53-.32,3.47-4.25.54-.7,7.68,5.56-.7-.31,3.38-10.34,1.3Z"/><path class="cls-1" d="M154.83,193.28l6.12-.77q3.81-.48,5.6.73c1.19.8,1.68,2.4,1.46,4.77a11.06,11.06,0,0,1-1,3.94,5.91,5.91,0,0,1-2.47,2.51L166.7,216l-4.92.62-1.66-10.76-1.74.22-1,11.09-4.78.6Zm5.24,9.65a3.63,3.63,0,0,0,2.46-1.16,5.18,5.18,0,0,0,.93-2.8,4,4,0,0,0-.37-2.58c-.35-.51-1.07-.7-2.13-.57l-1.66.21-.65,7.08Z"/><path class="cls-1" d="M172.81,205.63l-3.25-14.2,4.52-.57,1.74,8.3,3.12-8.91,4.4-.55-5.9,15.35-.89,9.7-4.63.58Z"/><path class="cls-1" d="M185.09,189.48l5.76-.73a10.13,10.13,0,0,1,4.57.22,3.44,3.44,0,0,1,2.16,2.16,10.33,10.33,0,0,1,.31,4.33l-.82,8.92A13.61,13.61,0,0,1,196,209a6.58,6.58,0,0,1-2.59,2.84,12,12,0,0,1-4.65,1.4l-5.88.74ZM189,209.75a3.85,3.85,0,0,0,1.89-.64,2.38,2.38,0,0,0,.86-1.29,12.23,12.23,0,0,0,.37-2.28l.93-10.13a8.38,8.38,0,0,0,0-2.08,1.29,1.29,0,0,0-.68-1,3.44,3.44,0,0,0-1.8-.12l-1,.13-1.61,17.51Z"/><path class="cls-1" d="M204.63,187l5.32-.67,2.3,23.92-4.43.55-.38-5.27-3.72.47-1.4,5.49-4.51.57Zm2.63,15.51-.52-9.68-2.3,10Z"/><path class="cls-1" d="M217.28,200,214,185.84l4.52-.57,1.74,8.3,3.12-8.91,4.4-.55-5.9,15.35-.9,9.71-4.63.58Z"/><path class="cls-1" d="M200.56,117.8l6-.75-1.08,11.78a9.84,9.84,0,0,1,5.89-3.32,2.71,2.71,0,0,1,2.85,1.16,5.89,5.89,0,0,1,.67,3.79l-1.73,18.85-6,.75,1.64-17.85a2.42,2.42,0,0,0-.18-1.43,1,1,0,0,0-1-.34,5,5,0,0,0-2.4,1.32l-1.72,18.77-6,.75Z"/><path class="cls-1" d="M217.48,125.16l6-.76-.35,3.85a16,16,0,0,1,2.61-3.44,4.86,4.86,0,0,1,2.74-1.32,6.18,6.18,0,0,1,.91,0l-.58,6.36a4.52,4.52,0,0,0-2.11-.23,5.88,5.88,0,0,0-4,2.79l-1.46,15.91-6,.76Z"/><polygon class="cls-1" points="191.67 183.09 115.02 192.46 117.16 169.22 193.81 159.85 202.24 169.75 191.67 183.09"/><path class="cls-3" d="M123.48,186.2a4.51,4.51,0,0,1-.74-3.26l2.48-.74a4.54,4.54,0,0,0,.18,2,.83.83,0,0,0,.94.52,1,1,0,0,0,.75-.42,1.74,1.74,0,0,0,.3-.87,2.32,2.32,0,0,0-.23-1.41,4.8,4.8,0,0,0-1-1.16l-1.32-1.12a3.94,3.94,0,0,1-1.16-1.44,3.82,3.82,0,0,1-.27-2,4.38,4.38,0,0,1,1.25-2.84,4.73,4.73,0,0,1,2.86-1.3c1.26-.16,2.1.1,2.52.8a4.93,4.93,0,0,1,.57,2.76l-2.48.69a5.06,5.06,0,0,0-.1-1.65.64.64,0,0,0-.79-.44,1.11,1.11,0,0,0-.76.45,1.82,1.82,0,0,0-.33.9,1.92,1.92,0,0,0,.18,1.16,3.84,3.84,0,0,0,.86,1l1.29,1.11a5.78,5.78,0,0,1,1.38,1.71,4.17,4.17,0,0,1,.35,2.29,4.47,4.47,0,0,1-2,3.33,4.4,4.4,0,0,1-1.92.7A3,3,0,0,1,123.48,186.2Z"/><path class="cls-3" d="M133.53,171.57l6.05-.76-.18,2-3.24.41-.35,3.82,2.5-.31-.19,2.05-2.5.31-.42,4.52,3.28-.41-.19,2-6.08.77Z"/><path class="cls-3" d="M141.92,170.52l3.6-.45a4.82,4.82,0,0,1,3.29.43c.71.47,1,1.41.87,2.81a6.65,6.65,0,0,1-.59,2.31,3.52,3.52,0,0,1-1.46,1.48l1.28,6.79-2.9.36-1-6.33-1,.13-.6,6.53-2.81.35ZM145,176.2a2.1,2.1,0,0,0,1.45-.68,3.06,3.06,0,0,0,.55-1.65,2.4,2.4,0,0,0-.22-1.52q-.32-.45-1.26-.33l-1,.12-.39,4.16Z"/><path class="cls-3" d="M152,169.25l2.46-.31.73,9.76,2.45-10.16,2.56-.32-4,14.75-2.92.36Z"/><path class="cls-3" d="M162.51,167.93l2.81-.35L164,182l-2.81.36Z"/><path class="cls-3" d="M167.78,180.49a5.06,5.06,0,0,1-.6-3.45l.47-5.16a7.06,7.06,0,0,1,1.25-3.72,4.65,4.65,0,0,1,3.26-1.62c1.42-.17,2.39.06,2.91.7a4.11,4.11,0,0,1,.6,3l-.11,1.21-2.75.34.13-1.33a7.75,7.75,0,0,0,0-1,1,1,0,0,0-.25-.61.86.86,0,0,0-.74-.16,1.26,1.26,0,0,0-1,.64,4.53,4.53,0,0,0-.36,1.54l-.6,6.55a3,3,0,0,0,.12,1.48c.14.31.44.44.91.38a1.15,1.15,0,0,0,1-.62,4.94,4.94,0,0,0,.35-1.53l.13-1.41,2.74-.34-.11,1.19a6.13,6.13,0,0,1-1.17,3.3,4.47,4.47,0,0,1-3.12,1.51C169.33,181.52,168.32,181.24,167.78,180.49Z"/><path class="cls-3" d="M178.62,165.91l6.06-.76-.19,2-3.24.4-.35,3.83,2.5-.31-.19,2-2.5.32-.42,4.52,3.28-.41-.18,2-6.09.76Z"/><path class="cls-1" d="M111,137.67a6.41,6.41,0,0,1-5.7,6.11A4.88,4.88,0,0,1,100,138.6a6.4,6.4,0,0,1,5.69-6.11A4.89,4.89,0,0,1,111,137.67Z"/><path class="cls-1" d="M105.41,140.74a2.24,2.24,0,0,1-2.48-2.29l-.25-30.1a3,3,0,0,1,2.53-2.91,2.23,2.23,0,0,1,2.58,2.28l.25,30.1a3,3,0,0,1-2.53,2.91Z"/><path class="cls-1" d="M69.92,145.62a2.26,2.26,0,0,1-2.47-2.33A3,3,0,0,1,70,140.41l33.66-3.76a2.21,2.21,0,0,1,2.55,2.31,3,3,0,0,1-2.56,2.89L70,145.61Z"/><path class="cls-1" d="M101.75,78.64c-31.11,3.78-56.21,32.58-56,64.2s25.75,54.28,56.86,50.5c.47-.06,1-.13,1.42-.21l.83-9.46c-.77.14-1.54.27-2.32.37-26.07,3.16-47.43-15.81-47.64-42.31S75.76,91.1,101.82,87.94a43.91,43.91,0,0,1,19.37,1.87,28.76,28.76,0,0,1,6.75-7.8A52.05,52.05,0,0,0,101.75,78.64Z"/></svg>