<svg xmlns="http://www.w3.org/2000/svg" xmlns:xlink="http://www.w3.org/1999/xlink" viewBox="0 0 520.31 450"><defs><style>.cls-1{isolation:isolate;}.cls-2{fill:#c1864d;}.cls-3{fill:#e09c60;}.cls-4{fill:#ae939a;}.cls-29,.cls-4,.cls-65,.cls-70{mix-blend-mode:multiply;}.cls-5{fill:#82a3a0;}.cls-6{fill:#a1c8c5;}.cls-7{fill:#abd6d3;}.cls-8{fill:#759c98;}.cls-9{fill:#e0d7c1;}.cls-10{fill:#d7d7c1;}.cls-11{fill:#abac97;}.cls-12{fill:#d65d6c;}.cls-13{fill:#5c8e89;}.cls-14{fill:#979797;}.cls-15{fill:#d661bd;}.cls-16{fill:url(#Áåçûìÿííûé_ãðàäèåíò_121);}.cls-17{fill:#a7aaad;}.cls-18{fill:#656769;}.cls-19{fill:#d1d1d1;}.cls-20{fill:#a1a1a1;}.cls-21{fill:url(#Áåçûìÿííûé_ãðàäèåíò_121-2);}.cls-22{fill:url(#Áåçûìÿííûé_ãðàäèåíò_121-3);}.cls-23{fill:#c4c4c4;}.cls-24{fill:#969696;}.cls-25{fill:#989898;}.cls-26{fill:#b5b5b5;}.cls-27{fill:#7a7a7a;}.cls-28{fill:#888;}.cls-29{fill:#ccc;}.cls-30{fill:#f2f2f2;}.cls-31{fill:url(#Áåçûìÿííûé_ãðàäèåíò_16);}.cls-32,.cls-70{fill:#949494;}.cls-33{fill:url(#Áåçûìÿííûé_ãðàäèåíò_15);}.cls-34{fill:url(#Áåçûìÿííûé_ãðàäèåíò_15-2);}.cls-35{fill:url(#Áåçûìÿííûé_ãðàäèåíò_16-2);}.cls-36{fill:url(#Áåçûìÿííûé_ãðàäèåíò_15-3);}.cls-37{fill:#818181;}.cls-38{fill:#3f3f3f;}.cls-39{fill:url(#Áåçûìÿííûé_ãðàäèåíò_14);}.cls-40{fill:#bdbdbd;}.cls-41{fill:url(#Áåçûìÿííûé_ãðàäèåíò_14-2);}.cls-42{fill:url(#Áåçûìÿííûé_ãðàäèåíò_40);}.cls-43{fill:url(#Áåçûìÿííûé_ãðàäèåíò_4);}.cls-44{fill:#efd247;}.cls-45{fill:#42706a;}.cls-46{fill:#33655f;}.cls-47{fill:#81bfb7;}.cls-48{fill:#eff1f3;}.cls-49{fill:#575757;}.cls-50{fill:#363636;}.cls-51{fill:#e3e3e3;}.cls-52{fill:#707070;}.cls-53{fill:#4f4f4f;}.cls-54{fill:#cfcfcf;}.cls-55{fill:#9bccc6;}.cls-56{fill:#cacaca;}.cls-57{fill:#afafaf;}.cls-58{fill:#dfdfdf;}.cls-59{fill:#c2c2c2;}.cls-60{fill:#a8a8a8;}.cls-61{fill:#245952;}.cls-62{fill:#515151;}.cls-63{fill:#9b9b9b;}.cls-64{fill:#737367;}.cls-65{fill:#ab9da0;}.cls-66{fill:#bababa;}.cls-67{fill:#dcdcdc;}.cls-68{fill:#ececec;}.cls-69{fill:#444;}.cls-71{fill:#352c23;}.cls-72{fill:#1d130a;}.cls-73{fill:#756f69;}.cls-74{fill:#292017;}.cls-75{fill:#d3d3d3;}.cls-76{fill:#450000;}.cls-77{fill:#fcc7aa;}.cls-78{fill:#fcd2bb;}.cls-79{fill:#fccfb6;}.cls-80{fill:#005047;}.cls-81{fill:#0b6360;}.cls-82{fill:#1b776a;}.cls-83{fill:#318479;}.cls-84{fill:#9c9c9c;}.cls-85{fill:#ededed;}.cls-86{fill:#bfbfbf;}</style><linearGradient id="Áåçûìÿííûé_ãðàäèåíò_121" x1="103.49" y1="299.79" x2="106.42" y2="299.79" gradientTransform="matrix(-1, 0, 0, 1, 268.31, 0)" gradientUnits="userSpaceOnUse"><stop offset="0.16" stop-color="#454545"/><stop offset="0.16" stop-color="#5c5c5c"/><stop offset="0.56" stop-color="#5c5c5c"/><stop offset="0.56" stop-color="#787878"/><stop offset="0.87" stop-color="#787878"/><stop offset="0.87" stop-color="#646464"/></linearGradient><linearGradient id="Áåçûìÿííûé_ãðàäèåíò_121-2" x1="189.44" y1="347.89" x2="192.36" y2="347.89" xlink:href="#Áåçûìÿííûé_ãðàäèåíò_121"/><linearGradient id="Áåçûìÿííûé_ãðàäèåíò_121-3" x1="212.06" y1="336.36" x2="214.99" y2="336.36" xlink:href="#Áåçûìÿííûé_ãðàäèåíò_121"/><linearGradient id="Áåçûìÿííûé_ãðàäèåíò_16" x1="-60.06" y1="330.96" x2="-59.05" y2="336.08" gradientTransform="translate(179.41)" gradientUnits="userSpaceOnUse"><stop offset="0.13" stop-color="#ccc"/><stop offset="0.13" stop-color="#ccc"/><stop offset="0.83" stop-color="#ccc"/><stop offset="0.84" stop-color="#ababab"/></linearGradient><linearGradient id="Áåçûìÿííûé_ãðàäèåíò_15" x1="499.81" y1="-532.64" x2="505" y2="-532.64" gradientTransform="translate(848.89 516.72) rotate(-120)" gradientUnits="userSpaceOnUse"><stop offset="0.16" stop-color="#ababab"/><stop offset="0.16" stop-color="#ccc"/><stop offset="0.56" stop-color="#ccc"/><stop offset="0.56" stop-color="#ccc"/><stop offset="0.87" stop-color="#ccc"/><stop offset="0.87" stop-color="#ccc"/></linearGradient><linearGradient id="Áåçûìÿííûé_ãðàäèåíò_15-2" x1="84.8" y1="210.89" x2="90" y2="210.89" gradientTransform="matrix(0.5, -0.87, -0.87, -0.5, 272.87, 516.72)" xlink:href="#Áåçûìÿííûé_ãðàäèåíò_15"/><linearGradient id="Áåçûìÿííûé_ãðàäèåíò_16-2" x1="793.37" y1="349.42" x2="794.37" y2="354.54" gradientTransform="matrix(-1, 0, 0, 1, 913.6, 0)" xlink:href="#Áåçûìÿííûé_ãðàäèåíò_16"/><linearGradient id="Áåçûìÿííûé_ãðàäèåíò_15-3" x1="801.48" y1="342.49" x2="805.29" y2="342.49" gradientTransform="matrix(-1, 0, 0, 1, 913.6, 0)" xlink:href="#Áåçûìÿííûé_ãðàäèåíò_15"/><linearGradient id="Áåçûìÿííûé_ãðàäèåíò_14" x1="-67.17" y1="339.97" x2="-62.84" y2="339.97" gradientTransform="translate(189.14)" gradientUnits="userSpaceOnUse"><stop offset="0.13" stop-color="#a1a1a1"/><stop offset="0.13" stop-color="#b0b0b0"/><stop offset="0.44" stop-color="#b0b0b0"/><stop offset="0.44" stop-color="#a3a3a3"/><stop offset="0.84" stop-color="#a3a3a3"/><stop offset="0.84" stop-color="gray"/></linearGradient><linearGradient id="Áåçûìÿííûé_ãðàäèåíò_14-2" x1="-66.45" y1="327.51" x2="-63.56" y2="327.51" xlink:href="#Áåçûìÿííûé_ãðàäèåíò_14"/><linearGradient id="Áåçûìÿííûé_ãðàäèåíò_40" x1="-77.28" y1="315.5" x2="-52.73" y2="315.5" gradientTransform="translate(189.14)" gradientUnits="userSpaceOnUse"><stop offset="0.13" stop-color="#848484"/><stop offset="0.13" stop-color="#939393"/><stop offset="0.44" stop-color="#939393"/><stop offset="0.44" stop-color="#868686"/><stop offset="0.84" stop-color="#868686"/><stop offset="0.84" stop-color="#636363"/></linearGradient><linearGradient id="Áåçûìÿííûé_ãðàäèåíò_4" x1="-77.28" y1="314.65" x2="-52.73" y2="314.65" gradientTransform="translate(189.14)" gradientUnits="userSpaceOnUse"><stop offset="0.13" stop-color="#ca9e09"/><stop offset="0.13" stop-color="#d9aa0a"/><stop offset="0.44" stop-color="#d9aa0a"/><stop offset="0.44" stop-color="#cc9f0a"/><stop offset="0.84" stop-color="#cc9f0a"/><stop offset="0.84" stop-color="#a98407"/></linearGradient></defs><g class="cls-1"><g id="Layer"><polygon class="cls-2" points="45.52 341.11 213.52 437.72 471.32 289.48 303.32 192.87 45.52 341.11"/><polygon class="cls-3" points="214.01 435.63 187.58 420.37 213.85 405.2 240.29 420.46 214.01 435.63"/><polygon class="cls-3" points="242.53 419.23 216.09 403.97 242.36 388.8 268.8 404.07 242.53 419.23"/><polygon class="cls-3" points="271.04 402.84 244.6 387.57 270.87 372.41 297.31 387.67 271.04 402.84"/><polygon class="cls-3" points="299.55 386.44 273.11 371.18 299.38 356.01 325.82 371.27 299.55 386.44"/><polygon class="cls-3" points="328.06 370.05 301.62 354.79 327.89 339.62 354.33 354.88 328.06 370.05"/><polygon class="cls-3" points="356.57 353.65 330.13 338.39 356.4 323.22 382.84 338.49 356.57 353.65"/><polygon class="cls-3" points="385.08 337.26 358.64 322 384.91 306.83 411.35 322.09 385.08 337.26"/><polygon class="cls-3" points="413.59 320.86 387.15 305.6 413.42 290.43 439.86 305.69 413.59 320.86"/><polygon class="cls-3" points="442.1 304.47 415.66 289.2 441.94 274.04 468.37 289.3 442.1 304.47"/><polygon class="cls-3" points="186.28 419.55 159.84 404.29 186.12 389.12 212.55 404.38 186.28 419.55"/><polygon class="cls-3" points="214.79 403.16 188.35 387.89 214.63 372.73 241.06 387.99 214.79 403.16"/><polygon class="cls-3" points="243.3 386.76 216.86 371.5 243.14 356.33 269.57 371.6 243.3 386.76"/><polygon class="cls-3" points="271.81 370.37 245.38 355.11 271.65 339.94 298.08 355.2 271.81 370.37"/><polygon class="cls-3" points="300.32 353.97 273.89 338.71 300.16 323.54 326.6 338.81 300.32 353.97"/><polygon class="cls-3" points="328.83 337.58 302.4 322.31 328.67 307.15 355.11 322.41 328.83 337.58"/><polygon class="cls-3" points="357.34 321.18 330.91 305.92 357.18 290.75 383.62 306.01 357.34 321.18"/><polygon class="cls-3" points="385.86 304.79 359.42 289.52 385.69 274.36 412.13 289.62 385.86 304.79"/><polygon class="cls-3" points="414.37 288.39 387.93 273.13 414.2 257.96 440.64 273.22 414.37 288.39"/><polygon class="cls-3" points="158.55 403.48 132.11 388.21 158.38 373.05 184.82 388.31 158.55 403.48"/><polygon class="cls-3" points="187.06 387.08 160.62 371.82 186.89 356.65 213.33 371.92 187.06 387.08"/><polygon class="cls-3" points="215.57 370.69 189.13 355.42 215.4 340.26 241.84 355.52 215.57 370.69"/><polygon class="cls-3" points="244.08 354.29 217.64 339.03 243.91 323.86 270.35 339.12 244.08 354.29"/><polygon class="cls-3" points="272.59 337.9 246.15 322.63 272.42 307.46 298.86 322.73 272.59 337.9"/><polygon class="cls-3" points="301.1 321.5 274.66 306.24 300.93 291.07 327.37 306.33 301.1 321.5"/><polygon class="cls-3" points="329.61 305.11 303.17 289.84 329.44 274.68 355.88 289.94 329.61 305.11"/><polygon class="cls-3" points="358.12 288.71 331.68 273.45 357.95 258.28 384.39 273.54 358.12 288.71"/><polygon class="cls-3" points="386.63 272.32 360.19 257.05 386.47 241.88 412.9 257.15 386.63 272.32"/><polygon class="cls-3" points="130.81 387.4 104.37 372.14 130.65 356.97 157.08 372.23 130.81 387.4"/><polygon class="cls-3" points="159.32 371.01 132.88 355.74 159.16 340.58 185.59 355.84 159.32 371.01"/><polygon class="cls-3" points="187.83 354.61 161.4 339.35 187.67 324.18 214.1 339.44 187.83 354.61"/><polygon class="cls-3" points="216.34 338.22 189.91 322.95 216.18 307.79 242.62 323.05 216.34 338.22"/><polygon class="cls-3" points="244.85 321.82 218.42 306.56 244.69 291.39 271.13 306.65 244.85 321.82"/><polygon class="cls-3" points="273.37 305.43 246.93 290.16 273.2 275 299.64 290.26 273.37 305.43"/><polygon class="cls-3" points="301.88 289.03 275.44 273.77 301.71 258.6 328.15 273.86 301.88 289.03"/><polygon class="cls-3" points="330.39 272.64 303.95 257.37 330.22 242.2 356.66 257.47 330.39 272.64"/><polygon class="cls-3" points="358.9 256.24 332.46 240.98 358.73 225.81 385.17 241.07 358.9 256.24"/><polygon class="cls-3" points="103.08 371.33 76.64 356.06 102.91 340.89 129.35 356.16 103.08 371.33"/><polygon class="cls-3" points="131.59 354.93 105.15 339.67 131.42 324.5 157.86 339.76 131.59 354.93"/><polygon class="cls-3" points="160.1 338.54 133.66 323.27 159.93 308.11 186.37 323.37 160.1 338.54"/><polygon class="cls-3" points="188.61 322.14 162.17 306.88 188.44 291.71 214.88 306.97 188.61 322.14"/><polygon class="cls-3" points="217.12 305.75 190.68 290.48 216.95 275.31 243.39 290.58 217.12 305.75"/><polygon class="cls-3" points="245.63 289.35 219.19 274.09 245.47 258.92 271.9 274.18 245.63 289.35"/><polygon class="cls-3" points="274.14 272.96 247.7 257.69 273.98 242.52 300.41 257.79 274.14 272.96"/><polygon class="cls-3" points="302.65 256.56 276.21 241.3 302.49 226.13 328.92 241.39 302.65 256.56"/><polygon class="cls-3" points="331.16 240.17 304.72 224.9 331 209.73 357.43 225 331.16 240.17"/><polygon class="cls-3" points="75.34 355.25 48.91 339.99 75.18 324.82 101.61 340.08 75.34 355.25"/><polygon class="cls-3" points="103.85 338.86 77.42 323.59 103.69 308.43 130.13 323.69 103.85 338.86"/><polygon class="cls-3" points="132.36 322.46 105.93 307.2 132.2 292.03 158.64 307.29 132.36 322.46"/><polygon class="cls-3" points="160.87 306.07 134.44 290.8 160.71 275.63 187.15 290.9 160.87 306.07"/><polygon class="cls-3" points="189.38 289.67 162.95 274.41 189.22 259.24 215.66 274.5 189.38 289.67"/><polygon class="cls-3" points="217.9 273.28 191.46 258.01 217.73 242.84 244.17 258.11 217.9 273.28"/><polygon class="cls-3" points="246.41 256.88 219.97 241.62 246.24 226.45 272.68 241.71 246.41 256.88"/><polygon class="cls-3" points="274.92 240.49 248.48 225.22 274.75 210.05 301.19 225.32 274.92 240.49"/><polygon class="cls-3" points="303.43 224.09 276.99 208.83 303.26 193.66 329.7 208.92 303.43 224.09"/><polygon class="cls-4" points="471.32 289.48 393.39 289.48 262.14 216.55 303.32 192.88 471.32 289.48"/><polygon class="cls-5" points="40.69 338.32 45.52 341.11 45.52 176.04 40.69 173.26 40.69 338.32"/><polygon class="cls-6" points="40.69 173.26 45.52 176.04 308.14 25.03 303.32 22.25 40.69 173.26"/><polygon class="cls-7" points="308.14 190.1 45.52 341.11 45.52 176.04 308.14 25.03 308.14 190.1"/><polygon class="cls-8" points="50.99 199.63 45.52 212.02 45.52 264.3 154.77 201.09 158.46 173.26 50.99 199.63"/><polygon class="cls-8" points="187.8 133.2 183.5 144.42 183.5 197.63 244.77 162.73 245.78 148.88 187.8 133.2"/><polygon class="cls-9" points="262.14 206.26 262.14 216.55 45.52 341.1 45.52 330.2 262.14 206.26"/><polygon class="cls-10" points="308.14 179.18 308.14 190.1 303.32 192.87 303.32 181.94 308.14 179.18"/><polygon class="cls-11" points="303.27 181.97 303.27 192.89 262.14 216.42 262.14 205.5 303.27 181.97"/><polygon class="cls-8" points="303.32 25.32 303.32 193.66 303.27 193.66 303.27 182.74 262.14 206.26 262.14 111.74 303.32 25.32"/><polygon class="cls-12" points="308.14 64.62 308.14 64.72 308.04 64.67 308.14 64.62"/><polygon class="cls-7" points="476.14 286.7 471.32 289.48 471.32 124.42 476.14 121.63 476.14 286.7"/><polygon class="cls-6" points="476.14 121.63 471.32 124.42 303.32 27.82 308.14 25.03 476.14 121.63"/><polygon class="cls-13" points="303.32 192.88 471.32 289.48 471.32 124.42 303.32 27.82 303.32 192.88"/><polygon class="cls-14" points="303.32 192.88 471.32 289.48 471.32 278.57 303.32 181.97 303.32 192.88"/><polygon class="cls-15" points="303.33 67.41 303.33 67.5 303.43 67.46 303.33 67.41"/><path class="cls-4" d="M133.32,349.58c-2.25,1.83-6.17,2.48-9,2.47a31.56,31.56,0,0,1-6.37-.45,9.16,9.16,0,0,1-6.55-4.44,6.88,6.88,0,0,1-.8-4.68,2.46,2.46,0,0,0,.06-1.26,2,2,0,0,0-.66-.83,17.76,17.76,0,0,0-4.26-3.12,6,6,0,0,0-5.12-.13,11.47,11.47,0,0,0-1.9,1.42c-3.72,3.11-8.52,4.44-12.66,6.85l-8.59,5L52.26,337.29l91.44-52.65,25.12,14.5-.42.25L145,313.31l-15.42,9.14c-5.25,3.12-10.32,6.45-15.48,9.69a1.6,1.6,0,0,0-.78.78c-1.4,4.13,9.29,1.6,11.06,1.18a17.31,17.31,0,0,1,3.48-.63c5-.13,11.58,5.07,9.8,10.53A14.13,14.13,0,0,1,133.32,349.58Z"/><polygon class="cls-8" points="52.26 337.29 52.26 307.88 45.52 312.29 45.52 293.05 131.62 243.85 144.96 261.75 143.7 284.64 52.26 337.29"/><path class="cls-16" d="M161.89,298.63v1.49c0,.32.34.6.82.74l.16,0h.18l.13,0h.35l.13,0h.18l.16,0,.08,0,.15-.05.05,0,.11-.06.05,0,.13-.1,0,0,.07-.07,0-.07,0,0,0-.06h0v0a.36.36,0,0,0,0-.11v-1.49Z"/><path class="cls-17" d="M161.89,298.63c0,.33.34.61.82.74a2.36,2.36,0,0,0,1.29,0c.49-.13.82-.41.82-.74s-.24-.52-.62-.67l-.14,0-.06,0a2.64,2.64,0,0,0-1.29,0C162.23,298,161.89,298.31,161.89,298.63Z"/><path class="cls-18" d="M162,298.63c0,.3.3.55.74.67a2.14,2.14,0,0,0,.58.08,2.21,2.21,0,0,0,.59-.08c.44-.12.74-.37.74-.67s-.22-.47-.56-.61l-.12,0-.06,0a2.21,2.21,0,0,0-.59-.08,2.14,2.14,0,0,0-.58.08C162.31,298.08,162,298.34,162,298.63Z"/><path class="cls-19" d="M162.13,298.58h0v.06c0,.25.27.48.66.58a1.77,1.77,0,0,0,.52.07V268.5l-1.18-.72Z"/><path class="cls-20" d="M163.31,268.5v30.79a1.79,1.79,0,0,0,.53-.07c.39-.1.66-.33.66-.58a.13.13,0,0,0,0-.06h0v-30.8Z"/><path class="cls-21" d="M75.94,346.73v1.49c0,.32.34.6.82.74l.17,0h.17l.14,0h.34l.14,0h.17l.16,0,.08,0,.15-.05,0,0,.11-.06,0,0a.71.71,0,0,0,.14-.1l0,0a.46.46,0,0,0,.07-.07l0-.07,0-.05,0-.06h0a0,0,0,0,0,0,0v0a.37.37,0,0,0,0-.11v-1.49Z"/><path class="cls-17" d="M75.94,346.73c0,.33.34.61.82.74a2.27,2.27,0,0,0,.65.09,2.15,2.15,0,0,0,.64-.09c.49-.13.82-.41.82-.74s-.24-.52-.62-.67l-.13-.05-.07,0a2.15,2.15,0,0,0-.64-.09,2.27,2.27,0,0,0-.65.09C76.28,346.12,75.94,346.4,75.94,346.73Z"/><path class="cls-18" d="M76.06,346.73c0,.3.3.55.74.67a2.21,2.21,0,0,0,.59.08,2.14,2.14,0,0,0,.58-.08c.44-.12.74-.37.74-.67s-.22-.48-.56-.61l-.12,0-.06,0a2.14,2.14,0,0,0-.58-.08,2.21,2.21,0,0,0-.59.08C76.36,346.18,76.06,346.44,76.06,346.73Z"/><path class="cls-19" d="M76.18,346.68h0v.06c0,.25.27.48.67.58a1.68,1.68,0,0,0,.52.07V316.6l-1.19-.72Z"/><path class="cls-20" d="M77.37,316.6v30.79a1.77,1.77,0,0,0,.52-.07c.39-.1.66-.33.66-.58v-.06h0v-30.8Z"/><path class="cls-22" d="M53.32,335.2v1.48c0,.33.33.61.82.75l.16,0h.17l.14,0H55l.14,0h.18l.16,0,.08,0,.15,0,.05,0,.11-.06,0,0,.13-.1,0,0,.06-.07.06-.07,0-.05a.14.14,0,0,0,0-.06h0a0,0,0,0,1,0,0v0a.37.37,0,0,0,0-.12V335.2Z"/><path class="cls-17" d="M53.32,335.2c0,.33.33.61.82.74a2.15,2.15,0,0,0,.64.09,2.22,2.22,0,0,0,.65-.09c.48-.13.82-.41.82-.74s-.25-.52-.62-.67l-.14,0-.06,0a2.22,2.22,0,0,0-.65-.09,2.15,2.15,0,0,0-.64.09C53.65,334.59,53.32,334.87,53.32,335.2Z"/><path class="cls-18" d="M53.43,335.2c0,.3.31.55.75.67a2.08,2.08,0,0,0,.58.08,2.21,2.21,0,0,0,.59-.08c.44-.12.74-.37.74-.67s-.22-.48-.56-.61l-.13,0,0,0a2.21,2.21,0,0,0-.59-.08,2.08,2.08,0,0,0-.58.08C53.74,334.65,53.43,334.91,53.43,335.2Z"/><path class="cls-19" d="M53.56,335.15h0v.06c0,.25.26.48.66.58a1.72,1.72,0,0,0,.52.07V305.07l-1.18-.72Z"/><path class="cls-20" d="M54.74,305.07v30.79a1.79,1.79,0,0,0,.53-.07c.39-.1.66-.33.66-.58a.13.13,0,0,0,0-.06h0v-30.8Z"/><polygon class="cls-23" points="164.45 268.26 76.03 318.17 76.03 303.07 164.33 253.26 164.45 268.26"/><polygon class="cls-24" points="77.22 303.76 163.26 255.22 163.26 267.57 77.22 316.11 77.22 303.76"/><polygon class="cls-25" points="162.07 266.88 162.07 257.27 78.4 304.44 78.4 314.05 162.07 266.88"/><polygon class="cls-26" points="52.15 304.39 76.03 318.17 76.03 303.07 52.15 289.29 52.15 304.39"/><polygon class="cls-20" points="53.34 303.7 53.34 291.35 74.84 303.76 74.84 316.11 53.34 303.7"/><polygon class="cls-25" points="54.13 303.24 54.13 292.72 74.05 304.21 74.05 314.74 54.13 303.24"/><polygon class="cls-27" points="162.07 257.27 162.07 266.88 138.11 252.38 138.11 271.11 162.07 257.27"/><polygon class="cls-28" points="78.4 291.81 78.4 304.44 138.05 269.04 138.11 257.64 78.4 291.81"/><polygon class="cls-29" points="158.21 264.4 162.13 258.25 78.4 299.5 78.4 309.11 158.21 264.4"/><polygon class="cls-30" points="47.79 290.76 75.28 306.63 166.11 254.32 138.61 238.45 47.79 290.76"/><polygon class="cls-30" points="50.17 290.76 138.61 239.82 163.73 254.32 75.28 305.26 50.17 290.76"/><polygon class="cls-19" points="47.79 290.76 47.79 293.01 75.28 308.88 75.28 306.63 47.79 290.76"/><polygon class="cls-26" points="166.11 254.32 166.11 256.58 75.28 308.88 75.28 306.63 166.11 254.32"/><path class="cls-31" d="M121.32,333c-.36-1.4-1-2.32-1.49-2.05l-2,.4,1.32,5.06L121,336a.41.41,0,0,0,.19,0C121.61,335.69,121.68,334.35,121.32,333Z"/><path class="cls-32" d="M119.15,336.36c.45-.26.53-1.61.16-3s-1-2.32-1.48-2.06-.53,1.61-.17,3S118.69,336.62,119.15,336.36Z"/><path class="cls-33" d="M136.51,350.9l1.15-.66c.7-.41.69-1.74,0-3s-1.87-1.92-2.57-1.52l-1.14.67Z"/><path class="cls-32" d="M136.51,350.9c.7-.4.69-1.74,0-3s-1.86-1.92-2.56-1.51-.69,1.74,0,3S135.81,351.31,136.51,350.9Z"/><path class="cls-34" d="M133.85,338.53l-1.15-.66c-.7-.4-.68-1.74,0-3s1.87-1.92,2.57-1.52l1.14.67Z"/><path class="cls-32" d="M133.85,338.53c-.7-.4-.69-1.74,0-3s1.86-1.92,2.56-1.51.69,1.74,0,3S134.55,338.94,133.85,338.53Z"/><path class="cls-35" d="M118.26,351.41c.37-1.4,1-2.32,1.49-2.05l2,.4-1.32,5.06-1.81-.36a.32.32,0,0,1-.19,0C118,354.15,117.9,352.81,118.26,351.41Z"/><path class="cls-32" d="M120.43,354.82c-.45-.26-.53-1.61-.16-3s1-2.31,1.48-2.05.53,1.61.17,3S120.89,355.08,120.43,354.82Z"/><path class="cls-36" d="M108.8,341.07V341a2,2,0,0,1,1.65-.89,1.42,1.42,0,0,1,1,.39,1.25,1.25,0,0,1,.08.12,3.59,3.59,0,0,1,.54,3l-.44.92-.49-.29a2,2,0,0,1-2.49.22s-.25-1.22-.3-1.67A2.7,2.7,0,0,1,108.8,341.07Z"/><path class="cls-32" d="M111.59,344.57a2.29,2.29,0,0,0,0-3,1.73,1.73,0,0,0-2.59.5,2.31,2.31,0,0,0,0,3A1.74,1.74,0,0,0,111.59,344.57Z"/><polygon class="cls-37" points="122.73 340.77 108.3 341.48 108.62 339.25 122.37 338.45 118.08 330.85 120.66 330.11 125.05 338.08 134.46 331.28 136.42 332.49 126.47 339.58 138.59 346.14 136.63 347.35 125.44 341.32 120.83 351.07 118.03 350.61 122.77 340.79 122.73 340.77"/><polygon class="cls-38" points="122.73 341.51 108.3 342.22 108.3 341.48 122.37 339.2 118.08 331.6 118.08 330.85 125.05 338.82 136.42 332.49 136.42 333.24 126.47 340.33 138.59 346.14 138.59 346.89 136.63 348.09 125.44 342.07 120.83 351.82 118.03 351.36 118.03 350.61 122.77 341.54 122.73 341.51"/><polygon class="cls-37" points="122.73 340.77 108.3 341.48 108.62 339.25 122.37 338.45 118.08 330.85 120.66 330.11 125.05 338.08 134.46 331.28 136.42 332.49 126.47 339.58 138.59 346.14 136.63 347.35 125.44 341.32 120.83 351.07 118.03 350.61 122.77 340.79 122.73 340.77"/><path class="cls-39" d="M122,339.23v.26c0,.68,1,1.23,2.17,1.23s2.16-.55,2.16-1.23v-.26Z"/><path class="cls-40" d="M122,339.23c0,.67,1,1.22,2.17,1.22s2.16-.55,2.16-1.22-1-1.23-2.16-1.23S122,338.55,122,339.23Z"/><path class="cls-41" d="M122.69,315.15v23.9c0,.45.65.82,1.45.82s1.44-.37,1.44-.82v-23.9Z"/><path class="cls-40" d="M122.69,315.15c0,.46.65.82,1.45.82s1.44-.36,1.44-.82-.64-.81-1.44-.81S122.69,314.7,122.69,315.15Z"/><path class="cls-42" d="M111.86,309.11V315c0,3.82,5.5,6.93,12.28,6.93s12.27-3.11,12.27-6.93v-5.85Z"/><path class="cls-43" d="M111.86,309.11v4.14c0,3.83,5.5,6.94,12.28,6.94s12.27-3.11,12.27-6.94v-4.14Z"/><path class="cls-44" d="M111.86,309c0,3.83,5.5,6.93,12.28,6.93s12.27-3.1,12.27-6.93-5.49-6.93-12.27-6.93S111.86,305.21,111.86,309Z"/><polygon class="cls-45" points="336.97 128.91 438.71 188.26 438.71 151.04 336.97 91.68 336.97 128.91"/><polygon class="cls-45" points="436.47 152.33 339.22 95.57 339.22 127.61 436.47 184.38 436.47 152.33"/><polygon class="cls-46" points="434.69 153.11 412.91 140.44 412.91 168.76 434.69 181.44 434.69 153.11"/><polygon class="cls-46" points="410.87 139.3 389.09 126.63 389.09 154.95 410.87 167.63 410.87 139.3"/><polygon class="cls-46" points="386.76 125.51 364.99 112.84 364.99 141.16 386.76 153.83 386.76 125.51"/><polygon class="cls-46" points="362.53 111.45 340.75 98.78 340.75 127.1 362.53 139.78 362.53 111.45"/><polygon class="cls-47" points="453.74 179.66 438.71 188.26 438.71 151.04 453.74 142.44 453.74 179.66"/><polygon class="cls-48" points="453.74 142.44 438.71 151.04 336.97 91.68 352 83.08 453.74 142.44"/><polygon class="cls-48" points="452.24 142.44 352 83.95 338.48 91.69 438.71 150.17 452.24 142.44"/><path class="cls-49" d="M413.34,156a1.93,1.93,0,0,0,0,.34v0a3.22,3.22,0,0,0,1,2l.19.15h0a1.16,1.16,0,0,0,.27.14.73.73,0,0,0,.66,0h0a1.25,1.25,0,0,0,.45-1.25s0,0,0,0a3.23,3.23,0,0,0-.58-1.59,2.6,2.6,0,0,0-.33-.4l-.16-.14a1.41,1.41,0,0,0-.35-.21.75.75,0,0,0-.62,0l-.1.06h0A1.16,1.16,0,0,0,413.34,156Z"/><path class="cls-28" d="M412.46,155.87l.14,1,.75-.44.09.36,1.87-.92a2.6,2.6,0,0,0-.33-.4l-.16-.14a1.41,1.41,0,0,0-.35-.21.75.75,0,0,0-.62,0l-.1.06h0Z"/><path class="cls-50" d="M413.17,159.12l1,.32,1.28-.73h0a1.25,1.25,0,0,0,.45-1.25l-1.58,1Z"/><path class="cls-51" d="M411.94,157.18a2.94,2.94,0,0,0,1.43,2.34c.7.29,1.21-.28,1.13-1.29a2.94,2.94,0,0,0-1.43-2.34C412.37,155.6,411.86,156.17,411.94,157.18Z"/><path class="cls-52" d="M413,155.84a2.8,2.8,0,0,0,0,.41,0,0,0,0,0,0,0,4,4,0,0,0,1.19,2.5,1.81,1.81,0,0,0,.23.18h0c.11.06-.75.67-.64.71a.94.94,0,0,0,.82,0h0a1.54,1.54,0,0,0,.56-1.54v0a4.06,4.06,0,0,0-.72-2,3.28,3.28,0,0,0-.4-.49l-.2-.18a1.82,1.82,0,0,0-.44-.26.92.92,0,0,0-.76,0l-.12.07,0,0C412.28,155.47,413.07,155.32,413,155.84Z"/><path class="cls-20" d="M412,155.63l.18,1.19.92-.54.11.44,1.34-.59a3.28,3.28,0,0,0-.4-.49l-.2-.18a1.82,1.82,0,0,0-.44-.26.92.92,0,0,0-.76,0l-.12.07,0,0Z"/><path class="cls-53" d="M412.83,159.64l1.21.4.61-.36h0a1.54,1.54,0,0,0,.56-1.54l-1,.65Z"/><path class="cls-54" d="M411.32,157.25a3.61,3.61,0,0,0,1.76,2.89c.87.36,1.49-.36,1.39-1.59a3.61,3.61,0,0,0-1.76-2.89C411.84,155.3,411.22,156,411.32,157.25Z"/><path class="cls-49" d="M407.57,152.73c0,.11,0,.22,0,.34v0a3.3,3.3,0,0,0,1,2l.19.15h0a1.65,1.65,0,0,0,.26.14.73.73,0,0,0,.66,0h0a1.27,1.27,0,0,0,.45-1.25v0a3.44,3.44,0,0,0-.58-1.59,2.2,2.2,0,0,0-.33-.4l-.16-.14a1.74,1.74,0,0,0-.36-.22.79.79,0,0,0-.62,0l-.1.06h0A1.19,1.19,0,0,0,407.57,152.73Z"/><path class="cls-28" d="M406.69,152.56l.15,1,.74-.44.09.35,1.88-.91a2.2,2.2,0,0,0-.33-.4l-.16-.14a1.74,1.74,0,0,0-.36-.22.79.79,0,0,0-.62,0l-.1.06h0Z"/><path class="cls-50" d="M407.41,155.82l1,.32,1.27-.73h0a1.27,1.27,0,0,0,.45-1.25l-1.58,1Z"/><path class="cls-51" d="M406.18,153.88a2.93,2.93,0,0,0,1.42,2.34c.71.29,1.21-.29,1.13-1.29a2.93,2.93,0,0,0-1.42-2.34C406.6,152.29,406.1,152.87,406.18,153.88Z"/><path class="cls-52" d="M407.28,152.54a2.8,2.8,0,0,0,0,.41v0a4.08,4.08,0,0,0,1.2,2.5l.23.18h0c.11.07-.76.68-.65.72a.94.94,0,0,0,.82,0h0a1.57,1.57,0,0,0,.56-1.54v0a4.13,4.13,0,0,0-.72-2,2.48,2.48,0,0,0-.41-.49l-.2-.18a2,2,0,0,0-.43-.26.92.92,0,0,0-.76,0l-.13.07h0C406.51,152.17,407.3,152,407.28,152.54Z"/><path class="cls-20" d="M406.19,152.33l.18,1.19.91-.54.12.43,1.34-.58a2.48,2.48,0,0,0-.41-.49l-.2-.18a2,2,0,0,0-.43-.26.92.92,0,0,0-.76,0l-.13.07h0Z"/><path class="cls-53" d="M407.07,156.34l1.21.39.6-.35h0a1.57,1.57,0,0,0,.56-1.54l-1,.65Z"/><path class="cls-54" d="M405.56,154a3.62,3.62,0,0,0,1.75,2.89c.87.36,1.49-.36,1.39-1.59a3.59,3.59,0,0,0-1.75-2.89C406.08,152,405.46,152.71,405.56,154Z"/><path class="cls-49" d="M365.69,127.27c0,.11,0,.22,0,.34v0a3.28,3.28,0,0,0,1,2,1.39,1.39,0,0,0,.19.15h0a1.1,1.1,0,0,0,.26.14.73.73,0,0,0,.66,0h0a1.27,1.27,0,0,0,.45-1.25v0a3.33,3.33,0,0,0-.58-1.59,2.6,2.6,0,0,0-.33-.4l-.16-.14a1.68,1.68,0,0,0-.36-.21.75.75,0,0,0-.62,0l-.1.06h0A1.16,1.16,0,0,0,365.69,127.27Z"/><path class="cls-28" d="M364.81,127.11l.15,1,.74-.44.09.36,1.88-.92a2.6,2.6,0,0,0-.33-.4l-.16-.14a1.68,1.68,0,0,0-.36-.21.75.75,0,0,0-.62,0l-.1.06h0Z"/><path class="cls-50" d="M365.53,130.36l1,.32,1.27-.73h0a1.27,1.27,0,0,0,.45-1.25l-1.58,1Z"/><path class="cls-51" d="M364.3,128.42a2.92,2.92,0,0,0,1.43,2.34c.7.3,1.2-.28,1.12-1.29a2.93,2.93,0,0,0-1.42-2.34C364.72,126.84,364.22,127.42,364.3,128.42Z"/><path class="cls-52" d="M365.4,127.08a2.8,2.8,0,0,0,0,.41v0a4.06,4.06,0,0,0,1.2,2.5,1.3,1.3,0,0,0,.23.18h0c.11.07-.76.67-.64.71a.92.92,0,0,0,.81,0h0a1.57,1.57,0,0,0,.56-1.54v0a4.16,4.16,0,0,0-.72-2,2.8,2.8,0,0,0-.41-.49l-.2-.18a2,2,0,0,0-.43-.26.92.92,0,0,0-.76,0l-.13.07,0,0C364.63,126.71,365.42,126.56,365.4,127.08Z"/><path class="cls-20" d="M364.31,126.87l.18,1.19.91-.54.12.44,1.34-.59a2.8,2.8,0,0,0-.41-.49l-.2-.18a2,2,0,0,0-.43-.26.92.92,0,0,0-.76,0l-.13.07,0,0Z"/><path class="cls-53" d="M365.19,130.88l1.21.4.6-.36h0a1.57,1.57,0,0,0,.56-1.54l-1,.65Z"/><path class="cls-54" d="M363.68,128.49a3.63,3.63,0,0,0,1.75,2.89c.87.36,1.49-.35,1.39-1.59a3.6,3.6,0,0,0-1.75-2.89C364.2,126.54,363.58,127.25,363.68,128.49Z"/><path class="cls-49" d="M359.53,124.51a1.82,1.82,0,0,0,0,.33,0,0,0,0,0,0,0,3.21,3.21,0,0,0,1,2,1.25,1.25,0,0,0,.19.15h0l.27.14a.76.76,0,0,0,.66,0h0a1.25,1.25,0,0,0,.45-1.25s0,0,0,0a3.27,3.27,0,0,0-.58-1.6,2.6,2.6,0,0,0-.33-.4l-.16-.14a1.41,1.41,0,0,0-.35-.21.75.75,0,0,0-.62,0l-.1.06h0A1.18,1.18,0,0,0,359.53,124.51Z"/><path class="cls-28" d="M358.64,124.34l.15,1,.75-.44.09.35,1.87-.92a2.6,2.6,0,0,0-.33-.4l-.16-.14a1.41,1.41,0,0,0-.35-.21.75.75,0,0,0-.62,0l-.1.06h0Z"/><path class="cls-50" d="M359.36,127.59l1,.32,1.28-.73h0a1.25,1.25,0,0,0,.45-1.25l-1.58,1Z"/><path class="cls-51" d="M358.13,125.65a2.94,2.94,0,0,0,1.43,2.35c.7.29,1.21-.29,1.13-1.29a2.94,2.94,0,0,0-1.43-2.35C358.56,124.07,358.05,124.65,358.13,125.65Z"/><path class="cls-52" d="M359.23,124.31a2.94,2.94,0,0,0,0,.42v0a4,4,0,0,0,1.19,2.5,1.81,1.81,0,0,0,.23.18h0c.11.07-.75.67-.64.72a.9.9,0,0,0,.82,0h0a1.54,1.54,0,0,0,.56-1.53v0a4.1,4.1,0,0,0-.72-2,3.28,3.28,0,0,0-.4-.49l-.2-.17a1.82,1.82,0,0,0-.44-.26,1,1,0,0,0-.76,0l-.12.08h0C358.47,123.94,359.26,123.79,359.23,124.31Z"/><path class="cls-20" d="M358.14,124.11l.18,1.19.92-.55.11.44,1.34-.59a3.28,3.28,0,0,0-.4-.49l-.2-.17a1.82,1.82,0,0,0-.44-.26,1,1,0,0,0-.76,0l-.12.08h0Z"/><path class="cls-53" d="M359,128.11l1.21.4.61-.36h0a1.54,1.54,0,0,0,.56-1.53l-1,.64Z"/><path class="cls-54" d="M357.51,125.72a3.61,3.61,0,0,0,1.76,2.89c.87.36,1.49-.35,1.39-1.59a3.61,3.61,0,0,0-1.76-2.89C358,123.77,357.41,124.49,357.51,125.72Z"/><polygon class="cls-47" points="167.75 186.1 66.02 245.45 66.02 208.23 167.75 148.88 167.75 186.1"/><polygon class="cls-47" points="68.26 209.53 165.51 152.76 165.51 184.8 68.26 241.57 68.26 209.53"/><polygon class="cls-55" points="70.04 210.31 91.82 197.63 91.82 225.96 70.04 238.63 70.04 210.31"/><polygon class="cls-55" points="93.86 196.5 115.64 183.82 115.64 212.15 93.86 224.82 93.86 196.5"/><polygon class="cls-55" points="117.97 182.7 139.74 170.03 139.74 198.35 117.97 211.03 117.97 182.7"/><polygon class="cls-55" points="142.2 168.64 163.98 155.97 163.98 184.29 142.2 196.97 142.2 168.64"/><polygon class="cls-45" points="50.99 236.86 66.02 245.45 66.02 208.23 50.99 199.63 50.99 236.86"/><polygon class="cls-48" points="50.99 199.63 66.02 208.23 167.75 148.88 152.73 140.28 50.99 199.63"/><polygon class="cls-48" points="52.49 199.63 152.73 141.14 166.25 148.88 66.01 207.37 52.49 199.63"/><path class="cls-49" d="M91.39,213.23a1.82,1.82,0,0,1,0,.33s0,0,0,0a3.18,3.18,0,0,1-1,2l-.18.15h0a1.82,1.82,0,0,1-.27.15.76.76,0,0,1-.66,0h0a1.24,1.24,0,0,1-.46-1.24v0a3.34,3.34,0,0,1,.59-1.6,2.6,2.6,0,0,1,.33-.4l.16-.14a1.41,1.41,0,0,1,.35-.21.75.75,0,0,1,.62,0l.1.06h0A1.18,1.18,0,0,1,91.39,213.23Z"/><path class="cls-28" d="M92.27,213.06l-.14,1-.75-.44-.09.36L89.42,213a2.6,2.6,0,0,1,.33-.4l.16-.14a1.41,1.41,0,0,1,.35-.21.75.75,0,0,1,.62,0l.1.06h0Z"/><path class="cls-50" d="M91.56,216.31l-1,.32-1.28-.73h0a1.24,1.24,0,0,1-.46-1.24l1.58,1Z"/><path class="cls-51" d="M92.78,214.37a3,3,0,0,1-1.42,2.35c-.71.29-1.21-.29-1.13-1.29a2.92,2.92,0,0,1,1.43-2.35C92.36,212.79,92.87,213.37,92.78,214.37Z"/><path class="cls-52" d="M91.69,213a1.89,1.89,0,0,1,0,.41v0a4,4,0,0,1-1.19,2.5l-.23.18h0c-.11.07.75.67.64.72a.94.94,0,0,1-.82,0h0a1.54,1.54,0,0,1-.55-1.54s0,0,0,0a4.15,4.15,0,0,1,.71-2,4.08,4.08,0,0,1,.41-.49l.2-.17a1.86,1.86,0,0,1,.44-.27,1,1,0,0,1,.76,0l.12.08h0C92.45,212.66,91.66,212.51,91.69,213Z"/><path class="cls-20" d="M92.78,212.82,92.6,214l-.92-.54-.12.44-1.34-.59a4.08,4.08,0,0,1,.41-.49l.2-.17a1.86,1.86,0,0,1,.44-.27,1,1,0,0,1,.76,0l.12.08h0Z"/><path class="cls-53" d="M91.9,216.83l-1.21.4-.61-.36h0a1.54,1.54,0,0,1-.55-1.54l1,.65Z"/><path class="cls-54" d="M93.41,214.44a3.61,3.61,0,0,1-1.76,2.89c-.87.36-1.49-.35-1.39-1.59A3.61,3.61,0,0,1,92,212.85C92.89,212.49,93.51,213.2,93.41,214.44Z"/><path class="cls-49" d="M97.15,209.92a1.93,1.93,0,0,1,0,.34v0a3.28,3.28,0,0,1-1,2,1.39,1.39,0,0,1-.19.15h0a1.1,1.1,0,0,1-.26.14.75.75,0,0,1-.67,0h0a1.25,1.25,0,0,1-.45-1.25v0a3.33,3.33,0,0,1,.58-1.59,2.6,2.6,0,0,1,.33-.4l.16-.14A1.68,1.68,0,0,1,96,209a.73.73,0,0,1,.61,0l.11.06h0A1.12,1.12,0,0,1,97.15,209.92Z"/><path class="cls-28" d="M98,209.76l-.15,1-.74-.44-.1.36-1.87-.92a2.6,2.6,0,0,1,.33-.4l.16-.14A1.68,1.68,0,0,1,96,209a.73.73,0,0,1,.61,0l.11.06h0Z"/><path class="cls-50" d="M97.32,213l-1,.32-1.28-.73h0a1.25,1.25,0,0,1-.45-1.25l1.58,1Z"/><path class="cls-51" d="M98.55,211.07a2.92,2.92,0,0,1-1.43,2.34c-.7.29-1.21-.28-1.12-1.29a2.93,2.93,0,0,1,1.42-2.34C98.13,209.49,98.63,210.07,98.55,211.07Z"/><path class="cls-52" d="M97.45,209.73a2.8,2.8,0,0,1,0,.41,0,0,0,0,1,0,0,4,4,0,0,1-1.19,2.5,1.3,1.3,0,0,1-.23.18h0c-.11.07.75.67.64.71a.92.92,0,0,1-.81,0h0a1.57,1.57,0,0,1-.56-1.54v0a4.17,4.17,0,0,1,.72-2,2.8,2.8,0,0,1,.41-.49l.2-.18a1.76,1.76,0,0,1,.43-.26.92.92,0,0,1,.76,0l.13.07,0,0C98.22,209.36,97.43,209.21,97.45,209.73Z"/><path class="cls-20" d="M98.54,209.52l-.18,1.19-.92-.54-.11.44L96,210a2.8,2.8,0,0,1,.41-.49l.2-.18a1.76,1.76,0,0,1,.43-.26.92.92,0,0,1,.76,0l.13.07,0,0Z"/><path class="cls-53" d="M97.66,213.53l-1.21.4-.6-.36h0a1.57,1.57,0,0,1-.56-1.54l1,.65Z"/><path class="cls-54" d="M99.17,211.14A3.63,3.63,0,0,1,97.42,214c-.87.36-1.5-.35-1.39-1.59a3.6,3.6,0,0,1,1.75-2.89C98.65,209.19,99.27,209.9,99.17,211.14Z"/><path class="cls-49" d="M139,184.47a1.82,1.82,0,0,1,0,.33v0a3.28,3.28,0,0,1-1,2,.9.9,0,0,1-.19.15h0a1.74,1.74,0,0,1-.26.15.78.78,0,0,1-.67,0h0a1.25,1.25,0,0,1-.45-1.25s0,0,0,0a3.33,3.33,0,0,1,.58-1.6,2.6,2.6,0,0,1,.33-.4l.16-.14a1.68,1.68,0,0,1,.36-.21.73.73,0,0,1,.61,0l.1.06h0A1.15,1.15,0,0,1,139,184.47Z"/><path class="cls-28" d="M139.92,184.3l-.15,1-.74-.43-.1.35-1.87-.92a2.6,2.6,0,0,1,.33-.4l.16-.14a1.68,1.68,0,0,1,.36-.21.73.73,0,0,1,.61,0l.1.06h0Z"/><path class="cls-50" d="M139.2,187.55l-1,.32-1.28-.73h0a1.25,1.25,0,0,1-.45-1.25l1.58,1Z"/><path class="cls-51" d="M140.43,185.61A2.92,2.92,0,0,1,139,188c-.7.29-1.21-.29-1.12-1.29a2.94,2.94,0,0,1,1.42-2.35C140,184,140.51,184.61,140.43,185.61Z"/><path class="cls-52" d="M139.33,184.27a2.94,2.94,0,0,1,0,.42v0a4,4,0,0,1-1.19,2.5,1.3,1.3,0,0,1-.23.18h0c-.11.07.75.67.64.72a.88.88,0,0,1-.81,0h0a1.57,1.57,0,0,1-.56-1.54v0a4.16,4.16,0,0,1,.72-2,2.8,2.8,0,0,1,.41-.49l.19-.17a1.69,1.69,0,0,1,.44-.26,1,1,0,0,1,.76,0l.13.08h0C140.1,183.9,139.31,183.75,139.33,184.27Z"/><path class="cls-20" d="M140.42,184.07l-.18,1.18-.92-.54-.11.44-1.34-.59a2.8,2.8,0,0,1,.41-.49l.19-.17a1.69,1.69,0,0,1,.44-.26,1,1,0,0,1,.76,0l.13.08h0Z"/><path class="cls-53" d="M139.54,188.07l-1.21.4-.6-.36h0a1.57,1.57,0,0,1-.56-1.54l1,.65Z"/><path class="cls-54" d="M141.05,185.68a3.61,3.61,0,0,1-1.76,2.89c-.86.36-1.49-.35-1.38-1.59a3.6,3.6,0,0,1,1.75-2.89C140.53,183.73,141.15,184.45,141.05,185.68Z"/><path class="cls-49" d="M145.2,181.7a1.93,1.93,0,0,1,0,.34,0,0,0,0,1,0,0,3.23,3.23,0,0,1-1,2l-.18.14h0l-.27.14a.76.76,0,0,1-.66,0h0a1.27,1.27,0,0,1-.46-1.25v0a3.34,3.34,0,0,1,.59-1.59,2.2,2.2,0,0,1,.33-.4l.16-.14a1.46,1.46,0,0,1,.35-.22.84.84,0,0,1,.62,0l.1.06,0,0A1.16,1.16,0,0,1,145.2,181.7Z"/><path class="cls-28" d="M146.08,181.53l-.14,1-.75-.44-.09.35-1.87-.91a2.2,2.2,0,0,1,.33-.4l.16-.14a1.46,1.46,0,0,1,.35-.22.84.84,0,0,1,.62,0l.1.06,0,0Z"/><path class="cls-50" d="M145.37,184.79l-1,.32-1.28-.73h0a1.27,1.27,0,0,1-.46-1.25l1.58,1Z"/><path class="cls-51" d="M146.59,182.85a2.93,2.93,0,0,1-1.42,2.34c-.71.29-1.21-.29-1.13-1.29a3,3,0,0,1,1.43-2.35C146.17,181.26,146.68,181.84,146.59,182.85Z"/><path class="cls-52" d="M145.5,181.51a1.92,1.92,0,0,1,0,.41v0a4,4,0,0,1-1.19,2.49l-.23.19h0c-.11.07.75.67.64.72a.94.94,0,0,1-.82,0h0a1.55,1.55,0,0,1-.55-1.54s0,0,0,0a4.11,4.11,0,0,1,.71-2,4.21,4.21,0,0,1,.41-.5l.2-.17a1.82,1.82,0,0,1,.44-.26.92.92,0,0,1,.76,0l.12.07h0C146.26,181.13,145.47,181,145.5,181.51Z"/><path class="cls-20" d="M146.59,181.3l-.18,1.19-.92-.54-.11.43L144,181.8a4.21,4.21,0,0,1,.41-.5l.2-.17a1.82,1.82,0,0,1,.44-.26.92.92,0,0,1,.76,0l.12.07h0Z"/><path class="cls-53" d="M145.71,185.31l-1.21.39-.61-.35h0a1.55,1.55,0,0,1-.55-1.54l1,.64Z"/><path class="cls-54" d="M147.22,182.92a3.59,3.59,0,0,1-1.76,2.88c-.87.36-1.49-.35-1.39-1.58a3.63,3.63,0,0,1,1.76-2.9C146.7,181,147.32,181.68,147.22,182.92Z"/><polygon class="cls-4" points="246.57 365.28 207.72 365.28 142.29 328.92 205.74 292.46 246.57 365.28"/><polygon class="cls-4" points="247.25 275.37 284.51 253.86 272.07 250.39 375.78 310.26 387.1 318.19 368.79 332.28 350.96 335.24 247.25 275.37"/><polygon class="cls-56" points="399.53 312.28 399.53 314.54 368.79 332.28 368.79 330.02 399.53 312.28"/><polygon class="cls-30" points="399.53 312.28 392.43 308.18 361.69 325.93 368.79 330.02 399.53 312.28"/><polygon class="cls-57" points="361.69 325.93 361.69 328.18 368.79 332.28 368.79 330.02 361.69 325.93"/><polygon class="cls-56" points="297.29 253.46 297.29 255.71 266.56 273.45 266.56 271.2 297.29 253.46"/><polygon class="cls-30" points="297.29 253.46 290.19 249.36 259.46 267.1 266.56 271.2 297.29 253.46"/><polygon class="cls-57" points="259.46 267.1 259.46 269.36 266.56 273.45 266.56 271.2 259.46 267.1"/><polygon class="cls-58" points="284.51 214.74 284.51 258.79 275.93 263.74 275.93 219.69 284.51 214.74"/><polygon class="cls-59" points="271.87 217.43 271.87 261.49 275.93 263.75 275.93 219.69 271.87 217.43"/><polygon class="cls-59" points="374.45 267.93 374.45 320.89 378.52 323.15 378.52 270.19 374.45 267.93"/><polygon class="cls-58" points="387.1 265.23 387.1 318.19 378.52 323.15 378.52 270.19 387.1 265.23"/><polygon class="cls-60" points="256.15 225.01 256.15 226.81 359.87 286.68 359.87 284.88 256.15 225.01"/><path class="cls-30" d="M301.37,198.91,256.15,225l103.71,59.88,45.22-26.09Zm58.82,77.8a7.62,7.62,0,0,1-6.88,0c-1.9-1.11-1.91-2.89,0-4a7.66,7.66,0,0,1,6.9,0C362.08,273.82,362.09,275.61,360.19,276.71Zm10.32-5.63a7.62,7.62,0,0,1-6.88,0c-1.9-1.1-1.92-2.88,0-4a7.61,7.61,0,0,1,6.89,0C372.4,268.21,372.41,270,370.51,271.08Zm10.33-5.62a7.58,7.58,0,0,1-6.88,0c-1.92-1.1-1.93-2.87,0-4a7.65,7.65,0,0,1,6.88,0C382.73,262.59,382.73,264.37,380.84,265.46Zm10.32-5.62a7.58,7.58,0,0,1-6.88,0c-1.91-1.08-1.92-2.87,0-4a7.62,7.62,0,0,1,6.88,0C393.05,257,393.06,258.75,391.16,259.84Z"/><polygon class="cls-58" points="346.88 272.73 262.48 224.44 300.44 202.52 384.85 250.81 346.88 272.73"/><polygon class="cls-56" points="405.07 258.79 405.07 260.59 359.87 286.68 359.87 284.88 405.07 258.79"/><path class="cls-60" d="M353.29,273.58a7.62,7.62,0,0,1,6.88,0,2.72,2.72,0,0,1,1.37,1.57c.23-.86-.22-1.77-1.37-2.43a7.58,7.58,0,0,0-6.88,0,2.17,2.17,0,0,0-1.34,2.4A2.63,2.63,0,0,1,353.29,273.58Z"/><path class="cls-60" d="M363.61,268a7.62,7.62,0,0,1,6.88,0,2.72,2.72,0,0,1,1.37,1.57c.23-.86-.21-1.77-1.37-2.43a7.58,7.58,0,0,0-6.88,0,2.17,2.17,0,0,0-1.34,2.4A2.63,2.63,0,0,1,363.61,268Z"/><path class="cls-60" d="M373.93,262.34a7.64,7.64,0,0,1,6.89,0,2.74,2.74,0,0,1,1.36,1.57,2.2,2.2,0,0,0-1.36-2.43,7.61,7.61,0,0,0-6.89,0,2.17,2.17,0,0,0-1.34,2.4A2.63,2.63,0,0,1,373.93,262.34Z"/><path class="cls-60" d="M384.25,256.72a7.64,7.64,0,0,1,6.89,0,2.71,2.71,0,0,1,1.36,1.57,2.2,2.2,0,0,0-1.36-2.43,7.61,7.61,0,0,0-6.89,0,2.17,2.17,0,0,0-1.34,2.4A2.63,2.63,0,0,1,384.25,256.72Z"/><path class="cls-4" d="M291.5,384.09c-9.32,5.38-16.43.92-25.81-4.49s-12.13-25.06-2.81-30.44,11.86-5.31,21.24.1S300.82,378.71,291.5,384.09Z"/><polygon class="cls-13" points="177.08 287.23 177.08 325.17 246.57 365.28 246.57 327.34 177.08 287.23"/><polygon class="cls-61" points="177.08 287.23 177.08 292.15 246.57 332.26 246.57 327.34 177.08 287.23"/><polygon class="cls-48" points="177.08 289.16 215.34 267.08 284.82 307.19 246.57 329.27 177.08 289.16"/><polygon class="cls-7" points="284.82 305.26 284.82 343.2 246.57 365.28 246.57 327.34 284.82 305.26"/><polygon class="cls-62" points="175.38 283.6 175.38 290.67 244.87 330.78 244.87 323.72 175.38 283.6"/><polygon class="cls-63" points="175.38 283.6 217.58 259.25 287.06 299.36 244.87 323.72 175.38 283.6"/><polygon class="cls-64" points="287.06 299.36 287.06 306.43 244.87 330.79 244.87 323.72 287.06 299.36"/><path class="cls-65" d="M252.21,299.47a4.53,4.53,0,0,0-1.88-2.08l-32.76-18.92a12.36,12.36,0,0,0-12.34,0l-5.73,3.31a3.2,3.2,0,0,0,0,5.54l36.41,21a9.55,9.55,0,0,0,4.85,1.28l10.05,10.67-.49,7.35,3.44-2,3.63,13.12V359l21.29-12.29V303.32Z"/><path class="cls-66" d="M216.22,270.43s-.07-5,0-7.1-.94-4.24,1.27-5.76,3-1.69,6.23,2.47,3.42,10.95,3,12.39-1,3.53-2.81,4.05-5.25.89-5.25,2.81a10.57,10.57,0,0,0,.43,3.13c.29.75,1.12,1.15,1.09,2.07a1.92,1.92,0,0,1-1.42,1.61c-3.19,1-4.35-2.05-4.53-4.58-.15-1.95-.66-3.88-.83-5.84-.12-1.44-.33-2.21.93-3.14C215.11,272,216.36,271.54,216.22,270.43Z"/><path class="cls-66" d="M246.3,291.49c0-.48,0-1-.06-1.45a6.25,6.25,0,0,1,.13-1.55c.1-.88,0-1.76.09-2.63.18-1.35,1-2.68.57-4,.18.1.37-.12.46-.31a6.59,6.59,0,0,0,.91-3.06c-.06-1.85.71-3.62.56-5.53a6.74,6.74,0,0,0-1.81-4.29c-.44-.44-1-.79-1.39-1.26a6.31,6.31,0,0,0-1.37-1.36,3.77,3.77,0,0,0-3.9-.18,4.21,4.21,0,0,0-2.05,3,18.31,18.31,0,0,0-.49,3.21l-.18,2.1c-.05.54-.1,1.08-.11,1.63a21.5,21.5,0,0,0,.2,2.77,6.39,6.39,0,0,0,.64,2.53,6.25,6.25,0,0,1,.89,2.73c.23,1.85.86,3.69.65,5.55.47-.57.39.64.39.79,0,.69.08,1.39.11,2.08,0,.05,0,.1.06.12s.09,0,.12,0l.52-.39c-.07,1.5-.07,3-.08,4.49a.5.5,0,0,0,.05.27c.13.22.46.14.7,0-.23.11.32,1.12.35,1.25.1.54,0,.89.35,1.41a5.74,5.74,0,0,0,2,1.73,5.09,5.09,0,0,0,1.26.44,7.11,7.11,0,0,0,1.52.26,2.35,2.35,0,0,0,1.46-.41c.66-.49,1.36-.24,1.77-1.07a2.57,2.57,0,0,0,.09-1.87,2,2,0,0,0-1.11-1.27,13.93,13.93,0,0,1-1.52-1c-.38-.29-.88-.44-1.1-.89a8.54,8.54,0,0,1-.64-3.53C246.3,291.7,246.3,291.6,246.3,291.49Z"/><path class="cls-56" d="M250.68,298.46a2,2,0,0,0-1.11-1.27,13.93,13.93,0,0,1-1.52-1c-.38-.29-.88-.44-1.1-.89a8.54,8.54,0,0,1-.64-3.53c0-.11,0-.21,0-.32,0-.48,0-1-.06-1.45a6.25,6.25,0,0,1,.13-1.55c.1-.88,0-1.76.09-2.63.18-1.35,1-2.68.57-4,.18.1.37-.12.46-.31a6.59,6.59,0,0,0,.91-3.06.86.86,0,0,1,0-.16,1.72,1.72,0,0,0-.74-.43c-.94-.25-1.85.38-2.67.9a14.23,14.23,0,0,1-3.18,1.5,5.86,5.86,0,0,0-2.92,1.48v0a6.44,6.44,0,0,1,.51,2c0,.33.1.66.15,1a5.39,5.39,0,0,0,1.19-1c.56-.55,1.16-1,1.75-1.56a28.58,28.58,0,0,1-1,7.51,10.16,10.16,0,0,0,1.94-1.7,7.39,7.39,0,0,0-.59,2.1A7.47,7.47,0,0,0,243,292c.1.55.21,1.1.31,1.65a8.77,8.77,0,0,0,.6,2.13,3.37,3.37,0,0,0,.74-.42c.25.94-.81,1.81-.69,2.78a2,2,0,0,0,1,1.3,6.58,6.58,0,0,0,2,.95c.61.17.86.41,1.49.24a5.43,5.43,0,0,0,2.36-1.38A2.72,2.72,0,0,0,250.68,298.46Z"/><path class="cls-67" d="M229.54,257.88c-.29-.13-.58-.25-.9-.37a5.25,5.25,0,0,1-1.66-1.28l-2-1.82c-.27-.25-1.89-1.46-1.86-1.78a2.06,2.06,0,0,0,.15,1,2.16,2.16,0,0,0-1.17-.68,4.53,4.53,0,0,0-.75-.08h-2.81l1-.3a9.2,9.2,0,0,0-3.46-.18,21,21,0,0,0-3.46,1.16c-1.77.71-3.86,1.35-5,3,.71-.13,1.43-.23,2.15-.31a4.62,4.62,0,0,1-1.33,1c-1.94,1.31-1.85,4.72-2.12,6.82a3.89,3.89,0,0,0,.74-.6c-.37,3.23.65,5.63,2.59,8.13a34.12,34.12,0,0,0,4.27,4.56,44.45,44.45,0,0,1,4.5,4.6,5.24,5.24,0,0,0,.16-1.53c1.62.64,2.48,2.54,4.08,3.22a13.56,13.56,0,0,0,1.66.45,12.84,12.84,0,0,1,3.64,1.92,6.77,6.77,0,0,1,1.44,1.17c.4.46.48,1.13.89,1.51,1,1,3.4.87,4.65.61a7.61,7.61,0,0,0,2.74-.23c3.73-.84,8.09-3,10.53-6,1.48-1.84,5.16-2,4.9-4.21a27.8,27.8,0,0,0-2.81-9.25,4.84,4.84,0,0,0-1-1.4,5.27,5.27,0,0,0-1.41-.84,7.29,7.29,0,0,0-2.73-1,31.21,31.21,0,0,1-4.07-.71,15.6,15.6,0,0,1-1.58-.45c-.17-.05-1.54-.79-1.58-.76l.5-.33a17.33,17.33,0,0,1-5.58-3c-.79-.62-1.67-1.11-2.44-1.77a.53.53,0,0,1,.09.5A6.71,6.71,0,0,0,229.54,257.88Z"/><path class="cls-68" d="M239.24,264.61c-.87.63-1.4,1.54-2.2,2.24s-1.81,1.56-2.69,2.38c-.53.49-1.09,1.23-.73,1.86a5.46,5.46,0,0,0-4.73-1.28,16.1,16.1,0,0,0-4.73,1.8,11.67,11.67,0,0,1,.31-2.63l-2,1.1a.76.76,0,0,1-.48.13.67.67,0,0,1-.35-.23c-1-1-1.63-2.39-2.69-3.36-1.74-1.57-4.42-1.89-5.94-3.68a13.45,13.45,0,0,1-.45,3.22l-2.11-2a4,4,0,0,1-.73-.81c-.84-1.42.14-3.92,1-5.14a11.39,11.39,0,0,1-2.42,2.06,6.43,6.43,0,0,1,2.12-3.24c.22-.18.48-.37.51-.66s-.35-.57-.53-.36a36.84,36.84,0,0,0,4-.86,5.49,5.49,0,0,1-2.06-1.24,24.12,24.12,0,0,1,4.57-.4,2.3,2.3,0,0,1,.94.16c.52.25.81.85,1.34,1.07-.18-.32.16-.73.52-.76a1.71,1.71,0,0,1,1,.39l2,1.38.48-.95a18.08,18.08,0,0,0,3.52,2.53c.86.54,1.63,1.29,2.52,1.73s2.17.87,3.23,1.3l-.83-.9c.69.75,2.05,1.08,2.86,1.75,1,.78,2.16,1.28,3,2.13C237.73,263.57,238.93,264.84,239.24,264.61Z"/><path class="cls-56" d="M248.9,277.74a.9.9,0,0,0,0-.23c-.33,0-.48.38-.56.7a9.07,9.07,0,0,1-3.2,5,14.6,14.6,0,0,1,.83-2.68,13,13,0,0,1-4.17,4.15c-.61.38-.72.16-1.25-.07s-.87,0-1.37.07a12.86,12.86,0,0,1-3.45,0c-.74-.1-1.57-.09-2.05-.71a8.17,8.17,0,0,1-1.17-2.1,9.3,9.3,0,0,1-.35-1.25,17.14,17.14,0,0,1,.12-7.93,20.48,20.48,0,0,0-4,4c-.61.72-1.22,1.43-1.89,2.09a5.36,5.36,0,0,1-1.07.95c-.45.23-.74-.16-1.14-.45a2,2,0,0,1-1-1.19c0-.31.06-.61,0-.92s-.25-.65-.55-.61a.78.78,0,0,0-.46.38c-.16.24-.31.75-.69.65a1.05,1.05,0,0,1-.5-.48c-.59-.95-1.19-1.89-1.79-2.83-.18.28-.52.6-.8.41a.62.62,0,0,1-.16-.2,14.7,14.7,0,0,1-.55-2.22c-.15-.41-.38-.79-.55-1.2-.47-1.18-.3-2.58-.95-3.68a8.25,8.25,0,0,0-.81,1.45A12.59,12.59,0,0,1,214,266.5a11.59,11.59,0,0,1-.5-1.22c-.09-.26-.12-.77-.32-.95-.77-.66-2.16.91-2.69,1.3A8.51,8.51,0,0,0,208.9,267a9.13,9.13,0,0,0-1,1.69,14.83,14.83,0,0,0,1.78,2.84,34.12,34.12,0,0,0,4.27,4.56,44.45,44.45,0,0,1,4.5,4.6,5.24,5.24,0,0,0,.16-1.53c1.62.64,2.48,2.54,4.08,3.22a13.56,13.56,0,0,0,1.66.45,12.84,12.84,0,0,1,3.64,1.92,6.77,6.77,0,0,1,1.44,1.17c.4.46.48,1.13.89,1.51,1,1,3.4.87,4.65.61a7.61,7.61,0,0,0,2.74-.23,21.78,21.78,0,0,0,6.4-2.56,17.25,17.25,0,0,0,2.81-2.07c.73-.66,1.85-1.47,1.6-2.5a3.41,3.41,0,0,1,.13-2A2.71,2.71,0,0,0,248.9,277.74Z"/><path class="cls-69" d="M242.14,260.23a3.81,3.81,0,0,1,.7-.12C243.64,260.06,242.75,259.77,242.14,260.23Z"/><path class="cls-67" d="M236.33,296v-.52a15.44,15.44,0,0,1,.06-2.36c.14-.91,0-1.84.11-2.75.18-1.35,1-2.68.57-4,.18.1.37-.12.46-.3a6.67,6.67,0,0,0,.91-3.07c-.06-1.84.71-3.62.57-5.53a6.81,6.81,0,0,0-1.82-4.29c-.44-.44-1-.79-1.39-1.26a6.31,6.31,0,0,0-1.37-1.36,3.77,3.77,0,0,0-3.9-.18,4.23,4.23,0,0,0-2.05,3,18.31,18.31,0,0,0-.49,3.21l-.18,2.1c-.05.54-.1,1.08-.11,1.63a21.66,21.66,0,0,0,.2,2.78,6.56,6.56,0,0,0,.64,2.52,6.25,6.25,0,0,1,.89,2.73c.23,1.85.86,3.69.65,5.55.47-.57.39.64.39.79,0,.69.08,1.39.11,2.08,0,0,0,.1.06.12s.09,0,.12,0l.52-.39c-.23.18-.06,2-.06,2.3a10.39,10.39,0,0,0,.21,2.29,1.42,1.42,0,0,0,.65-.51c-.1.15.23,1.1.28,1.27a17.43,17.43,0,0,1,.42,1.73,2.6,2.6,0,0,0,.1.4c.38,1.13,1.94,1.87,3,2.14a7.11,7.11,0,0,0,1.52.26,2.35,2.35,0,0,0,1.46-.41c.66-.49,1.36-.24,1.77-1.07a2.72,2.72,0,0,0-.56-2.94c-.63-.73-1.75-1-2.53-1.49a.74.74,0,0,1-.16-.19A8.22,8.22,0,0,1,236.33,296Z"/><path class="cls-56" d="M236.77,305.2c-.52-.28-1-.67-1.45-1a2.69,2.69,0,0,1-1-.81,6,6,0,0,1-.9-2.2c-.09-.63.06-1.05-.49-1.54a1.42,1.42,0,0,1-.39-.42.89.89,0,0,1-.07-.4,8.82,8.82,0,0,0,0-2.76,1.13,1.13,0,0,1-.29.43,10.19,10.19,0,0,1-.57-3.65c0-1.64-.1-3.29-.16-4.94l-1,1.32a14.11,14.11,0,0,0-.35-3.72c-.21-.92-.09-2-.83-2.75a1.56,1.56,0,0,1-.33-.35,1.17,1.17,0,0,1-.1-.41,23.59,23.59,0,0,1-.08-3,25.36,25.36,0,0,1,.8-5.19,2.71,2.71,0,0,1,.53-1.36,23.14,23.14,0,0,1,2-1.72,1.4,1.4,0,0,0,.43-.51.61.61,0,0,0,0-.27,3.8,3.8,0,0,0-2,.43l-.31.19-.11.08-.48.36a5.08,5.08,0,0,0-1.22,2.35,18.31,18.31,0,0,0-.49,3.21l-.18,2.1c-.05.54-.1,1.08-.11,1.63a21.66,21.66,0,0,0,.2,2.78,6.56,6.56,0,0,0,.64,2.52,6.25,6.25,0,0,1,.89,2.73c.23,1.85.86,3.69.65,5.55.47-.57.39.64.39.79,0,.69.08,1.39.11,2.08,0,0,0,.1.06.12s.09,0,.12,0l.52-.39c-.23.18-.06,2-.06,2.3a10.39,10.39,0,0,0,.21,2.29,1.37,1.37,0,0,0,.65-.51c-.1.15.23,1.1.28,1.27a17.43,17.43,0,0,1,.42,1.73,2.6,2.6,0,0,0,.1.4c.38,1.13,1.94,1.87,3,2.14a7.11,7.11,0,0,0,1.52.26,2.35,2.35,0,0,0,1.46-.41,1.49,1.49,0,0,1,.39-.21A4.41,4.41,0,0,1,236.77,305.2Z"/><path class="cls-70" d="M237.75,266.19l-.08,0c-.3.12-.64.28-.73.6s0,.39-.05.58c-.11.41-.63.53-.92.84a.26.26,0,0,0-.08.2.28.28,0,0,0,.1.14c.39.34.8.67,1.21,1l-1,.56a1.34,1.34,0,0,0,.77.08,1.86,1.86,0,0,1,.78,0c.59.2.23,1.13,1,1.11.14,0,.27-.06.41-.07s.3.05.33.18a.38.38,0,0,1,0,.15,2,2,0,0,0,1.38,2c.33.1.72.14.91.42s.12.94.23,1.34c0,.16,0,.5.15.6s.76,0,1,0c0,.37,0,.73,0,1.1,0,.16,0,.34.15.43s.33.05.5,0a4.81,4.81,0,0,1,1.45-.26,12.14,12.14,0,0,1,1.79.29,2.59,2.59,0,0,0,1.76-.23c0,.28.45.35.67.17a1.11,1.11,0,0,0,.33-.75,9.66,9.66,0,0,0,0-3.35,16.68,16.68,0,0,0-.61-2.17c-.4-1.24-.81-2.48-1.21-3.72a5.67,5.67,0,0,0-1.75-3,4.88,4.88,0,0,0-1.93-.7c-.62-.12-1-.39-1.63-.25a19.77,19.77,0,0,0-2.13.59,1.85,1.85,0,0,0-1.22,1A3.15,3.15,0,0,1,237.75,266.19Z"/><path class="cls-67" d="M212.61,263.78c3.27,4.15,3.42,11,3,12.39s-1,3.53-2.81,4.05-5.24.89-5.24,2.81a10.49,10.49,0,0,0,.42,3.12c.29.76,1.12,1.16,1.09,2.08a1.92,1.92,0,0,1-1.42,1.61c-3.19,1-4.35-2-4.53-4.58-.1-1.35-.38-2.67-.59-4a8.39,8.39,0,0,1-.1-1.81,5.29,5.29,0,0,1,1-3.06c.29-.28.66-.48.84-.83a4.65,4.65,0,0,1-1.23.14c.76-.43,2.55-.85,2.9-1.67a5.92,5.92,0,0,0-.17-4.34,9.64,9.64,0,0,1-.44-1,12,12,0,0,1-.17-1.2,11.67,11.67,0,0,1,0-2.77c.26-2.33,1-4.75,3.4-5.67a.48.48,0,0,1,.48,0,.41.41,0,0,1,.12.17c.4.73,1.16,1.18,1.61,1.87C211.37,262,211.93,262.91,212.61,263.78Z"/><path class="cls-56" d="M209,288.51a2.83,2.83,0,0,1-4.31-.75c-.28-.49-.34-1-.62-1.51a3.6,3.6,0,0,1-.35-1.52c-.06-1-.07-2,0-3a1.78,1.78,0,0,1-.52.54c.19-1,.41-1.94.67-2.9a2.31,2.31,0,0,1-.7.76,13.08,13.08,0,0,1,.91-3c-.33.52-.85,1.32-1.46,1.49a7.45,7.45,0,0,0-.1.85,8.39,8.39,0,0,0,.1,1.81c.21,1.33.49,2.65.59,4,.18,2.53,1.34,5.58,4.53,4.58A2,2,0,0,0,209,288.6.36.36,0,0,1,209,288.51Z"/><path class="cls-56" d="M206.91,274.17a1.57,1.57,0,0,0,.23-.55,12.18,12.18,0,0,0,.18-5.27,2.92,2.92,0,0,1-1.16.53,32,32,0,0,1,1-4.44,4.37,4.37,0,0,1-1.51,1.39c.53-1.87.94-3.77,1.28-5.68a7.76,7.76,0,0,0-1.76,4.58,11.67,11.67,0,0,0,0,2.77,12,12,0,0,0,.17,1.2,9.64,9.64,0,0,0,.44,1A5.92,5.92,0,0,1,206,274c-.29.68-1.56,1.08-2.42,1.45.9-.26,1.8-.55,2.68-.89A1.57,1.57,0,0,0,206.91,274.17Z"/><path class="cls-58" d="M244.16,275.76c-.34-.58-.52-1.35-1.15-1.69a10,10,0,0,1-1.86-1.4,5,5,0,0,1-1.21-2.27.46.46,0,0,0-.36.44l-.63-1.56a5.31,5.31,0,0,1-.33-.83,1.2,1.2,0,0,1,0-.4,12.61,12.61,0,0,1,0-3.19c.36-1.67,1.75-2.49,3-3.65a7.07,7.07,0,0,1,4.87-1.75c3,0,4,.5,5.51,2.59a8.55,8.55,0,0,1,1.47,5.65,9,9,0,0,0-.16,2.52,9.45,9.45,0,0,0,.85,1.48c.19.37.43.72.64,1.07a9.66,9.66,0,0,1,1.3,2.66c.3,1.28-.54,1.65-.77,3.61-.26,2.16-4.57,3.36-4.57,3.36s-3.54-1.41-4.68-3.29C245.44,278,244.8,276.88,244.16,275.76Z"/><path class="cls-56" d="M247.67,278.24c.32-.08.68-.25.73-.58a.93.93,0,0,0-.13-.51c-1.07-2.21-3.15-4.12-5.6-4.18,0-.6-.22-1.35-.8-1.46a.7.7,0,0,1-.33-.08.51.51,0,0,1-.17-.33,17.64,17.64,0,0,1-.36-2.71l-1.21.05c-.14-.38,0-.8,0-1.21s-.45-.85-.78-.61a4.94,4.94,0,0,0,.64-1.45,3.83,3.83,0,0,1,.59-1.47,4.92,4.92,0,0,1-.86.09,3.12,3.12,0,0,1,1.07-1.55l.43-.39a5.56,5.56,0,0,0-2.27,3,12.61,12.61,0,0,0,0,3.19,1.2,1.2,0,0,0,0,.4,5.31,5.31,0,0,0,.33.83l.63,1.56a.47.47,0,0,1,.36-.44,5,5,0,0,0,1.21,2.27,10,10,0,0,0,1.86,1.4c.63.34.81,1.11,1.15,1.69.51.89,1,1.78,1.55,2.67A6.17,6.17,0,0,0,247.67,278.24Z"/><path class="cls-56" d="M246.52,259.46a7.07,7.07,0,0,0-4.87,1.75c-.21.2-.43.38-.64.57a6.38,6.38,0,0,1,1.49-1,2.54,2.54,0,0,1,.74-.23c.54-.09,1.13-.09,1.67-.22s.86-.27,1.32-.33a7.53,7.53,0,0,0,1.89.18,1.22,1.22,0,0,0,.51-.1.52.52,0,0,0,.24-.37A11,11,0,0,0,246.52,259.46Z"/><path class="cls-66" d="M250.16,257.09a.54.54,0,0,0-.26.05,10,10,0,0,0-3.36,2.94,2.49,2.49,0,0,0-.53.79,1.66,1.66,0,0,0,.19,1,2.32,2.32,0,0,0,.52.73,1.44,1.44,0,0,0,.46.31c.09,0,.7-.84.75-1a4.28,4.28,0,0,1,.6-1c.54-.76,1.08-1.52,1.6-2.3a1.81,1.81,0,0,0,.37-.81C250.54,257.55,250.48,257.11,250.16,257.09Z"/><path class="cls-66" d="M244.46,263.17s.27.06-.55-1.57a15.72,15.72,0,0,0-2.17-2.94,5.07,5.07,0,0,0-2,4.12c-.07,1.48.39,1.9.39,1.9s.24.67,2.48-1C242.81,263.52,242.4,263.14,244.46,263.17Z"/><path class="cls-68" d="M255.09,276.65c.18-.12.34-.19.37.11a17.68,17.68,0,0,1,0,3,1.52,1.52,0,0,1-.49,1.17c-.18.11-.39.15-.58.25a2.45,2.45,0,0,0-.55.47,3.39,3.39,0,0,1-1.06.78,1.77,1.77,0,0,1-1.28.1.71.71,0,0,0-.24-.06c-.28,0-.4.38-.66.47-.29-.19-.4-.5-.71-.68s-.76-.34-1.13-.54a3.32,3.32,0,0,1-1.44-1.48l-.62.48s-1.14-3.1-1.45-2.91a.66.66,0,0,1-.58.06,4.76,4.76,0,0,0-.31-1.48c-.12-.3,0-1.34-.24-1.48s-.25,0-.34.14-.27.34-.41.5a.23.23,0,0,1-.11.09c-.12,0-.15-.15-.14-.26.09-1.3.16-2.72,1.07-3.7a4,4,0,0,1,2.25-1.42h.31a2.38,2.38,0,0,0-.09,2.37,6.34,6.34,0,0,0,1.59,1.91c.61.55,1.21,1.09,1.85,1.6a4,4,0,0,0,.73.64c.33.17.6-.06.9-.24a9.7,9.7,0,0,1,.95-.51c.14-.07.32-.12.42,0a.61.61,0,0,1,.09.16,1.12,1.12,0,0,0,.46.43,1.2,1.2,0,0,0,1.16.24A2.35,2.35,0,0,0,255.09,276.65Z"/><path class="cls-68" d="M255.76,274.89s-.19,1.28-.29,2.71a13.89,13.89,0,0,1-.77,3.42l1.23-2.14a1.07,1.07,0,0,0,.35.44c.31-1,.88-2.53.58-3.58a8.79,8.79,0,0,0-1.17-2.12c-.67-1-1.58-2-2.19-3.05A35.6,35.6,0,0,0,255.76,274.89Z"/><path class="cls-71" d="M256.13,275.43a6.37,6.37,0,0,1-.31,1.44,5.54,5.54,0,0,1-.3.73,1,1,0,0,1-.5.53c-.47.12-2.21,1-2.81-.58s0-2.21,0-2.21C255,273.66,256.17,274.74,256.13,275.43Z"/><path class="cls-72" d="M252.42,267.58a1.44,1.44,0,0,1-.7.88,2.12,2.12,0,0,1-1.28,0s0-1,.53-1.3A1,1,0,0,1,252.42,267.58Z"/><ellipse class="cls-73" cx="251.74" cy="267.51" rx="0.39" ry="0.35"/><path class="cls-72" d="M247.56,269.17a1.51,1.51,0,0,1-1,.58,2.25,2.25,0,0,1-1.28-.45,2.59,2.59,0,0,1,1-1.05C247.27,267.85,247.56,269.17,247.56,269.17Z"/><ellipse class="cls-73" cx="246.79" cy="268.74" rx="0.39" ry="0.35"/><path class="cls-74" d="M253.24,276.62c-.14.11.18.6-.33.64a1.2,1.2,0,0,1-.88-.35,1.67,1.67,0,0,0,.18.64c.16.32.64.41.93.43s1,0,1.06-.65S254.2,275.92,253.24,276.62Z"/><path class="cls-68" d="M214.92,255.08a1.52,1.52,0,0,0,.84-1c.08-.38,0-.7.26-1.06.08-.13.2-.27.14-.42a.46.46,0,0,0-.17-.17,7.25,7.25,0,0,1-2-1.57,2,2,0,0,1-.38-1.38l-.39.74a.38.38,0,0,1-.11.14.3.3,0,0,1-.28-.07,2,2,0,0,1-.49-1.39l-.08-1.05a20.15,20.15,0,0,1-.08-2.8c0-.46.13-.89.2-1.33,0-.16-.11-1-.07-1-.22.25-.31.08-.35-.18s.14-.43.23-.65.11-.29.17-.43,0-.23.06-.39.1-.42.14-.62,0-.53,0-.53a2.93,2.93,0,0,1-.6.15,8.42,8.42,0,0,1,1.26-3.23l-1.92.5c-.14-.26.14-.67-.11-.83a.38.38,0,0,0-.36,0c-1.22.52-1.48,1.79-1.87,2.91,0,.1-.08.21-.18.25s-.11,0-.15.07a.3.3,0,0,0-.06.18,7.62,7.62,0,0,0,.21,2.56,3.67,3.67,0,0,1,.32,1.07c0,.05,0,.82,0,.82a2.31,2.31,0,0,0-.82-.21,8.21,8.21,0,0,0,.21,2.62c.12.47.5,1.51.1,1.93-.14.15-.41,0-.6,0a14.87,14.87,0,0,0,1.3,3c.23.46.82,1.57,1.42,1.56h-.91c.25.49,1,.44,1.42.73s.55.61.85.9A2.46,2.46,0,0,0,214.92,255.08Z"/><path class="cls-68" d="M212.61,263.78c-.68-.87-1.24-1.76-1.85-2.67a4.22,4.22,0,0,0-.62-.72.73.73,0,0,0-.31.27,5.1,5.1,0,0,0-.27,2.52c0,1.24,0,2.47,0,3.71a2.65,2.65,0,0,0,.39,1.62,5.31,5.31,0,0,1,1.13-1.14,9.32,9.32,0,0,1,0,3.57,6.84,6.84,0,0,0,1.77-1.18,17.22,17.22,0,0,1-.73,3.77.52.52,0,0,1,.13.66,1.69,1.69,0,0,1-.5.53l-2.78,2.08a1.7,1.7,0,0,0,1,.14,5.09,5.09,0,0,1-1,2.65l.57.06c0,.9-1.35,1.37-1.45,2.2,1.05-.94,3.31-1.25,4.67-1.63,1.82-.52,2.43-2.61,2.81-4.05S215.88,267.93,212.61,263.78Z"/><path class="cls-75" d="M245.12,263.17s.28.06-.55-1.57a11.28,11.28,0,0,0-2.83-2.94s-1.14,1.1-1.29,4.12c-.08,1.48.38,1.9.38,1.9s-.11.44,2.13-1.27C243.12,263.29,244.94,263.28,245.12,263.17Z"/><path class="cls-75" d="M252,262.34s0,.18-.12-1.53a6.68,6.68,0,0,0-1.61-3.71,8.91,8.91,0,0,0-2.61,3.77,4.84,4.84,0,0,0-.49,2.12,5.07,5.07,0,0,0,2.28-.59C249.6,262.32,251.41,262.77,252,262.34Z"/><path class="cls-74" d="M255.82,276.87a5.54,5.54,0,0,1-.3.73,1.58,1.58,0,0,1-.52-.09.64.64,0,0,1-.26-.18.62.62,0,0,1-.07-.19,3.1,3.1,0,0,1-.11-.5.75.75,0,0,1,.05-.38c.11-.25.82-.54.95-.22s-.27.73.12.83Z"/><path class="cls-76" d="M294.35,370.65a23.16,23.16,0,0,1,.19,4.68c-.25,1.31-.38,2.6-2,3a9.87,9.87,0,0,1-7-1.38c-2.52-1.53-8.89-7.52-10-8.63a3.92,3.92,0,0,1,.17-4.86,11.58,11.58,0,0,1,5.85-1.76C282.62,361.89,294.35,370.65,294.35,370.65Z"/><path class="cls-76" d="M278.41,373.4s-5.19-.65-7.09-1.06-4.89.48-5,2.1-.31,6,4.63,7.16,12.9,2.45,12.9,2.45,4.25.51,5.4-2.07-.44-6.11-.44-6.11Z"/><path class="cls-77" d="M264.06,230.29a4.15,4.15,0,0,0-1.27,3.2c0,2.16.1,2.65,1.56,6.81s3.8,9.87,5,10.45a10.72,10.72,0,0,0,3.65.57l1.48,4.57s8.54-1.4,11.18-3.31,2-2.64,2-2.64-2.5-.9-4.18-6.5-1-13.94-3.62-15.5S264.06,230.29,264.06,230.29Z"/><path class="cls-76" d="M265.61,237.86s1.78,2,1.86,2.82.29,1.95.29,1.95l1.07-1.3s-1.31-4.3,2.58-2.93,3.07,4.93,5.2,5.89,7-.43,6.78-1.18,1.59-7,.07-12.14-4.53-9.21-11.17-8.57-9.49,8.16-10,9.2.78,4.87.78,4.87A7.34,7.34,0,0,1,265.61,237.86Z"/><path class="cls-78" d="M270.24,242.51s.24,1.88,1.12,1.84.95-3,.77-4-1.8-2.57-2.82-2.06S269.77,241.08,270.24,242.51Z"/><path class="cls-79" d="M242.42,266.63s1.21,3.41,2.19,4.48,1.22,1.12,1.63,1.12,4.84-1.73,4.84-1.73,6.35,2.27,6.82,4.84-.81,4.16-5.45,5.29-8.56,2.13-9.74,1.45-3.31-4.31-4.34-6.71-2-8.45-2.26-8.82a8.15,8.15,0,0,1-.88-2.29c.05-.26.48-2.3.48-2.3a15,15,0,0,1,2.53-1.2c.77-.18,2.13-.67,2.51-.69s.5-.87,1.42-.94a1.61,1.61,0,0,1,1.41.71l-.81,1.87,1.07-.07s1-1.93,1.71-2,1.34.06,1.14.6-1.34,2.52-1.34,2.52a3.82,3.82,0,0,1-.8,2.37A6,6,0,0,1,242.42,266.63Z"/><path class="cls-79" d="M269.43,278.4s-1.5,3.4-2.39,3.66-5.13.76-5.13.76-1.89.54-.74,1a9.38,9.38,0,0,0,2.88.52l-3,3.37c-.65.74-1.6,1.58-1,1.87s2.19-1.05,2.19-1.05l1.67-.76s-3.18,3-3.2,3.53a.84.84,0,0,0,.45.86c.16,0,.37.58.92.65a2.53,2.53,0,0,0,1.15-.17s.19.87,1.29.32a27.58,27.58,0,0,0,4.44-4c.37-.47,4.17-5.36,4.07-5.88S269.43,278.4,269.43,278.4Z"/><path class="cls-80" d="M304.45,307.05a27.35,27.35,0,0,1,.7,8.61c-.44,4.33-2.45,7.49-2.79,11.23s-1.14,17.16-1.77,19.35-.6,14-2.38,18.68a37.42,37.42,0,0,1-4.1,7.93s-6,1.9-8.1-1,4.66-63.56,4.66-63.56Z"/><path class="cls-81" d="M299.44,309.77a17,17,0,0,1,.64,7.28c-.62,3.53-4,10.14-4,10.14s-2.73,11.15-3.41,14.31a41.46,41.46,0,0,0-.83,5.53s-.23,12.19-.59,15.8-1.81,14.78-1.92,15.31-3.72,2.39-6.66,2.32-5.59-2.54-5.89-3.71,1.86-9.31,1.33-15.85-3.43-26.15-3.65-28-.21-15.56-.09-18.19S299.44,309.77,299.44,309.77Z"/><path class="cls-82" d="M273.42,255.07s3.55-2.1,5.25-2.35,5.83-1.29,7.26-2.26,1.35-1.73,1.35-1.73,8.74,1.41,9.37,2.25,3.48,5.72,3.88,8.42-1.17,11-1.17,11,.69,12.22,1,15.29,6,21.51,6.09,22.19-4.89,5.63-13,8.62-18,2.48-19.64.11c-.45-6.42-1.63-19.15-2.52-23.41s-6.8-21.78-7.26-24.45-3.43-6-1.13-7.59S273.42,255.07,273.42,255.07Z"/><path class="cls-83" d="M250.84,269.87s-.64,2.81,2,6,4.24,5.39,5.38,5.39,11-4.76,11.53-5.53,2.44-9.86-1.16-14.08-5.66-.43-9,2.27A91.33,91.33,0,0,1,250.84,269.87Z"/><polygon class="cls-49" points="243.89 148.85 191.93 189.94 187.8 187.68 187.8 133.2 247.16 98.89 251.29 101.16 243.89 148.85"/><polygon class="cls-84" points="251.29 155.64 191.93 189.94 191.93 135.46 251.29 101.16 251.29 155.64"/><polygon class="cls-85" points="193.66 137.36 249.23 105.25 249.23 152.83 193.66 184.94 193.66 137.36"/><polygon class="cls-86" points="247.74 106.11 247.74 151.95 193.66 183.19 193.66 184.94 249.23 152.83 249.23 105.25 247.74 106.11"/><polygon class="cls-86" points="187.8 133.2 191.93 135.46 251.29 101.16 247.16 98.89 187.8 133.2"/></g></g></svg>