<svg xmlns="http://www.w3.org/2000/svg" xmlns:xlink="http://www.w3.org/1999/xlink" viewBox="0 0 400 400"><defs><style>.cls-1{isolation:isolate;}.cls-2{fill:#d3ca53;}.cls-3{fill:#c6b044;}.cls-4{fill:#3d887c;}.cls-5{fill:#2a685c;}.cls-6{fill:#929799;}.cls-7{fill:#b7bfc4;}.cls-8{fill:#093759;}.cls-9{fill:#0b5191;}.cls-10{fill:#4b4b4b;}.cls-11{fill:#f4f4f4;}.cls-12{fill:#efe47b;}.cls-13{fill:#e3e3e3;}.cls-14{fill:#58606b;}.cls-15{fill:#cfd7e5;}.cls-16{fill:#b1b8c4;}.cls-17{fill:#9098a5;}.cls-18{fill:#dae2ea;}.cls-133,.cls-19{mix-blend-mode:multiply;}.cls-20{fill:url(#Áåçûìÿííûé_ãðàäèåíò_6);}.cls-21{fill:url(#Áåçûìÿííûé_ãðàäèåíò_6-2);}.cls-22{fill:url(#Áåçûìÿííûé_ãðàäèåíò_6-3);}.cls-23{fill:url(#Áåçûìÿííûé_ãðàäèåíò_6-4);}.cls-24{fill:url(#Áåçûìÿííûé_ãðàäèåíò_6-5);}.cls-25{fill:url(#Áåçûìÿííûé_ãðàäèåíò_6-6);}.cls-26{fill:url(#Áåçûìÿííûé_ãðàäèåíò_6-7);}.cls-27{fill:url(#Áåçûìÿííûé_ãðàäèåíò_6-8);}.cls-28{fill:url(#Áåçûìÿííûé_ãðàäèåíò_6-9);}.cls-29{fill:url(#Áåçûìÿííûé_ãðàäèåíò_6-10);}.cls-30{fill:url(#Áåçûìÿííûé_ãðàäèåíò_6-11);}.cls-31{fill:url(#Áåçûìÿííûé_ãðàäèåíò_6-12);}.cls-32{fill:url(#Áåçûìÿííûé_ãðàäèåíò_6-13);}.cls-33{fill:url(#Áåçûìÿííûé_ãðàäèåíò_6-14);}.cls-34{fill:url(#Áåçûìÿííûé_ãðàäèåíò_6-15);}.cls-35{fill:url(#Áåçûìÿííûé_ãðàäèåíò_6-16);}.cls-36{fill:url(#Áåçûìÿííûé_ãðàäèåíò_6-17);}.cls-37{fill:url(#Áåçûìÿííûé_ãðàäèåíò_6-18);}.cls-38{fill:url(#Áåçûìÿííûé_ãðàäèåíò_6-19);}.cls-39{fill:url(#Áåçûìÿííûé_ãðàäèåíò_6-20);}.cls-40{fill:url(#Áåçûìÿííûé_ãðàäèåíò_6-21);}.cls-41{fill:url(#Áåçûìÿííûé_ãðàäèåíò_6-22);}.cls-42{fill:url(#Áåçûìÿííûé_ãðàäèåíò_6-23);}.cls-43{fill:url(#Áåçûìÿííûé_ãðàäèåíò_6-24);}.cls-44{fill:url(#Áåçûìÿííûé_ãðàäèåíò_6-25);}.cls-45{fill:url(#Áåçûìÿííûé_ãðàäèåíò_6-26);}.cls-46{fill:url(#Áåçûìÿííûé_ãðàäèåíò_6-27);}.cls-47{fill:url(#Áåçûìÿííûé_ãðàäèåíò_6-28);}.cls-48{fill:url(#Áåçûìÿííûé_ãðàäèåíò_6-29);}.cls-49{fill:url(#Áåçûìÿííûé_ãðàäèåíò_6-30);}.cls-50{fill:url(#Áåçûìÿííûé_ãðàäèåíò_6-31);}.cls-51{fill:url(#Áåçûìÿííûé_ãðàäèåíò_6-32);}.cls-52{fill:url(#Áåçûìÿííûé_ãðàäèåíò_6-33);}.cls-53{fill:url(#Áåçûìÿííûé_ãðàäèåíò_6-34);}.cls-54{fill:url(#Áåçûìÿííûé_ãðàäèåíò_6-35);}.cls-55{fill:url(#Áåçûìÿííûé_ãðàäèåíò_6-36);}.cls-56{fill:url(#Áåçûìÿííûé_ãðàäèåíò_6-37);}.cls-57{fill:url(#Áåçûìÿííûé_ãðàäèåíò_6-38);}.cls-58{fill:url(#Áåçûìÿííûé_ãðàäèåíò_6-39);}.cls-59{fill:url(#Áåçûìÿííûé_ãðàäèåíò_6-40);}.cls-60{fill:url(#Áåçûìÿííûé_ãðàäèåíò_6-41);}.cls-61{fill:url(#Áåçûìÿííûé_ãðàäèåíò_6-42);}.cls-62{fill:url(#Áåçûìÿííûé_ãðàäèåíò_6-43);}.cls-63{fill:url(#Áåçûìÿííûé_ãðàäèåíò_6-44);}.cls-64{fill:url(#Áåçûìÿííûé_ãðàäèåíò_6-45);}.cls-65{fill:url(#Áåçûìÿííûé_ãðàäèåíò_6-46);}.cls-66{fill:url(#Áåçûìÿííûé_ãðàäèåíò_6-47);}.cls-67{fill:url(#Áåçûìÿííûé_ãðàäèåíò_6-48);}.cls-68{fill:url(#Áåçûìÿííûé_ãðàäèåíò_6-49);}.cls-69{fill:url(#Áåçûìÿííûé_ãðàäèåíò_6-50);}.cls-70{fill:url(#Áåçûìÿííûé_ãðàäèåíò_6-51);}.cls-71{fill:url(#Áåçûìÿííûé_ãðàäèåíò_6-52);}.cls-72{fill:url(#Áåçûìÿííûé_ãðàäèåíò_6-53);}.cls-73{fill:url(#Áåçûìÿííûé_ãðàäèåíò_6-54);}.cls-74{fill:url(#Áåçûìÿííûé_ãðàäèåíò_6-55);}.cls-75{fill:url(#Áåçûìÿííûé_ãðàäèåíò_6-56);}.cls-76{fill:url(#Áåçûìÿííûé_ãðàäèåíò_6-57);}.cls-77{fill:url(#Áåçûìÿííûé_ãðàäèåíò_6-58);}.cls-78{fill:url(#Áåçûìÿííûé_ãðàäèåíò_6-59);}.cls-79{fill:url(#Áåçûìÿííûé_ãðàäèåíò_6-60);}.cls-80{fill:url(#Áåçûìÿííûé_ãðàäèåíò_6-61);}.cls-81{fill:url(#Áåçûìÿííûé_ãðàäèåíò_6-62);}.cls-82{fill:url(#Áåçûìÿííûé_ãðàäèåíò_6-63);}.cls-83{fill:url(#Áåçûìÿííûé_ãðàäèåíò_6-64);}.cls-84{fill:url(#Áåçûìÿííûé_ãðàäèåíò_6-65);}.cls-85{fill:url(#Áåçûìÿííûé_ãðàäèåíò_6-66);}.cls-86{fill:url(#Áåçûìÿííûé_ãðàäèåíò_6-67);}.cls-87{fill:url(#Áåçûìÿííûé_ãðàäèåíò_6-68);}.cls-88{fill:url(#Áåçûìÿííûé_ãðàäèåíò_6-69);}.cls-89{fill:url(#Áåçûìÿííûé_ãðàäèåíò_6-70);}.cls-90{fill:url(#Áåçûìÿííûé_ãðàäèåíò_6-71);}.cls-91{fill:url(#Áåçûìÿííûé_ãðàäèåíò_6-72);}.cls-92{fill:url(#Áåçûìÿííûé_ãðàäèåíò_6-73);}.cls-93{fill:url(#Áåçûìÿííûé_ãðàäèåíò_6-74);}.cls-94{fill:url(#Áåçûìÿííûé_ãðàäèåíò_6-75);}.cls-95{fill:url(#Áåçûìÿííûé_ãðàäèåíò_6-76);}.cls-96{fill:url(#Áåçûìÿííûé_ãðàäèåíò_6-77);}.cls-97{fill:url(#Áåçûìÿííûé_ãðàäèåíò_6-78);}.cls-98{fill:url(#Áåçûìÿííûé_ãðàäèåíò_6-79);}.cls-99{fill:url(#Áåçûìÿííûé_ãðàäèåíò_6-80);}.cls-100{fill:url(#Áåçûìÿííûé_ãðàäèåíò_6-81);}.cls-101{fill:url(#Áåçûìÿííûé_ãðàäèåíò_6-82);}.cls-102{fill:url(#Áåçûìÿííûé_ãðàäèåíò_6-83);}.cls-103{fill:url(#Áåçûìÿííûé_ãðàäèåíò_6-84);}.cls-104{fill:url(#Áåçûìÿííûé_ãðàäèåíò_6-85);}.cls-105{fill:url(#Áåçûìÿííûé_ãðàäèåíò_6-86);}.cls-106{fill:url(#Áåçûìÿííûé_ãðàäèåíò_6-87);}.cls-107{fill:url(#Áåçûìÿííûé_ãðàäèåíò_6-88);}.cls-108{fill:url(#Áåçûìÿííûé_ãðàäèåíò_6-89);}.cls-109{fill:url(#Áåçûìÿííûé_ãðàäèåíò_6-90);}.cls-110{fill:url(#Áåçûìÿííûé_ãðàäèåíò_6-91);}.cls-111{fill:url(#Áåçûìÿííûé_ãðàäèåíò_6-92);}.cls-112{fill:url(#Áåçûìÿííûé_ãðàäèåíò_6-93);}.cls-113{fill:url(#Áåçûìÿííûé_ãðàäèåíò_6-94);}.cls-114{fill:url(#Áåçûìÿííûé_ãðàäèåíò_6-95);}.cls-115{fill:url(#Áåçûìÿííûé_ãðàäèåíò_6-96);}.cls-116{fill:url(#Áåçûìÿííûé_ãðàäèåíò_6-97);}.cls-117{fill:url(#Áåçûìÿííûé_ãðàäèåíò_6-98);}.cls-118{fill:url(#Áåçûìÿííûé_ãðàäèåíò_6-99);}.cls-119{fill:url(#Áåçûìÿííûé_ãðàäèåíò_6-100);}.cls-120{fill:url(#Áåçûìÿííûé_ãðàäèåíò_6-101);}.cls-121{fill:url(#Áåçûìÿííûé_ãðàäèåíò_6-102);}.cls-122{fill:url(#Áåçûìÿííûé_ãðàäèåíò_6-103);}.cls-123{fill:url(#Áåçûìÿííûé_ãðàäèåíò_6-104);}.cls-124{fill:url(#Áåçûìÿííûé_ãðàäèåíò_6-105);}.cls-125{fill:url(#Áåçûìÿííûé_ãðàäèåíò_6-106);}.cls-126{fill:#cfa261;}.cls-127{fill:#f8d082;}.cls-128{fill:#e3473b;}.cls-129{fill:#ffe6b8;}.cls-130{fill:#875d46;}.cls-131{fill:#3a3223;}.cls-131,.cls-173{opacity:0.2;}.cls-132{fill:#9f6b43;}.cls-133{opacity:0.4;}.cls-134{fill:url(#Áåçûìÿííûé_ãðàäèåíò_5);}.cls-135{fill:url(#Áåçûìÿííûé_ãðàäèåíò_5-2);}.cls-136{fill:url(#Áåçûìÿííûé_ãðàäèåíò_5-3);}.cls-137{fill:url(#Áåçûìÿííûé_ãðàäèåíò_5-4);}.cls-138{fill:url(#Áåçûìÿííûé_ãðàäèåíò_5-5);}.cls-139{fill:url(#Áåçûìÿííûé_ãðàäèåíò_5-6);}.cls-140{fill:url(#Áåçûìÿííûé_ãðàäèåíò_5-7);}.cls-141{fill:url(#Áåçûìÿííûé_ãðàäèåíò_5-8);}.cls-142{fill:url(#Áåçûìÿííûé_ãðàäèåíò_5-9);}.cls-143{fill:url(#Áåçûìÿííûé_ãðàäèåíò_5-10);}.cls-144{fill:url(#Áåçûìÿííûé_ãðàäèåíò_5-11);}.cls-145{fill:url(#Áåçûìÿííûé_ãðàäèåíò_5-12);}.cls-146{fill:url(#Áåçûìÿííûé_ãðàäèåíò_5-13);}.cls-147{fill:url(#Áåçûìÿííûé_ãðàäèåíò_5-14);}.cls-148{fill:url(#Áåçûìÿííûé_ãðàäèåíò_5-15);}.cls-149{fill:url(#Áåçûìÿííûé_ãðàäèåíò_5-16);}.cls-150{fill:url(#Áåçûìÿííûé_ãðàäèåíò_5-17);}.cls-151{fill:url(#Áåçûìÿííûé_ãðàäèåíò_5-18);}.cls-152{fill:url(#Áåçûìÿííûé_ãðàäèåíò_5-19);}.cls-153{fill:url(#Áåçûìÿííûé_ãðàäèåíò_5-20);}.cls-154{fill:url(#Áåçûìÿííûé_ãðàäèåíò_5-21);}.cls-155{fill:url(#Áåçûìÿííûé_ãðàäèåíò_5-22);}.cls-156{fill:url(#Áåçûìÿííûé_ãðàäèåíò_5-23);}.cls-157{fill:url(#Áåçûìÿííûé_ãðàäèåíò_5-24);}.cls-158{fill:url(#Áåçûìÿííûé_ãðàäèåíò_5-25);}.cls-159{fill:url(#Áåçûìÿííûé_ãðàäèåíò_5-26);}.cls-160{fill:url(#Áåçûìÿííûé_ãðàäèåíò_5-27);}.cls-161{fill:url(#Áåçûìÿííûé_ãðàäèåíò_5-28);}.cls-162{fill:url(#Áåçûìÿííûé_ãðàäèåíò_5-29);}.cls-163{fill:url(#Áåçûìÿííûé_ãðàäèåíò_5-30);}.cls-164{fill:url(#Áåçûìÿííûé_ãðàäèåíò_5-31);}.cls-165{fill:url(#Áåçûìÿííûé_ãðàäèåíò_5-32);}.cls-166{fill:url(#Áåçûìÿííûé_ãðàäèåíò_5-33);}.cls-167{fill:url(#Áåçûìÿííûé_ãðàäèåíò_5-34);}.cls-168{fill:url(#Áåçûìÿííûé_ãðàäèåíò_5-35);}.cls-169{fill:url(#Áåçûìÿííûé_ãðàäèåíò_5-36);}.cls-170{fill:url(#Áåçûìÿííûé_ãðàäèåíò_5-37);}.cls-171{fill:url(#Áåçûìÿííûé_ãðàäèåíò_5-38);}.cls-172{fill:url(#Áåçûìÿííûé_ãðàäèåíò_5-39);}.cls-173{fill:url(#Áåçûìÿííûé_ãðàäèåíò_5-40);}.cls-174{fill:url(#Áåçûìÿííûé_ãðàäèåíò_5-41);}.cls-175{fill:url(#Áåçûìÿííûé_ãðàäèåíò_5-42);}.cls-176{fill:#e5dcbe;}.cls-177{fill:#c4b99b;}.cls-178{fill:#fff8dc;}.cls-179{fill:#352317;}.cls-180{fill:#d3a484;}.cls-181{fill:#9b6d49;}.cls-182{fill:#724e36;}.cls-183{fill:#604d3f;}.cls-184{fill:#aa8857;}.cls-185{fill:#aa4b57;}.cls-186{fill:#342f33;}.cls-187{fill:#e4b971;}.cls-188{fill:#e96774;}</style><linearGradient id="Áåçûìÿííûé_ãðàäèåíò_6" x1="148.45" y1="31.07" x2="150.71" y2="81.52" gradientTransform="translate(-49.36 178.81) rotate(-34.81)" gradientUnits="userSpaceOnUse"><stop offset="0" stop-color="#d0dada"/><stop offset="1" stop-color="#6bbec3"/></linearGradient><linearGradient id="Áåçûìÿííûé_ãðàäèåíò_6-2" x1="146.85" y1="31.14" x2="149.11" y2="81.6" xlink:href="#Áåçûìÿííûé_ãðàäèåíò_6"/><linearGradient id="Áåçûìÿííûé_ãðàäèåíò_6-3" x1="151.4" y1="30.95" x2="153.66" y2="81.39" gradientTransform="translate(-27.78 75.58)" xlink:href="#Áåçûìÿííûé_ãðàäèåíò_6"/><linearGradient id="Áåçûìÿííûé_ãðàäèåíò_6-4" x1="146.63" y1="31.16" x2="148.89" y2="81.6" gradientTransform="translate(-26.92 78.31)" xlink:href="#Áåçûìÿííûé_ãðàäèåíò_6"/><linearGradient id="Áåçûìÿííûé_ãðàäèåíò_6-5" x1="151.63" y1="30.94" x2="153.88" y2="81.38" gradientTransform="translate(-30.62 76.46) rotate(0.01)" xlink:href="#Áåçûìÿííûé_ãðàäèåíò_6"/><linearGradient id="Áåçûìÿííûé_ãðàäèåíò_6-6" x1="144.65" y1="31.25" x2="146.91" y2="81.69" gradientTransform="translate(-29.38 80.47)" xlink:href="#Áåçûìÿííûé_ãðàäèåíò_6"/><linearGradient id="Áåçûìÿííûé_ãðàäèåíò_6-7" x1="136.48" y1="31.61" x2="138.74" y2="82.06" gradientTransform="translate(-27.91 85.13) rotate(0.01)" xlink:href="#Áåçûìÿííûé_ãðàäèåíò_6"/><linearGradient id="Áåçûìÿííûé_ãðàäèåíò_6-8" x1="137.71" y1="31.55" x2="139.97" y2="82" gradientTransform="translate(-28.13 84.41) rotate(0.01)" xlink:href="#Áåçûìÿííûé_ãðàäèåíò_6"/><linearGradient id="Áåçûìÿííûé_ãðàäèåíò_6-9" x1="151.84" y1="30.93" x2="154.1" y2="81.37" gradientTransform="matrix(1, 0, 0, 1, -33.41, 77.34)" xlink:href="#Áåçûìÿííûé_ãðàäèåíò_6"/><linearGradient id="Áåçûìÿííûé_ãðàäèåíò_6-10" x1="147.07" y1="31.14" x2="149.33" y2="81.58" gradientTransform="matrix(1, 0, 0, 1, -32.55, 80.07)" xlink:href="#Áåçûìÿííûé_ãðàäèåíò_6"/><linearGradient id="Áåçûìÿííûé_ãðàäèåíò_6-11" x1="152.07" y1="30.92" x2="154.32" y2="81.36" gradientTransform="translate(-36.27 78.24)" xlink:href="#Áåçûìÿííûé_ãðàäèåíò_6"/><linearGradient id="Áåçûìÿííûé_ãðàäèåíò_6-12" x1="145.09" y1="31.23" x2="147.35" y2="81.67" gradientTransform="translate(-35.02 82.23)" xlink:href="#Áåçûìÿííûé_ãðàäèåíò_6"/><linearGradient id="Áåçûìÿííûé_ãðàäèåíò_6-13" x1="138.15" y1="31.53" x2="140.41" y2="81.98" gradientTransform="translate(-33.78 86.2)" xlink:href="#Áåçûìÿííûé_ãðàäèåíò_6"/><linearGradient id="Áåçûìÿííûé_ãðàäèåíò_6-14" x1="136.93" y1="31.59" x2="139.18" y2="82.04" gradientTransform="translate(-33.55 86.89) rotate(0.01)" xlink:href="#Áåçûìÿííûé_ãðàäèåíò_6"/><linearGradient id="Áåçûìÿííûé_ãðàäèåíò_6-15" x1="152.33" y1="30.9" x2="154.59" y2="81.34" gradientTransform="translate(-39.71 79.31) rotate(0.01)" xlink:href="#Áåçûìÿííûé_ãðàäèåíò_6"/><linearGradient id="Áåçûìÿííûé_ãðàäèåíò_6-16" x1="147.56" y1="31.11" x2="149.82" y2="81.56" gradientTransform="translate(-38.86 82.05)" xlink:href="#Áåçûìÿííûé_ãðàäèåíò_6"/><linearGradient id="Áåçûìÿííûé_ãðàäèåíò_6-17" x1="152.53" y1="30.91" x2="154.79" y2="81.32" gradientTransform="matrix(1, 0, 0, 1, -42.2, 80.13)" xlink:href="#Áåçûìÿííûé_ãðàäèåíò_6"/><linearGradient id="Áåçûìÿííûé_ãðàäèåíò_6-18" x1="137.39" y1="31.57" x2="139.65" y2="82.01" gradientTransform="translate(-39.48 88.76)" xlink:href="#Áåçûìÿííûé_ãðàäèåíò_6"/><linearGradient id="Áåçûìÿííûé_ãðàäèåíò_6-19" x1="151.55" y1="30.94" x2="153.81" y2="81.37" gradientTransform="translate(-45.13 81.77) rotate(0.01)" xlink:href="#Áåçûìÿííûé_ãðàäèåíò_6"/><linearGradient id="Áåçûìÿííûé_ãðàäèåíò_6-20" x1="147" y1="31.15" x2="149.26" y2="81.56" gradientTransform="matrix(1, 0, 0, 1, -47.14, 85.42)" xlink:href="#Áåçûìÿííûé_ãðàäèåíò_6"/><linearGradient id="Áåçûìÿííûé_ãðàäèåíò_6-21" x1="152" y1="30.91" x2="154.25" y2="81.35" gradientTransform="translate(-50.82 83.57)" xlink:href="#Áåçûìÿííûé_ãðàäèåíò_6"/><linearGradient id="Áåçûìÿííûé_ãðàäèåíò_6-22" x1="147.44" y1="31.12" x2="149.7" y2="81.54" gradientTransform="matrix(1, 0, 0, 1, -52.83, 87.2)" xlink:href="#Áåçûìÿííûé_ãðàäèåíò_6"/><linearGradient id="Áåçûìÿííûé_ãðàäèåíò_6-23" x1="152.44" y1="30.89" x2="154.69" y2="81.32" gradientTransform="translate(-56.46 85.34)" xlink:href="#Áåçûìÿííûé_ãðàäèåíò_6"/><linearGradient id="Áåçûìÿííûé_ãðàäèåíò_6-24" x1="147.89" y1="31.09" x2="150.14" y2="81.51" gradientTransform="matrix(1, 0, 0, 1, -58.46, 88.95)" xlink:href="#Áåçûìÿííûé_ãðàäèåíò_6"/><linearGradient id="Áåçûìÿííûé_ãðàäèåíò_6-25" x1="89.2" y1="125.64" x2="91.4" y2="174.86" gradientTransform="translate(41.88 -19.89) rotate(16.17)" xlink:href="#Áåçûìÿííûé_ãðàäèåíò_6"/><linearGradient id="Áåçûìÿííûé_ãðàäèåíò_6-26" x1="152.85" y1="30.87" x2="155.11" y2="81.33" xlink:href="#Áåçûìÿííûé_ãðàäèåíò_6"/><linearGradient id="Áåçûìÿííûé_ãðàäèåíò_6-27" x1="132.55" y1="31.78" x2="134.81" y2="82.24" xlink:href="#Áåçûìÿííûé_ãðàäèåíò_6"/><linearGradient id="Áåçûìÿííûé_ãðàäèåíò_6-28" x1="137.46" y1="31.56" x2="139.71" y2="82.02" gradientTransform="translate(-24.83 83.39) rotate(0.01)" xlink:href="#Áåçûìÿííûé_ãðàäèåíò_6"/><linearGradient id="Áåçûìÿííûé_ãðàäèåíò_6-29" x1="137.93" y1="31.54" x2="140.19" y2="81.99" gradientTransform="translate(-30.95 85.31) rotate(0.01)" xlink:href="#Áåçûìÿííûé_ãðàäèåíò_6"/><linearGradient id="Áåçûìÿííûé_ãðàäèåíò_6-30" x1="138.62" y1="31.52" x2="140.88" y2="81.96" gradientTransform="matrix(1, 0, 0, 1, -39.7, 88.07)" xlink:href="#Áåçûìÿííûé_ãðàäèåíò_6"/><linearGradient id="Áåçûìÿííûé_ãðàäèåíò_6-31" x1="138.4" y1="31.52" x2="140.66" y2="81.97" gradientTransform="translate(-36.93 87.18) rotate(0.01)" xlink:href="#Áåçûìÿííûé_ãðàäèåíò_6"/><linearGradient id="Áåçûìÿííûé_ãðàäèåíò_6-32" x1="145.56" y1="31.22" x2="147.81" y2="81.64" gradientTransform="translate(-40.94 84.09)" xlink:href="#Áåçûìÿííûé_ãðàäèåíò_6"/><linearGradient id="Áåçûìÿííûé_ãðàäèåíò_6-33" x1="154.08" y1="30.83" x2="156.33" y2="81.27" xlink:href="#Áåçûìÿííûé_ãðàäèåíò_6"/><linearGradient id="Áåçûìÿííûé_ãðàäèåíò_6-34" x1="139.76" y1="31.53" x2="142.01" y2="81.95" xlink:href="#Áåçûìÿííûé_ãðàäèåíò_6"/><linearGradient id="Áåçûìÿííûé_ãðàäèåíò_6-35" x1="146.55" y1="31.17" x2="148.81" y2="81.6" xlink:href="#Áåçûìÿííûé_ãðàäèåíò_6"/><linearGradient id="Áåçûìÿííûé_ãðàäèåíò_6-36" x1="146.57" y1="31.18" x2="148.83" y2="81.59" xlink:href="#Áåçûìÿííûé_ãðàäèåíò_6"/><linearGradient id="Áåçûìÿííûé_ãðàäèåíò_6-37" x1="143" y1="31.31" x2="145.26" y2="81.77" gradientTransform="translate(-8.28 73.84) rotate(0.01)" xlink:href="#Áåçûìÿííûé_ãðàäèåíò_6"/><linearGradient id="Áåçûìÿííûé_ãðàäèåíò_6-38" x1="144.09" y1="31.27" x2="146.34" y2="81.72" gradientTransform="translate(-22.13 78.18) rotate(0.01)" xlink:href="#Áåçûìÿííûé_ãðàäèåíò_6"/><linearGradient id="Áåçûìÿííûé_ãðàäèåíò_6-39" x1="144.39" y1="31.25" x2="146.65" y2="81.71" xlink:href="#Áåçûìÿííûé_ãðàäèåíò_6"/><linearGradient id="Áåçûìÿííûé_ãðàäèåíò_6-40" x1="144.87" y1="31.23" x2="147.13" y2="81.68" xlink:href="#Áåçûìÿííûé_ãðàäèåíò_6"/><linearGradient id="Áåçûìÿííûé_ãðàäèåíò_6-41" x1="145.34" y1="31.21" x2="147.6" y2="81.66" xlink:href="#Áåçûìÿííûé_ãðàäèåíò_6"/><linearGradient id="Áåçûìÿííûé_ãðàäèåíò_6-42" x1="138.24" y1="31.53" x2="140.5" y2="81.98" gradientTransform="matrix(1, 0, 0, 1, -7.43, 76.57)" xlink:href="#Áåçûìÿííûé_ãðàäèåíò_6"/><linearGradient id="Áåçûìÿííûé_ãðàäèåíò_6-43" x1="139.32" y1="31.48" x2="141.58" y2="81.93" gradientTransform="translate(-21.27 80.91) rotate(0.01)" xlink:href="#Áåçûìÿííûé_ãðàäèåíò_6"/><linearGradient id="Áåçûìÿííûé_ãðàäèåíò_6-44" x1="139.63" y1="31.47" x2="141.88" y2="81.92" gradientTransform="matrix(1, 0, 0, 1, -25.22, 82.15)" xlink:href="#Áåçûìÿííûé_ãðàäèåíò_6"/><linearGradient id="Áåçûìÿííûé_ãðàäèåíò_6-45" x1="139.88" y1="31.46" x2="142.14" y2="81.91" gradientTransform="translate(-28.52 83.18) rotate(0.01)" xlink:href="#Áåçûìÿííûé_ãðàäèåíò_6"/><linearGradient id="Áåçûìÿííûé_ãðàäèåíò_6-46" x1="140.1" y1="31.45" x2="142.36" y2="81.9" gradientTransform="translate(-31.34 84.07) rotate(0.01)" xlink:href="#Áåçûìÿííûé_ãðàäèåíò_6"/><linearGradient id="Áåçûìÿííûé_ãðàäèåíò_6-47" x1="140.32" y1="31.44" x2="142.58" y2="81.89" gradientTransform="translate(-34.16 84.95) rotate(0.01)" xlink:href="#Áåçûìÿííûé_ãðàäèåíò_6"/><linearGradient id="Áåçûìÿííûé_ãðàäèåíò_6-48" x1="140.57" y1="31.42" x2="142.83" y2="81.88" gradientTransform="translate(-37.31 85.94) rotate(0.01)" xlink:href="#Áåçûìÿííûé_ãðàäèåíò_6"/><linearGradient id="Áåçûìÿííûé_ãðàäèåíò_6-49" x1="140.79" y1="31.42" x2="143.05" y2="81.86" gradientTransform="matrix(1, 0, 0, 1, -40.09, 86.82)" xlink:href="#Áåçûìÿííûé_ãðàäèåíò_6"/><linearGradient id="Áåçûìÿííûé_ãðàäèåíò_6-50" x1="136.07" y1="31.62" x2="138.32" y2="82.08" gradientTransform="translate(-7.04 77.81) rotate(0.01)" xlink:href="#Áåçûìÿííûé_ãðàäèåíò_6"/><linearGradient id="Áåçûìÿííûé_ãðàäèåíò_6-51" x1="137.15" y1="31.58" x2="139.41" y2="82.03" gradientTransform="translate(-20.88 82.15) rotate(0.01)" xlink:href="#Áåçûìÿííûé_ãðàäèåíò_6"/><linearGradient id="Áåçûìÿííûé_ãðàäèåíò_6-52" x1="129.76" y1="31.93" x2="132.02" y2="82.37" xlink:href="#Áåçûìÿííûé_ãðàäèåíò_6"/><linearGradient id="Áåçûìÿííûé_ãðàäèåíò_6-53" x1="130.2" y1="31.89" x2="132.46" y2="82.34" gradientTransform="matrix(1, 0, 0, 1, -39.38, 93.3)" xlink:href="#Áåçûìÿííûé_ãðàäèåíò_6"/><linearGradient id="Áåçûìÿííûé_ãðàäèåíò_6-54" x1="127.53" y1="46.34" x2="129.79" y2="96.79" gradientTransform="matrix(-0.63, -0.78, -0.78, 0.63, 423.97, 215.62)" xlink:href="#Áåçûìÿííûé_ãðàäèåíò_6"/><linearGradient id="Áåçûìÿííûé_ãðàäèåíò_6-55" x1="125.93" y1="46.41" x2="128.19" y2="96.87" gradientTransform="matrix(-0.63, -0.78, -0.78, 0.63, 423.97, 215.62)" xlink:href="#Áåçûìÿííûé_ãðàäèåíò_6"/><linearGradient id="Áåçûìÿííûé_ãðàäèåíò_6-56" x1="130.47" y1="46.21" x2="132.73" y2="96.66" gradientTransform="matrix(0, -1, -1, 0, 362.87, 309.06)" xlink:href="#Áåçûìÿííûé_ãðàäèåíò_6"/><linearGradient id="Áåçûìÿííûé_ãðàäèåíò_6-57" x1="125.7" y1="46.42" x2="127.96" y2="96.87" gradientTransform="matrix(0, -1, -1, 0, 365.88, 307.99)" xlink:href="#Áåçûìÿííûé_ãðàäèåíò_6"/><linearGradient id="Áåçûìÿííûé_ãðàäèåíò_6-58" x1="130.7" y1="46.2" x2="132.96" y2="96.65" gradientTransform="matrix(0, -1, -1, 0, 361.77, 305.9)" xlink:href="#Áåçûìÿííûé_ãðàäèåíò_6"/><linearGradient id="Áåçûìÿííûé_ãðàäèåíò_6-59" x1="123.73" y1="46.52" x2="125.98" y2="96.96" gradientTransform="matrix(0, -1, -1, 0, 366.16, 304.35)" xlink:href="#Áåçûìÿííûé_ãðàäèåíò_6"/><linearGradient id="Áåçûìÿííûé_ãðàäèåíò_6-60" x1="115.56" y1="46.88" x2="117.82" y2="97.33" gradientTransform="matrix(0, -1, -1, 0, 371.31, 302.52)" xlink:href="#Áåçûìÿííûé_ãðàäèåíò_6"/><linearGradient id="Áåçûìÿííûé_ãðàäèåíò_6-61" x1="116.79" y1="46.82" x2="119.05" y2="97.28" gradientTransform="matrix(0, -1, -1, 0, 370.55, 302.79)" xlink:href="#Áåçûìÿííûé_ãðàäèåíò_6"/><linearGradient id="Áåçûìÿííûé_ãðàäèåíò_6-62" x1="130.92" y1="46.2" x2="133.17" y2="96.64" gradientTransform="matrix(0, -1, -1, 0, 360.68, 302.84)" xlink:href="#Áåçûìÿííûé_ãðàäèåíò_6"/><linearGradient id="Áåçûìÿííûé_ãðàäèåíò_6-63" x1="126.14" y1="46.4" x2="128.4" y2="96.86" gradientTransform="matrix(0, -1, -1, 0, 363.69, 301.76)" xlink:href="#Áåçûìÿííûé_ãðàäèåíò_6"/><linearGradient id="Áåçûìÿííûé_ãðàäèåíò_6-64" x1="131.14" y1="46.19" x2="133.4" y2="96.63" gradientTransform="matrix(0, -1, -1, 0, 359.56, 299.68)" xlink:href="#Áåçûìÿííûé_ãðàäèåíò_6"/><linearGradient id="Áåçûìÿííûé_ãðàäèåíò_6-65" x1="124.17" y1="46.49" x2="126.43" y2="96.94" gradientTransform="matrix(0, -1, -1, 0, 363.96, 298.13)" xlink:href="#Áåçûìÿííûé_ãðàäèåíò_6"/><linearGradient id="Áåçûìÿííûé_ãðàäèåíò_6-66" x1="117.23" y1="46.8" x2="119.49" y2="97.25" gradientTransform="matrix(0, -1, -1, 0, 368.34, 296.57)" xlink:href="#Áåçûìÿííûé_ãðàäèåíò_6"/><linearGradient id="Áåçûìÿííûé_ãðàäèåíò_6-67" x1="116" y1="46.86" x2="118.26" y2="97.31" gradientTransform="matrix(0, -1, -1, 0, 369.12, 296.29)" xlink:href="#Áåçûìÿííûé_ãðàäèåíò_6"/><linearGradient id="Áåçûìÿííûé_ãðàäèåíò_6-68" x1="131.41" y1="46.17" x2="133.67" y2="96.62" gradientTransform="matrix(0, -1, -1, 0, 358.21, 295.89)" xlink:href="#Áåçûìÿííûé_ãðàäèåíò_6"/><linearGradient id="Áåçûìÿííûé_ãðàäèåíò_6-69" x1="126.64" y1="46.38" x2="128.9" y2="96.83" gradientTransform="matrix(0, -1, -1, 0, 361.22, 294.82)" xlink:href="#Áåçûìÿííûé_ãðàäèåíò_6"/><linearGradient id="Áåçûìÿííûé_ãðàäèåíò_6-70" x1="131.6" y1="46.17" x2="133.86" y2="96.6" gradientTransform="matrix(0, -1, -1, 0, 357.2, 293.18)" xlink:href="#Áåçûìÿííûé_ãðàäèåíò_6"/><linearGradient id="Áåçûìÿííûé_ãðàäèåíò_6-71" x1="116.46" y1="46.84" x2="118.72" y2="97.29" gradientTransform="matrix(0, -1, -1, 0, 366.77, 289.79)" xlink:href="#Áåçûìÿííûé_ãðàäèåíò_6"/><linearGradient id="Áåçûìÿííûé_ãðàäèåíò_6-72" x1="130.63" y1="46.2" x2="132.88" y2="96.65" gradientTransform="matrix(0, -1, -1, 0, 356.78, 289.39)" xlink:href="#Áåçûìÿííûé_ãðàäèåíò_6"/><linearGradient id="Áåçûìÿííûé_ãðàäèåíò_6-73" x1="126.07" y1="46.41" x2="128.33" y2="96.85" gradientTransform="matrix(0, -1, -1, 0, 358.67, 285.18)" xlink:href="#Áåçûìÿííûé_ãðàäèåíò_6"/><linearGradient id="Áåçûìÿííûé_ãðàäèåíò_6-74" x1="131.07" y1="46.18" x2="133.33" y2="96.63" gradientTransform="matrix(0, -1, -1, 0, 354.56, 283.12)" xlink:href="#Áåçûìÿííûé_ãðàäèåíò_6"/><linearGradient id="Áåçûìÿííûé_ãðàäèåíò_6-75" x1="126.52" y1="46.39" x2="128.78" y2="96.82" gradientTransform="matrix(0, -1, -1, 0, 356.45, 278.9)" xlink:href="#Áåçûìÿííûé_ãðàäèåíò_6"/><linearGradient id="Áåçûìÿííûé_ãðàäèåíò_6-76" x1="131.51" y1="46.16" x2="133.77" y2="96.6" gradientTransform="matrix(0, -1, -1, 0, 352.36, 276.9)" xlink:href="#Áåçûìÿííûé_ãðàäèåíò_6"/><linearGradient id="Áåçûìÿííûé_ãðàäèåíò_6-77" x1="126.96" y1="46.36" x2="129.22" y2="96.8" gradientTransform="matrix(0, -1, -1, 0, 354.26, 272.68)" xlink:href="#Áåçûìÿííûé_ãðàäèåíò_6"/><linearGradient id="Áåçûìÿííûé_ãðàäèåíò_6-78" x1="123.24" y1="46.53" x2="125.5" y2="96.98" gradientTransform="matrix(-0.63, -0.78, -0.78, 0.63, 423.97, 215.62)" xlink:href="#Áåçûìÿííûé_ãðàäèåíò_6"/><linearGradient id="Áåçûìÿííûé_ãðàäèåíò_6-79" x1="131.92" y1="46.14" x2="134.18" y2="96.6" gradientTransform="matrix(-0.63, -0.78, -0.78, 0.63, 423.97, 215.62)" xlink:href="#Áåçûìÿííûé_ãðàäèåíò_6"/><linearGradient id="Áåçûìÿííûé_ãðàäèåíò_6-80" x1="111.62" y1="47.05" x2="113.88" y2="97.51" gradientTransform="matrix(-0.63, -0.78, -0.78, 0.63, 423.97, 215.62)" xlink:href="#Áåçûìÿííûé_ãðàäèåíò_6"/><linearGradient id="Áåçûìÿííûé_ãðàäèåíò_6-81" x1="116.53" y1="46.83" x2="118.79" y2="97.29" gradientTransform="matrix(0, -1, -1, 0, 371.83, 306.44)" xlink:href="#Áåçûìÿííûé_ãðàäèåíò_6"/><linearGradient id="Áåçûìÿííûé_ãðàäèåíò_6-82" x1="117.01" y1="46.81" x2="119.27" y2="97.27" gradientTransform="matrix(0, -1, -1, 0, 369.44, 299.69)" xlink:href="#Áåçûìÿííûé_ãðàäèåíò_6"/><linearGradient id="Áåçûìÿííûé_ãðàäèåíò_6-83" x1="117.69" y1="46.79" x2="119.95" y2="97.23" gradientTransform="matrix(0, -1, -1, 0, 366.01, 290.05)" xlink:href="#Áåçûìÿííûé_ãðàäèåíò_6"/><linearGradient id="Áåçûìÿííûé_ãðàäèåíò_6-84" x1="117.47" y1="46.79" x2="119.73" y2="97.24" gradientTransform="matrix(0, -1, -1, 0, 367.1, 293.1)" xlink:href="#Áåçûìÿííûé_ãðàäèåíò_6"/><linearGradient id="Áåçûìÿííûé_ãðàäèåíò_6-85" x1="124.63" y1="46.48" x2="126.89" y2="96.91" gradientTransform="matrix(0, -1, -1, 0, 361.64, 291.59)" xlink:href="#Áåçûìÿííûé_ãðàäèåíò_6"/><linearGradient id="Áåçûìÿííûé_ãðàäèåíò_6-86" x1="133.15" y1="46.1" x2="135.41" y2="96.54" gradientTransform="matrix(-0.63, -0.78, -0.78, 0.63, 423.97, 215.62)" xlink:href="#Áåçûìÿííûé_ãðàäèåíò_6"/><linearGradient id="Áåçûìÿííûé_ãðàäèåíò_6-87" x1="118.82" y1="46.77" x2="121.08" y2="97.21" gradientTransform="matrix(-0.63, -0.78, -0.78, 0.63, 423.97, 215.62)" xlink:href="#Áåçûìÿííûé_ãðàäèåíò_6"/><linearGradient id="Áåçûìÿííûé_ãðàäèåíò_6-88" x1="125.63" y1="46.43" x2="127.88" y2="96.87" gradientTransform="matrix(-0.63, -0.78, -0.78, 0.63, 423.97, 215.62)" xlink:href="#Áåçûìÿííûé_ãðàäèåíò_6"/><linearGradient id="Áåçûìÿííûé_ãðàäèåíò_6-89" x1="125.65" y1="46.44" x2="127.91" y2="96.87" gradientTransform="matrix(-0.63, -0.78, -0.78, 0.63, 423.97, 215.62)" xlink:href="#Áåçûìÿííûé_ãðàäèåíò_6"/><linearGradient id="Áåçûìÿííûé_ãðàäèåíò_6-90" x1="122.08" y1="46.58" x2="124.33" y2="97.04" gradientTransform="matrix(0, -1, -1, 0, 374.4, 327.61)" xlink:href="#Áåçûìÿííûé_ãðàäèåíò_6"/><linearGradient id="Áåçûìÿííûé_ãðàäèåíò_6-91" x1="123.16" y1="46.54" x2="125.42" y2="96.99" gradientTransform="matrix(0, -1, -1, 0, 368.99, 312.34)" xlink:href="#Áåçûìÿííûé_ãðàäèåíò_6"/><linearGradient id="Áåçûìÿííûé_ãðàäèåíò_6-92" x1="123.47" y1="46.52" x2="125.73" y2="96.98" gradientTransform="matrix(-0.63, -0.78, -0.78, 0.63, 423.97, 215.62)" xlink:href="#Áåçûìÿííûé_ãðàäèåíò_6"/><linearGradient id="Áåçûìÿííûé_ãðàäèåíò_6-93" x1="123.95" y1="46.5" x2="126.2" y2="96.95" gradientTransform="matrix(-0.63, -0.78, -0.78, 0.63, 423.97, 215.62)" xlink:href="#Áåçûìÿííûé_ãðàäèåíò_6"/><linearGradient id="Áåçûìÿííûé_ãðàäèåíò_6-94" x1="124.41" y1="46.48" x2="126.67" y2="96.93" gradientTransform="matrix(-0.63, -0.78, -0.78, 0.63, 423.97, 215.62)" xlink:href="#Áåçûìÿííûé_ãðàäèåíò_6"/><linearGradient id="Áåçûìÿííûé_ãðàäèåíò_6-95" x1="117.31" y1="46.8" x2="119.57" y2="97.25" gradientTransform="matrix(0, -1, -1, 0, 377.41, 326.54)" xlink:href="#Áåçûìÿííûé_ãðàäèåíò_6"/><linearGradient id="Áåçûìÿííûé_ãðàäèåíò_6-96" x1="118.39" y1="46.75" x2="120.65" y2="97.2" gradientTransform="matrix(0, -1, -1, 0, 372, 311.28)" xlink:href="#Áåçûìÿííûé_ãðàäèåíò_6"/><linearGradient id="Áåçûìÿííûé_ãðàäèåíò_6-97" x1="118.7" y1="46.74" x2="120.96" y2="97.19" gradientTransform="matrix(0, -1, -1, 0, 370.46, 306.92)" xlink:href="#Áåçûìÿííûé_ãðàäèåíò_6"/><linearGradient id="Áåçûìÿííûé_ãðàäèåíò_6-98" x1="118.96" y1="46.73" x2="121.22" y2="97.18" gradientTransform="matrix(0, -1, -1, 0, 369.18, 303.27)" xlink:href="#Áåçûìÿííûé_ãðàäèåíò_6"/><linearGradient id="Áåçûìÿííûé_ãðàäèåíò_6-99" x1="119.18" y1="46.71" x2="121.44" y2="97.17" gradientTransform="matrix(0, -1, -1, 0, 368.07, 300.17)" xlink:href="#Áåçûìÿííûé_ãðàäèåíò_6"/><linearGradient id="Áåçûìÿííûé_ãðàäèåíò_6-100" x1="119.4" y1="46.71" x2="121.66" y2="97.16" gradientTransform="matrix(0, -1, -1, 0, 366.97, 297.06)" xlink:href="#Áåçûìÿííûé_ãðàäèåíò_6"/><linearGradient id="Áåçûìÿííûé_ãðàäèåíò_6-101" x1="119.64" y1="46.69" x2="121.9" y2="97.15" gradientTransform="matrix(0, -1, -1, 0, 365.74, 293.58)" xlink:href="#Áåçûìÿííûé_ãðàäèåíò_6"/><linearGradient id="Áåçûìÿííûé_ãðàäèåíò_6-102" x1="119.86" y1="46.69" x2="122.12" y2="97.13" gradientTransform="matrix(0, -1, -1, 0, 364.62, 290.55)" xlink:href="#Áåçûìÿííûé_ãðàäèåíò_6"/><linearGradient id="Áåçûìÿííûé_ãðàäèåíò_6-103" x1="115.14" y1="46.89" x2="117.4" y2="97.35" gradientTransform="matrix(0, -1, -1, 0, 378.78, 326.06)" xlink:href="#Áåçûìÿííûé_ãðàäèåíò_6"/><linearGradient id="Áåçûìÿííûé_ãðàäèåíò_6-104" x1="116.22" y1="46.85" x2="118.48" y2="97.3" gradientTransform="matrix(0, -1, -1, 0, 373.38, 310.79)" xlink:href="#Áåçûìÿííûé_ãðàäèåíò_6"/><linearGradient id="Áåçûìÿííûé_ãðàäèåíò_6-105" x1="108.83" y1="47.19" x2="111.09" y2="97.63" gradientTransform="matrix(-0.63, -0.78, -0.78, 0.63, 423.97, 215.62)" xlink:href="#Áåçûìÿííûé_ãðàäèåíò_6"/><linearGradient id="Áåçûìÿííûé_ãðàäèåíò_6-106" x1="109.27" y1="47.16" x2="111.53" y2="97.61" gradientTransform="matrix(0, -1, -1, 0, 370.93, 286.81)" xlink:href="#Áåçûìÿííûé_ãðàäèåíò_6"/><linearGradient id="Áåçûìÿííûé_ãðàäèåíò_5" x1="207.83" y1="101.98" x2="196.78" y2="198.18" gradientUnits="userSpaceOnUse"><stop offset="0" stop-color="#f9cfbf"/><stop offset="1" stop-color="#e293d3"/></linearGradient><linearGradient id="Áåçûìÿííûé_ãðàäèåíò_5-2" x1="104.27" y1="90.09" x2="93.22" y2="186.29" xlink:href="#Áåçûìÿííûé_ãðàäèåíò_5"/><linearGradient id="Áåçûìÿííûé_ãðàäèåíò_5-3" x1="205.27" y1="101.69" x2="194.22" y2="197.89" xlink:href="#Áåçûìÿííûé_ãðàäèåíò_5"/><linearGradient id="Áåçûìÿííûé_ãðàäèåíò_5-4" x1="204.17" y1="101.56" x2="193.12" y2="197.76" xlink:href="#Áåçûìÿííûé_ãðàäèåíò_5"/><linearGradient id="Áåçûìÿííûé_ãðàäèåíò_5-5" x1="205.51" y1="101.72" x2="194.46" y2="197.92" xlink:href="#Áåçûìÿííûé_ãðàäèåíò_5"/><linearGradient id="Áåçûìÿííûé_ãðàäèåíò_5-6" x1="279.1" y1="110.17" x2="268.05" y2="206.37" xlink:href="#Áåçûìÿííûé_ãðàäèåíò_5"/><linearGradient id="Áåçûìÿííûé_ãðàäèåíò_5-7" x1="129.12" y1="92.94" x2="118.07" y2="189.14" xlink:href="#Áåçûìÿííûé_ãðàäèåíò_5"/><linearGradient id="Áåçûìÿííûé_ãðàäèåíò_5-8" x1="137.69" y1="93.93" x2="126.64" y2="190.13" xlink:href="#Áåçûìÿííûé_ãðàäèåíò_5"/><linearGradient id="Áåçûìÿííûé_ãðàäèåíò_5-9" x1="150.16" y1="95.36" x2="139.11" y2="191.56" xlink:href="#Áåçûìÿííûé_ãðàäèåíò_5"/><linearGradient id="Áåçûìÿííûé_ãðàäèåíò_5-10" x1="157.42" y1="96.19" x2="146.37" y2="192.39" xlink:href="#Áåçûìÿííûé_ãðàäèåíò_5"/><linearGradient id="Áåçûìÿííûé_ãðàäèåíò_5-11" x1="163.03" y1="96.84" x2="151.98" y2="193.04" xlink:href="#Áåçûìÿííûé_ãðàäèåíò_5"/><linearGradient id="Áåçûìÿííûé_ãðàäèåíò_5-12" x1="169.07" y1="97.53" x2="158.02" y2="193.73" xlink:href="#Áåçûìÿííûé_ãðàäèåíò_5"/><linearGradient id="Áåçûìÿííûé_ãðàäèåíò_5-13" x1="180.8" y1="98.88" x2="169.75" y2="195.08" xlink:href="#Áåçûìÿííûé_ãðàäèåíò_5"/><linearGradient id="Áåçûìÿííûé_ãðàäèåíò_5-14" x1="188.06" y1="99.71" x2="177.01" y2="195.91" xlink:href="#Áåçûìÿííûé_ãðàäèåíò_5"/><linearGradient id="Áåçûìÿííûé_ãðàäèåíò_5-15" x1="194.31" y1="100.43" x2="183.26" y2="196.63" xlink:href="#Áåçûìÿííûé_ãðàäèåíò_5"/><linearGradient id="Áåçûìÿííûé_ãðàäèåíò_5-16" x1="206.09" y1="101.79" x2="195.04" y2="197.99" xlink:href="#Áåçûìÿííûé_ãðàäèåíò_5"/><linearGradient id="Áåçûìÿííûé_ãðàäèåíò_5-17" x1="213.56" y1="102.64" x2="202.51" y2="198.84" xlink:href="#Áåçûìÿííûé_ãðàäèåíò_5"/><linearGradient id="Áåçûìÿííûé_ãðàäèåíò_5-18" x1="222.07" y1="103.62" x2="211.02" y2="199.82" xlink:href="#Áåçûìÿííûé_ãðàäèåíò_5"/><linearGradient id="Áåçûìÿííûé_ãðàäèåíò_5-19" x1="230.08" y1="104.54" x2="219.03" y2="200.74" xlink:href="#Áåçûìÿííûé_ãðàäèåíò_5"/><linearGradient id="Áåçûìÿííûé_ãðàäèåíò_5-20" x1="237.58" y1="105.4" x2="226.53" y2="201.6" xlink:href="#Áåçûìÿííûé_ãðàäèåíò_5"/><linearGradient id="Áåçûìÿííûé_ãðàäèåíò_5-21" x1="245.2" y1="106.28" x2="234.15" y2="202.48" xlink:href="#Áåçûìÿííûé_ãðàäèåíò_5"/><linearGradient id="Áåçûìÿííûé_ãðàäèåíò_5-22" x1="251.23" y1="106.97" x2="240.18" y2="203.17" xlink:href="#Áåçûìÿííûé_ãðàäèåíò_5"/><linearGradient id="Áåçûìÿííûé_ãðàäèåíò_5-23" x1="266.56" y1="108.73" x2="255.51" y2="204.93" xlink:href="#Áåçûìÿííûé_ãðàäèåíò_5"/><linearGradient id="Áåçûìÿííûé_ãðàäèåíò_5-24" x1="142.34" y1="94.46" x2="131.29" y2="190.66" xlink:href="#Áåçûìÿííûé_ãðàäèåíò_5"/><linearGradient id="Áåçûìÿííûé_ãðàäèåíò_5-25" x1="142.42" y1="94.47" x2="131.37" y2="190.67" xlink:href="#Áåçûìÿííûé_ãðàäèåíò_5"/><linearGradient id="Áåçûìÿííûé_ãðàäèåíò_5-26" x1="143.2" y1="94.56" x2="132.15" y2="190.76" xlink:href="#Áåçûìÿííûé_ãðàäèåíò_5"/><linearGradient id="Áåçûìÿííûé_ãðàäèåíò_5-27" x1="143.56" y1="94.6" x2="132.51" y2="190.8" xlink:href="#Áåçûìÿííûé_ãðàäèåíò_5"/><linearGradient id="Áåçûìÿííûé_ãðàäèåíò_5-28" x1="144.34" y1="94.69" x2="133.29" y2="190.89" xlink:href="#Áåçûìÿííûé_ãðàäèåíò_5"/><linearGradient id="Áåçûìÿííûé_ãðàäèåíò_5-29" x1="144.44" y1="94.7" x2="133.39" y2="190.9" xlink:href="#Áåçûìÿííûé_ãðàäèåíò_5"/><linearGradient id="Áåçûìÿííûé_ãðàäèåíò_5-30" x1="145.21" y1="94.79" x2="134.16" y2="190.99" xlink:href="#Áåçûìÿííûé_ãðàäèåíò_5"/><linearGradient id="Áåçûìÿííûé_ãðàäèåíò_5-31" x1="145.57" y1="94.83" x2="134.52" y2="191.03" xlink:href="#Áåçûìÿííûé_ãðàäèåíò_5"/><linearGradient id="Áåçûìÿííûé_ãðàäèåíò_5-32" x1="209.74" y1="102.21" x2="198.69" y2="198.4" xlink:href="#Áåçûìÿííûé_ãðàäèåíò_5"/><linearGradient id="Áåçûìÿííûé_ãðàäèåíò_5-33" x1="209.83" y1="102.21" x2="198.78" y2="198.41" xlink:href="#Áåçûìÿííûé_ãðàäèåíò_5"/><linearGradient id="Áåçûìÿííûé_ãðàäèåíò_5-34" x1="210.61" y1="102.3" x2="199.56" y2="198.5" xlink:href="#Áåçûìÿííûé_ãðàäèåíò_5"/><linearGradient id="Áåçûìÿííûé_ãðàäèåíò_5-35" x1="210.97" y1="102.35" x2="199.92" y2="198.54" xlink:href="#Áåçûìÿííûé_ãðàäèåíò_5"/><linearGradient id="Áåçûìÿííûé_ãðàäèåíò_5-36" x1="211.75" y1="102.44" x2="200.7" y2="198.63" xlink:href="#Áåçûìÿííûé_ãðàäèåíò_5"/><linearGradient id="Áåçûìÿííûé_ãðàäèåíò_5-37" x1="211.84" y1="102.45" x2="200.79" y2="198.64" xlink:href="#Áåçûìÿííûé_ãðàäèåíò_5"/><linearGradient id="Áåçûìÿííûé_ãðàäèåíò_5-38" x1="212.62" y1="102.54" x2="201.57" y2="198.73" xlink:href="#Áåçûìÿííûé_ãðàäèåíò_5"/><linearGradient id="Áåçûìÿííûé_ãðàäèåíò_5-39" x1="212.98" y1="102.58" x2="201.93" y2="198.77" xlink:href="#Áåçûìÿííûé_ãðàäèåíò_5"/><linearGradient id="Áåçûìÿííûé_ãðàäèåíò_5-40" x1="205.85" y1="101.76" x2="194.8" y2="197.96" xlink:href="#Áåçûìÿííûé_ãðàäèåíò_5"/><linearGradient id="Áåçûìÿííûé_ãðàäèåíò_5-41" x1="108.24" y1="90.55" x2="97.19" y2="186.74" xlink:href="#Áåçûìÿííûé_ãðàäèåíò_5"/><linearGradient id="Áåçûìÿííûé_ãðàäèåíò_5-42" x1="207.05" y1="101.9" x2="196" y2="198.1" xlink:href="#Áåçûìÿííûé_ãðàäèåíò_5"/></defs><g class="cls-1"><g id="Layer_1" data-name="Layer 1"><path class="cls-2" d="M85,329.61s187.16-.52,230-2.34c0,0-5.1,34.91-2.36,41.36,0,0-202-2.47-227.64-1C85,367.66,87.6,342.52,85,329.61Z"/><path class="cls-3" d="M312.24,352a54.3,54.3,0,0,1-16.58,2.79c-15.63.06-31.21,1.93-46.84,2-28.54.07-57.06-1.4-85.58-2.3-13.7-.43-27.56.11-41.19-1.72-11.92-1.61-24-1.13-36-2.36-.25,9.27-1.08,17.26-1.08,17.26,25.61-1.5,227.64,1,227.64,1C311.58,366.13,311.7,359.36,312.24,352Z"/><path class="cls-4" d="M94.91,359.64c-.09-2.61-.12-5.09-.12-7.39,0-4.65.12-9,.3-13.9a15.5,15.5,0,0,1,5.33-1,7.06,7.06,0,0,1,6.92,7.23c0,4-3.58,7-8.36,8.36,0,2.2,0,4.62.09,7ZM99,349.5c2.57-.83,4.17-2.73,4.17-4.87s-1.41-3.64-2.73-3.64a7.38,7.38,0,0,0-1.25.15C99.07,344,99,346.71,99,349.5Z"/><path class="cls-4" d="M120.21,358.47a14.36,14.36,0,0,1-6.16,1.2l-4.71-.43c-.07-2.42-.13-4.84-.13-7.75,0-3.61.25-9.19.49-12.65a67.8,67.8,0,0,1,10.23-.79v3.76c-2,0-4.32.06-6.43.22-.06,1.74-.12,3.55-.15,5.26a40.6,40.6,0,0,1,5.51-.39l.58,3.36c-1.77,0-4.38.28-6.15.46,0,2.15,0,3.68,0,5.3a55,55,0,0,0,6.37-.92Z"/><path class="cls-4" d="M125.17,359.18c-.18-3.25-.31-6.83-.31-10.29,0-2.52,0-3.92.19-7.57-2.09.25-3.74.52-3.74.52l-.67-3.55s3-.52,5.94-.77,5.73-.3,5.73-.3l.58,3.4s-1.69.09-3.8.27c-.12,2.94-.18,5.15-.18,8,0,3.67.06,7.19.12,10.62Z"/><path class="cls-4" d="M141.83,345.73a9.64,9.64,0,0,0,.4-2.39c0-1.59-.89-2.45-1.9-2.45-1.32,0-2.11,1.44-2.11,2.82a4.49,4.49,0,0,0,2.45,3.68c3.37,2.11,5.51,3.46,5.51,6.67a6,6,0,0,1-6,6c-3.89,0-5.94-3.88-7.11-6.52l3-1.44c.83,2.21,2.3,4.38,4,4.38a1.89,1.89,0,0,0,2-1.93c0-1.56-1.44-2.69-2.88-3.67-2.61-1.81-5.12-3.65-5.12-7.14a6.32,6.32,0,0,1,6.25-6.46,6.4,6.4,0,0,1,6.16,6.22,8.36,8.36,0,0,1-.8,3.46Z"/><path class="cls-5" d="M106.76,347.44c-1.54,0-3.07,0-4.59,0A6.56,6.56,0,0,1,99,349.5c0-.71,0-1.42,0-2.13-1.4-.05-2.79-.14-4.18-.28,0,1.71-.05,3.42-.05,5.16,0,2.3,0,4.78.12,7.39l4.17.39c-.07-2.42-.1-4.84-.1-7C102.62,352,105.52,350,106.76,347.44Z"/><path class="cls-5" d="M113.38,356c0-1.62,0-3.15,0-5.3,1.77-.18,4.38-.43,6.15-.46l-.52-3c-1.91.1-3.83.16-5.77.16-1.3,0-2.58,0-3.86,0,0,1.47-.08,2.88-.08,4.07,0,2.91.06,5.33.13,7.75l4.71.43a14.36,14.36,0,0,0,6.16-1.2l-.52-3.37A55,55,0,0,1,113.38,356Z"/><path class="cls-5" d="M129,347c-1-.11-1.95-.23-2.93-.36l-1.11.12c0,.67,0,1.35,0,2.14,0,3.46.12,7,.3,10.29l3.86.33c-.06-3.43-.12-6.95-.12-10.62C129,348.23,129,347.6,129,347Z"/><path class="cls-5" d="M141.21,347.69l-.49,0a49.42,49.42,0,0,1-5.31-.06,16.35,16.35,0,0,0,3.79,3.26c1.44,1,2.88,2.11,2.88,3.67a1.89,1.89,0,0,1-2,1.93c-1.72,0-3.19-2.17-4-4.38l-3,1.44c1.17,2.64,3.22,6.52,7.11,6.52a6,6,0,0,0,6-6C146.24,351,144.29,349.63,141.21,347.69Z"/><path class="cls-4" d="M159.15,338.13c.58,3.77,1.49,8.91,2.89,14.57l.13,0c1.33-5.17,2.55-10.77,3.43-16l4,.34a158.84,158.84,0,0,1-6.06,21.62l-3.49-.3c-1.92-6.76-3.56-13.45-4.84-20.56Z"/><path class="cls-4" d="M178.53,353.92l-4.53.18-1.16,5.72-4.25-.37L174,337.4l5.63.49,4,20.62-4.41-.37Zm-3.89-3.08,3.4-.12-1.49-9.33Z"/><path class="cls-4" d="M194,346.4c0-2.19-.07-5.44-1.62-5.44-2,0-3.34,6.3-3.34,9.31s.85,5.2,2.8,5.2c1.67,0,2.31-2.13,2.85-4.11l3.87.31c-1,4.62-2.8,7.69-6.72,7.69-4.57,0-6.85-3.92-6.85-8.79,0-5.26,2.13-13.5,7.67-13.5,4.89,0,5.17,5.44,5.26,9.7Z"/><path class="cls-4" d="M208.65,346.4c0-2.19-.06-5.44-1.61-5.44-2,0-3.35,6.3-3.35,9.31s.85,5.2,2.8,5.2c1.67,0,2.31-2.13,2.86-4.11l3.86.31c-1,4.62-2.8,7.69-6.72,7.69-4.56,0-6.84-3.92-6.84-8.79,0-5.26,2.12-13.5,7.66-13.5,4.9,0,5.17,5.44,5.26,9.7Z"/><path class="cls-4" d="M220.6,337.4c-.18,3.19-.27,6.78-.27,10.37,0,4,.12,8,.4,11.44l-4.11-.37c-.27-4.28-.4-8-.4-11.58,0-3.29.1-6.48.28-10.22Z"/><path class="cls-4" d="M224,359c-.06-1.25-.09-2.44-.09-3.65,0-5.87.4-12.08.82-17.16l4,.4a87.08,87.08,0,0,0,5.41,12.62c-.09-4.93-.21-10.07-.42-14.48l3.8.34c0,4.38,0,9.21,0,14.14,0,2.28-.12,5.5-.25,7.51l-3.4-.33c-2-4.29-4.11-9.22-6.42-13.36,0,4.51,0,9.25,0,14.36Z"/><path class="cls-4" d="M248.9,353.92l-4.54.18-1.15,5.72-4.26-.37,5.44-22.05,5.63.49,4,20.62-4.42-.37Zm-3.9-3.08,3.41-.12-1.49-9.33Z"/><path class="cls-4" d="M258.14,358.51c-.18-3.22-.3-6.78-.3-10.22,0-2.49,0-3.89.18-7.51-2.07.24-3.71.51-3.71.51l-.67-3.52s3-.52,5.91-.76,5.68-.31,5.68-.31l.58,3.38s-1.67.09-3.77.27c-.12,2.92-.18,5.11-.18,7.94,0,3.65.06,7.15.12,10.55Z"/><path class="cls-4" d="M272.59,337.4c-.18,3.19-.27,6.78-.27,10.37,0,4,.12,8,.4,11.44l-4.11-.37c-.27-4.28-.4-8-.4-11.58,0-3.29.1-6.48.28-10.22Z"/><path class="cls-4" d="M282.66,337c3.56,0,6.85,3,6.85,10.47s-3.65,12-7.21,12-7-3-7-10.46S278.83,337,282.66,337Zm-.36,18.92c1.55,0,3.16-3.28,3.16-8.45,0-4.87-1.34-6.85-2.8-6.85-1.7,0-3.28,3.29-3.28,8.43C279.38,353.89,280.78,355.89,282.3,355.89Z"/><path class="cls-4" d="M291.79,359c-.06-1.25-.09-2.44-.09-3.65,0-5.87.39-12.08.82-17.16l4.05.4A87.08,87.08,0,0,0,302,351.18c-.09-4.93-.21-10.07-.43-14.48l3.81.34c0,4.38,0,9.21,0,14.14,0,2.28-.12,5.5-.25,7.51l-3.4-.33c-2-4.29-4.11-9.22-6.42-13.36,0,4.51,0,9.25,0,14.36Z"/><path class="cls-5" d="M163.36,347.78c-.39,1.66-.78,3.29-1.19,4.89l-.13,0c-.43-1.74-.8-3.42-1.15-5-1.2-.05-2.41-.09-3.62-.12.85,3.62,1.78,7.19,2.8,10.78l3.49.3c1.19-3.29,2.35-7,3.39-10.64C165.75,347.91,164.56,347.84,163.36,347.78Z"/><path class="cls-5" d="M177.73,348.76l.31,2-3.4.12.46-2.28-3.76-.28-2.75,11.17,4.25.37L174,354.1l4.53-.18.7,4.22,4.41.37-1.82-9.44Z"/><path class="cls-5" d="M191.83,355.47c-2,0-2.8-2.1-2.8-5.2,0-.22,0-.45,0-.7-1.34-.08-2.69-.17-4-.27,0,.44,0,.86,0,1.27,0,4.87,2.28,8.79,6.85,8.79,3.92,0,5.74-3.07,6.72-7.69l-3.87-.31C194.14,353.34,193.5,355.47,191.83,355.47Z"/><path class="cls-5" d="M206.49,355.47c-2,0-2.8-2.1-2.8-5.2a1.62,1.62,0,0,1,0-.22q-2,0-4,0v.55c0,4.87,2.28,8.79,6.84,8.79,3.92,0,5.75-3.07,6.72-7.69l-3.86-.31C208.8,353.34,208.16,355.47,206.49,355.47Z"/><path class="cls-5" d="M216.24,349.49c0,2.92.16,5.94.38,9.35l4.11.37c-.24-3-.37-6.46-.39-10Z"/><path class="cls-5" d="M224,349c-.08,2.09-.13,4.21-.13,6.29,0,1.21,0,2.4.09,3.65l3.56.39c0-3.68,0-7.16,0-10.5Z"/><path class="cls-5" d="M234.09,348.61c0,.86,0,1.72,0,2.57-.45-.82-.89-1.67-1.31-2.53l-3.39.12c1.57,3.18,3.05,6.54,4.46,9.59l3.4.33c.13-2,.25-5.23.25-7.51,0-.89,0-1.77,0-2.65Z"/><path class="cls-5" d="M248.06,348.52l.35,2.2-3.41.12.48-2.36h-3.82l-2.71,11,4.26.37,1.15-5.72,4.54-.18.69,4.22,4.42.37-1.92-9.9C250.75,348.57,249.4,348.54,248.06,348.52Z"/><path class="cls-5" d="M257.85,348.87c0,3.26.12,6.6.29,9.64l3.84.33c-.06-3.14-.11-6.36-.12-9.7Z"/><path class="cls-5" d="M268.24,349.8c0,2.82.16,5.75.37,9l4.11.37c-.22-2.68-.34-5.69-.38-8.79Z"/><path class="cls-5" d="M284.91,352.24c-.61,2.31-1.62,3.65-2.61,3.65-1.24,0-2.4-1.33-2.78-4.45l-.91-.13-3.19-.45c.51,6.1,3.57,8.62,6.88,8.62,2.61,0,5.26-2.53,6.5-6.78C287.5,352.58,286.2,352.42,284.91,352.24Z"/><path class="cls-5" d="M293.42,352.89c-.56,0-1.13,0-1.7,0,0,.81,0,1.62,0,2.43,0,1.21,0,2.4.09,3.65l3.56.39v-6.55C294.7,352.84,294.06,352.88,293.42,352.89Z"/><path class="cls-5" d="M299.06,352.51c.92,2,1.82,4,2.68,5.85l3.4.33c.12-1.86.23-4.77.24-7C303.28,352,301.16,352.29,299.06,352.51Z"/><path class="cls-6" d="M30.62,36.94,71.84,96.22A4.66,4.66,0,0,0,70,97a2.37,2.37,0,0,0-.3.23L32,41.33A12.41,12.41,0,0,0,30.62,36.94Z"/><path class="cls-7" d="M32,41.33,69.73,97.22a4.71,4.71,0,0,0-1.08,1.24L32,45.69A15.12,15.12,0,0,0,32,41.33Z"/><path class="cls-8" d="M76.75,98.2l2.86,4.1-7.93,5.52L70.38,106c.69.62,4.48-.66,5.55-3.85a5.88,5.88,0,0,0-1.34-5.63A4.88,4.88,0,0,1,76.75,98.2Z"/><path class="cls-9" d="M69.73,97.22l.22.33-1.3.91A4.71,4.71,0,0,1,69.73,97.22Z"/><path class="cls-9" d="M71.84,96.22,70,97.55l-.22-.33A2.37,2.37,0,0,1,70,97,4.66,4.66,0,0,1,71.84,96.22Z"/><path class="cls-9" d="M74.59,96.47a5.88,5.88,0,0,1,1.34,5.63c-1.07,3.19-4.86,4.47-5.55,3.85l-1.56-2.24A4.86,4.86,0,0,1,68,100.1a5.1,5.1,0,0,1,.62-1.64l1.3-.91,1.89-1.33A4.87,4.87,0,0,1,74.59,96.47Z"/><path class="cls-9" d="M80.06,102a1,1,0,0,1,1.4.25,1,1,0,0,1-.26,1.4l-.56.39-7.74,5.39-.57.39a1,1,0,1,1-1.14-1.65l.49-.34,7.93-5.52Z"/><rect class="cls-10" x="122.54" y="160.66" width="7.11" height="1.92" transform="translate(-69.7 100.91) rotate(-34.81)"/><rect class="cls-10" x="120.94" y="163.39" width="2.45" height="1.92" transform="translate(-71.96 99.16) rotate(-34.81)"/><rect class="cls-10" x="119.68" y="156.55" width="7.11" height="1.92" transform="translate(-67.86 98.54) rotate(-34.81)"/><rect class="cls-10" x="114.07" y="160.54" width="6.86" height="1.92" transform="translate(-71.17 95.99) rotate(-34.82)"/><rect class="cls-10" x="110.38" y="165.21" width="0.81" height="1.92" transform="translate(-75.04 92.99) rotate(-34.82)"/><rect class="cls-10" x="110.96" y="164.51" width="1.65" height="1.92" transform="matrix(0.82, -0.57, 0.57, 0.82, -74.45, 93.43)"/><rect class="cls-10" x="116.9" y="152.55" width="7.11" height="1.92" transform="translate(-66.08 96.24) rotate(-34.81)"/><rect class="cls-10" x="115.3" y="155.28" width="2.45" height="1.92" transform="translate(-68.34 94.48) rotate(-34.81)"/><rect class="cls-10" x="114.04" y="148.43" width="7.11" height="1.93" transform="translate(-64.24 93.87) rotate(-34.81)"/><rect class="cls-10" x="108.43" y="152.42" width="6.86" height="1.93" transform="translate(-67.55 91.31) rotate(-34.81)"/><rect class="cls-10" x="105.32" y="156.39" width="1.65" height="1.93" transform="translate(-70.84 88.78) rotate(-34.82)"/><rect class="cls-10" x="104.74" y="157.09" width="0.81" height="1.93" transform="translate(-71.41 88.31) rotate(-34.81)"/><rect class="cls-10" x="110.6" y="143.49" width="7.11" height="1.92" transform="translate(-62.03 91.01) rotate(-34.81)"/><rect class="cls-10" x="109" y="146.22" width="2.45" height="1.92" transform="translate(-64.3 89.28) rotate(-34.82)"/><rect class="cls-10" x="108.12" y="140.58" width="7.11" height="0.59" transform="matrix(0.82, -0.57, 0.57, 0.82, -60.43, 88.94)"/><rect class="cls-10" x="98.81" y="149.24" width="0.81" height="0.59" transform="translate(-67.62 83.43) rotate(-34.82)"/><rect class="cls-10" x="102.72" y="136.07" width="9.56" height="1.92" transform="translate(-58.99 85.89) rotate(-34.81)"/><rect class="cls-10" x="91.16" y="134.69" width="19.13" height="1.92" transform="translate(-59.42 81.77) rotate(-34.81)"/><rect class="cls-10" x="97.04" y="127.89" width="9.56" height="1.92" transform="translate(-55.34 81.18) rotate(-34.81)"/><rect class="cls-10" x="85.47" y="126.51" width="19.13" height="1.92" transform="translate(-55.76 77.07) rotate(-34.81)"/><rect class="cls-10" x="91.4" y="119.78" width="9.56" height="1.92" transform="translate(-51.72 76.52) rotate(-34.81)"/><rect class="cls-10" x="79.83" y="118.4" width="19.13" height="1.92" transform="translate(-52.14 72.39) rotate(-34.81)"/><path class="cls-11" d="M97,150.75l15.22,21.9a1.66,1.66,0,1,1-2.73,1.9L94.21,152.66Z"/><path class="cls-12" d="M78.53,124.26l16.35,23.51-2.74,1.9L75.79,126.16a1.68,1.68,0,0,1,.42-2.32,1.63,1.63,0,0,1,1.24-.27A1.68,1.68,0,0,1,78.53,124.26Z"/><path class="cls-2" d="M98.54,112.25,114,134.48,94.88,147.77,78.53,124.26a1.68,1.68,0,0,0-1.08-.69,1.63,1.63,0,0,0-1.24.27,1.68,1.68,0,0,0-.42,2.32l16.35,23.51-2.32,1.62L74.37,129.06a10.14,10.14,0,0,1-1.58-8l2-8.92-1.87-2.7L80.64,104l1.88,2.7L91.58,108A10.19,10.19,0,0,1,98.54,112.25ZM112,135.09l-1.1-1.58L103,139l1.1,1.58ZM109.12,131,108,129.41,92.32,140.33l1.1,1.57Zm-2.83-4.07-1.1-1.58-7.85,5.46,1.1,1.58Zm-2.86-4.11-1.1-1.58-15.7,10.92,1.1,1.58Zm-2.78-4-1.09-1.58-7.86,5.46,1.1,1.58Zm-2.86-4.11-1.09-1.58L81,124l1.1,1.58Z"/><polygon class="cls-13" points="116.07 137.46 133.86 163.05 126.38 168.25 123.72 164.44 129.56 160.38 128.46 158.8 122.63 162.86 120.87 160.33 126.7 156.27 125.61 154.69 119.77 158.75 118.08 156.32 123.92 152.27 122.83 150.69 116.99 154.75 115.23 152.22 121.06 148.16 119.97 146.58 114.13 150.64 111.78 147.26 117.62 143.21 116.53 141.63 110.69 145.69 108.92 143.15 114.76 139.09 114.42 138.6 116.07 137.46"/><path class="cls-13" d="M111.66,166.73l5.51,7.92-7.48,5.21L91.9,154.27l2.31-1.61,15.23,21.89a1.66,1.66,0,1,0,2.73-1.9L97,150.75l1.77-1.22.34.48.66-.46,5.2,7.49-.66.46,1.1,1.58.66-.46,4.54,6.53-.66.46,1.1,1.58Z"/><rect class="cls-14" x="114.27" y="165.39" width="1.65" height="9.65" transform="translate(-76.57 96.16) rotate(-34.81)"/><rect class="cls-14" x="108.15" y="157.43" width="1.65" height="7.96" transform="translate(-72.64 91.1) rotate(-34.81)"/><rect class="cls-10" x="99.4" y="148.54" width="1.65" height="0.59" transform="translate(-67.04 83.89) rotate(-34.82)"/><rect class="cls-14" x="102.17" y="148.26" width="1.65" height="9.12" transform="matrix(0.82, -0.57, 0.57, 0.82, -68.81, 86.15)"/><rect class="cls-10" x="102.51" y="144.57" width="6.86" height="0.59" transform="translate(-63.76 86.45) rotate(-34.83)"/><path class="cls-15" d="M135.66,161.91a2,2,0,0,1,2.78.5,2,2,0,0,1,.32,1.49,2,2,0,0,1-.82,1.29l-9.23,6.41-2.28-3.27Z"/><path class="cls-15" d="M163.35,201.74a2,2,0,0,1,3.11,2,2,2,0,0,1-.82,1.29L138,224.26a2,2,0,0,1-2.29-3.29l9.24-6.41,1.35-.95,2.22-1.54,5.63-3.92Z"/><polygon class="cls-16" points="114 134.48 116.07 137.46 114.42 138.6 113.67 137.51 97.96 148.44 98.72 149.53 96.95 150.75 94.88 147.77 114 134.48"/><polygon class="cls-10" points="113.67 137.51 114.42 138.6 108.58 142.66 102.95 146.58 100.74 148.12 99.38 149.06 98.72 149.53 97.96 148.44 113.67 137.51"/><rect class="cls-17" x="135.17" y="169.58" width="6.86" height="44.52" transform="translate(-84.71 113.45) rotate(-34.81)"/><rect class="cls-15" x="121.32" y="169.93" width="6.86" height="3.99" transform="translate(-75.82 101.98) rotate(-34.81)"/><polygon class="cls-14" points="123.72 164.44 126.38 168.25 121.77 171.45 120.74 172.17 115.23 164.25 120.87 160.33 122.63 162.86 120.61 164.26 121.71 165.84 123.72 164.44"/><polygon class="cls-14" points="118.08 156.32 119.77 158.75 114.14 162.67 109.59 156.13 115.23 152.22 116.99 154.75 114.97 156.15 116.07 157.72 118.08 156.32"/><polygon class="cls-14" points="111.78 147.26 114.13 150.64 108.49 154.55 103.29 147.07 108.92 143.15 110.69 145.69 108.67 147.09 109.77 148.66 111.78 147.26"/><rect class="cls-16" x="133.33" y="172.31" width="2.69" height="44.52" transform="translate(-86.97 111.7) rotate(-34.81)"/><rect class="cls-15" x="119.48" y="172.66" width="2.69" height="3.99" transform="translate(-78.08 100.22) rotate(-34.81)"/><rect class="cls-17" x="115.53" y="164.15" width="2.69" height="9.65" transform="translate(-75.55 96.97) rotate(-34.81)"/><rect class="cls-10" x="112.23" y="163.27" width="2.69" height="1.92" transform="translate(-73.43 94.23) rotate(-34.81)"/><rect class="cls-17" x="109.41" y="156.19" width="2.69" height="7.96" transform="translate(-71.62 91.89) rotate(-34.81)"/><rect class="cls-10" x="106.59" y="155.15" width="2.69" height="1.93" transform="matrix(0.82, -0.57, 0.57, 0.82, -69.8, 89.56)"/><rect class="cls-17" x="103.44" y="147.02" width="2.69" height="9.12" transform="translate(-67.78 86.95) rotate(-34.81)"/><rect class="cls-10" x="100.67" y="147.3" width="2.69" height="0.59" transform="translate(-66.02 84.7) rotate(-34.83)"/><rect class="cls-17" x="132.06" y="173.55" width="1.65" height="44.52" transform="translate(-88 110.91) rotate(-34.81)"/><rect class="cls-15" x="118.21" y="173.9" width="1.65" height="3.99" transform="translate(-79.11 99.44) rotate(-34.81)"/><path class="cls-15" d="M117.22,174.73,119.5,178l-9.23,6.41a2,2,0,0,1-3.1-2,2,2,0,0,1,.82-1.28Z"/><rect class="cls-18" x="92.88" y="148.4" width="3.33" height="3.63" transform="translate(-68.83 80.86) rotate(-34.81)"/><rect class="cls-16" x="90.61" y="150.16" width="2.82" height="3.63" transform="translate(-70.29 79.73) rotate(-34.81)"/><g class="cls-19"><path class="cls-20" d="M30.62,36.94,71.84,96.22A4.93,4.93,0,0,0,70,97l-.3.23L32,41.34A12.61,12.61,0,0,0,30.62,36.94Z"/><path class="cls-21" d="M32,41.34,69.72,97.22a4.75,4.75,0,0,0-1.08,1.25L32,45.7A15.35,15.35,0,0,0,32,41.34Z"/><rect class="cls-22" x="122.53" y="160.66" width="7.11" height="1.92" transform="translate(-69.7 100.89) rotate(-34.81)"/><rect class="cls-23" x="120.94" y="163.39" width="2.45" height="1.92" transform="matrix(0.82, -0.57, 0.57, 0.82, -71.96, 99.14)"/><rect class="cls-24" x="119.68" y="156.55" width="7.11" height="1.92" transform="translate(-67.87 98.55) rotate(-34.82)"/><rect class="cls-25" x="114.07" y="160.54" width="6.86" height="1.92" transform="translate(-71.17 95.97) rotate(-34.81)"/><rect class="cls-26" x="110.37" y="165.21" width="0.81" height="1.92" transform="translate(-75.04 92.98) rotate(-34.81)"/><rect class="cls-27" x="110.96" y="164.51" width="1.65" height="1.92" transform="translate(-74.46 93.45) rotate(-34.82)"/><rect class="cls-28" x="116.9" y="152.55" width="7.11" height="1.92" transform="translate(-66.08 96.23) rotate(-34.81)"/><rect class="cls-29" x="115.3" y="155.28" width="2.45" height="1.92" transform="translate(-68.34 94.48) rotate(-34.81)"/><rect class="cls-30" x="114.04" y="148.44" width="7.11" height="1.93" transform="translate(-64.24 93.86) rotate(-34.81)"/><rect class="cls-31" x="108.42" y="152.42" width="6.86" height="1.93" transform="translate(-67.54 91.3) rotate(-34.81)"/><rect class="cls-32" x="105.32" y="156.39" width="1.65" height="1.93" transform="translate(-70.83 88.75) rotate(-34.81)"/><rect class="cls-33" x="104.73" y="157.1" width="0.81" height="1.93" transform="translate(-71.42 88.32) rotate(-34.81)"/><rect class="cls-34" x="110.59" y="143.49" width="7.11" height="1.92" transform="translate(-62.03 91.02) rotate(-34.81)"/><rect class="cls-35" x="109" y="146.22" width="2.45" height="1.92" transform="matrix(0.82, -0.57, 0.57, 0.82, -64.29, 89.26)"/><rect class="cls-36" x="108.11" y="140.58" width="7.11" height="0.59" transform="translate(-60.43 88.93) rotate(-34.8)"/><rect class="cls-37" x="98.81" y="149.24" width="0.81" height="0.59" transform="matrix(0.82, -0.57, 0.57, 0.82, -67.61, 83.39)"/><rect class="cls-38" x="102.72" y="136.07" width="9.56" height="1.92" transform="translate(-58.99 85.91) rotate(-34.82)"/><rect class="cls-39" x="91.15" y="134.7" width="19.13" height="1.92" transform="translate(-59.41 81.77) rotate(-34.81)"/><rect class="cls-40" x="97.03" y="127.89" width="9.56" height="1.92" transform="matrix(0.82, -0.57, 0.57, 0.82, -55.34, 81.18)"/><rect class="cls-41" x="85.46" y="126.51" width="19.13" height="1.92" transform="translate(-55.76 77.06) rotate(-34.81)"/><rect class="cls-42" x="91.39" y="119.78" width="9.56" height="1.92" transform="translate(-51.72 76.51) rotate(-34.81)"/><rect class="cls-43" x="79.82" y="118.4" width="19.13" height="1.92" transform="translate(-52.15 72.4) rotate(-34.82)"/><path class="cls-44" d="M98.53,112.25,114,134.48,94.87,147.77,78.52,124.26a1.61,1.61,0,0,0-1.07-.68,1.65,1.65,0,0,0-1.66,2.58l16.35,23.52-2.32,1.61L74.36,129.06a10.16,10.16,0,0,1-1.57-8l2-8.93-1.88-2.7L80.64,104l1.88,2.69,9,1.25A10.17,10.17,0,0,1,98.53,112.25ZM112,135.09l-1.1-1.57L103,139l1.09,1.58ZM109.12,131l-1.1-1.57-15.7,10.92,1.09,1.57Zm-2.83-4.07-1.1-1.57-7.85,5.45,1.1,1.58Zm-2.86-4.11-1.1-1.58-15.7,10.92,1.09,1.58Zm-2.78-4-1.1-1.57-7.85,5.45,1.1,1.58Zm-2.86-4.11-1.1-1.58L81,124l1.09,1.58Z"/><polygon class="cls-45" points="116.06 137.46 133.86 163.05 126.37 168.25 123.72 164.44 129.56 160.38 128.46 158.8 122.62 162.86 120.86 160.33 126.7 156.27 125.6 154.69 119.77 158.75 118.08 156.33 123.92 152.27 122.82 150.69 116.98 154.75 115.22 152.22 121.06 148.16 119.96 146.58 114.12 150.64 111.78 147.27 117.62 143.21 116.52 141.63 110.68 145.69 108.92 143.15 114.76 139.09 114.42 138.61 116.06 137.46"/><path class="cls-46" d="M111.66,166.73l5.51,7.92-7.49,5.21L91.89,154.27l2.32-1.61,15.22,21.89a1.67,1.67,0,1,0,2.74-1.9L97,150.76l1.76-1.23.34.48.66-.46,5.21,7.49-.66.46,1.09,1.58.67-.46,4.54,6.53-.66.46,1.09,1.58Z"/><rect class="cls-47" x="114.26" y="165.39" width="1.65" height="9.65" transform="translate(-76.58 96.16) rotate(-34.81)"/><rect class="cls-48" x="108.14" y="157.43" width="1.65" height="7.96" transform="translate(-72.65 91.1) rotate(-34.81)"/><rect class="cls-49" x="99.4" y="148.54" width="1.65" height="0.59" transform="translate(-67.02 83.83) rotate(-34.81)"/><rect class="cls-50" x="102.17" y="148.27" width="1.65" height="9.12" transform="matrix(0.82, -0.57, 0.57, 0.82, -68.81, 86.15)"/><rect class="cls-51" x="102.5" y="144.57" width="6.86" height="0.59" transform="translate(-63.74 86.4) rotate(-34.81)"/><path class="cls-52" d="M135.66,161.91a2,2,0,0,1,3.1,2,2,2,0,0,1-.82,1.29l-9.24,6.42-2.28-3.28Z"/><path class="cls-53" d="M163.35,201.74a2,2,0,0,1,2.78.5,2,2,0,0,1,.33,1.49,2,2,0,0,1-.83,1.29L138,224.26a2,2,0,0,1-2.78-.5,2,2,0,0,1,.5-2.78l9.23-6.42,1.36-.95,2.21-1.54,5.64-3.91Z"/><polygon class="cls-54" points="113.99 134.48 116.06 137.46 114.42 138.61 113.66 137.52 97.95 148.44 98.71 149.53 96.95 150.76 94.87 147.78 113.99 134.48"/><polygon class="cls-55" points="113.66 137.52 114.42 138.61 108.58 142.67 102.95 146.58 100.73 148.12 99.38 149.07 98.71 149.53 97.95 148.44 113.66 137.52"/><rect class="cls-56" x="135.16" y="169.58" width="6.86" height="44.52" transform="translate(-84.71 113.45) rotate(-34.81)"/><rect class="cls-57" x="121.32" y="169.93" width="6.86" height="3.99" transform="matrix(0.82, -0.57, 0.57, 0.82, -75.82, 101.99)"/><polygon class="cls-58" points="123.72 164.44 126.37 168.25 121.77 171.46 120.74 172.17 115.23 164.25 120.86 160.33 122.62 162.86 120.61 164.26 121.71 165.84 123.72 164.44"/><polygon class="cls-59" points="118.08 156.33 119.77 158.75 114.13 162.67 109.59 156.14 115.22 152.22 116.98 154.75 114.97 156.15 116.07 157.73 118.08 156.33"/><polygon class="cls-60" points="111.78 147.27 114.12 150.64 108.49 154.56 103.28 147.07 108.92 143.15 110.68 145.69 108.67 147.09 109.77 148.67 111.78 147.27"/><rect class="cls-61" x="133.32" y="172.31" width="2.69" height="44.52" transform="translate(-86.97 111.7) rotate(-34.81)"/><rect class="cls-62" x="119.48" y="172.66" width="2.69" height="3.99" transform="translate(-78.08 100.23) rotate(-34.81)"/><rect class="cls-63" x="115.53" y="164.15" width="2.69" height="9.65" transform="translate(-75.55 96.96) rotate(-34.81)"/><rect class="cls-64" x="112.23" y="163.27" width="2.69" height="1.92" transform="translate(-73.43 94.24) rotate(-34.81)"/><rect class="cls-65" x="109.41" y="156.19" width="2.69" height="7.96" transform="translate(-71.62 91.89) rotate(-34.81)"/><rect class="cls-66" x="106.59" y="155.15" width="2.69" height="1.93" transform="translate(-69.81 89.56) rotate(-34.81)"/><rect class="cls-67" x="103.43" y="147.02" width="2.69" height="9.12" transform="translate(-67.78 86.95) rotate(-34.81)"/><rect class="cls-68" x="100.66" y="147.3" width="2.69" height="0.59" transform="translate(-66 84.64) rotate(-34.81)"/><rect class="cls-69" x="132.06" y="173.55" width="1.65" height="44.52" transform="translate(-88 110.9) rotate(-34.81)"/><rect class="cls-70" x="118.21" y="173.9" width="1.65" height="3.99" transform="translate(-79.11 99.44) rotate(-34.81)"/><path class="cls-71" d="M117.22,174.73,119.5,178l-9.23,6.42a2,2,0,0,1-2.78-.5,2,2,0,0,1,.5-2.78Z"/><rect class="cls-72" x="90.6" y="150.16" width="2.82" height="3.63" transform="translate(-70.29 79.73) rotate(-34.81)"/></g><path class="cls-6" d="M388,83l-56.1,45.46a4.62,4.62,0,0,1,1.52,1.24,3,3,0,0,1,.23.3L385.45,86.8A12.37,12.37,0,0,1,388,83Z"/><path class="cls-7" d="M385.45,86.8,333.64,130a4.85,4.85,0,0,1,.69,1.5L384.27,91A15,15,0,0,1,385.45,86.8Z"/><path class="cls-8" d="M326.62,129l-3.89,3.15,6.08,7.5,1.77-1.43c-.83.4-4.12-1.89-4.25-5.25a5.86,5.86,0,0,1,2.85-5A4.86,4.86,0,0,0,326.62,129Z"/><path class="cls-9" d="M333.64,130l-.3.26,1,1.24A4.85,4.85,0,0,0,333.64,130Z"/><path class="cls-9" d="M331.89,128.42l1.45,1.8.3-.26a3,3,0,0,0-.23-.3A4.62,4.62,0,0,0,331.89,128.42Z"/><path class="cls-9" d="M329.18,127.89a5.86,5.86,0,0,0-2.85,5c.13,3.36,3.42,5.65,4.25,5.25l2.12-1.72a4.76,4.76,0,0,0,1.76-3.25,4.65,4.65,0,0,0-.13-1.74l-1-1.24-1.45-1.8A4.81,4.81,0,0,0,329.18,127.89Z"/><path class="cls-9" d="M322.39,131.67a1,1,0,1,0-1.56,1.27l.43.53,5.94,7.33.43.53a1,1,0,0,0,1.42.16,1,1,0,0,0,.14-1.42l-.38-.47-6.08-7.5Z"/><rect class="cls-10" x="260.61" y="172.56" width="1.92" height="7.11" transform="translate(-52.53 203.96) rotate(-39.02)"/><rect class="cls-10" x="263.62" y="178.61" width="1.92" height="2.45" transform="translate(-54.2 206.66) rotate(-39.01)"/><rect class="cls-10" x="264.5" y="169.41" width="1.92" height="7.11" transform="translate(-49.68 205.7) rotate(-39.02)"/><rect class="cls-10" x="268.89" y="174.96" width="1.92" height="6.86" transform="translate(-52.12 209.66) rotate(-39.01)"/><rect class="cls-10" x="274.05" y="184.35" width="1.92" height="0.81" transform="translate(-54.97 214.34) rotate(-39.02)"/><rect class="cls-10" x="273.27" y="182.97" width="1.92" height="1.65" transform="translate(-54.54 213.64) rotate(-39.02)"/><rect class="cls-10" x="268.28" y="166.34" width="1.92" height="7.11" transform="translate(-46.91 207.39) rotate(-39.02)"/><rect class="cls-10" x="271.29" y="172.39" width="1.92" height="2.45" transform="translate(-48.57 210.14) rotate(-39.02)"/><rect class="cls-10" x="272.17" y="163.19" width="1.93" height="7.11" transform="translate(-44.05 209.16) rotate(-39.02)"/><rect class="cls-10" x="276.57" y="168.74" width="1.93" height="6.86" transform="translate(-46.49 213.14) rotate(-39.02)"/><rect class="cls-10" x="280.95" y="176.75" width="1.93" height="1.65" transform="translate(-48.92 217.08) rotate(-39.02)"/><rect class="cls-10" x="281.72" y="178.13" width="1.93" height="0.81" transform="translate(-49.35 217.78) rotate(-39.02)"/><rect class="cls-10" x="276.86" y="159.4" width="1.92" height="7.11" transform="translate(-40.62 211.26) rotate(-39.02)"/><rect class="cls-10" x="279.87" y="165.44" width="1.92" height="2.45" transform="translate(-42.29 213.95) rotate(-39.01)"/><rect class="cls-10" x="280.9" y="156.66" width="0.59" height="7.11" transform="translate(-38.14 212.81) rotate(-39.02)"/><rect class="cls-10" x="290.45" y="171.6" width="0.59" height="0.81" transform="translate(-43.46 221.25) rotate(-38.99)"/><rect class="cls-10" x="285.31" y="152.9" width="1.92" height="9.56" transform="translate(-35.42 215.4) rotate(-39.02)"/><rect class="cls-10" x="292.21" y="148.68" width="1.92" height="19.13" transform="translate(-34.23 219.87) rotate(-39.02)"/><rect class="cls-10" x="293.05" y="146.63" width="1.92" height="9.56" transform="translate(-29.74 218.88) rotate(-39.02)"/><rect class="cls-10" x="299.95" y="142.41" width="1.92" height="19.13" transform="translate(-28.56 223.32) rotate(-39.01)"/><rect class="cls-10" x="300.72" y="140.41" width="1.92" height="9.56" transform="translate(-24.12 222.31) rotate(-39.02)"/><rect class="cls-10" x="307.63" y="136.19" width="1.92" height="19.13" transform="translate(-22.93 226.8) rotate(-39.02)"/><path class="cls-11" d="M292.58,173.8l-20.71,16.79a1.67,1.67,0,1,0,2.1,2.59l20.71-16.79Z"/><path class="cls-12" d="M317.66,153.48l-22.25,18,2.09,2.59,22.26-18a1.67,1.67,0,0,0-2.1-2.59Z"/><path class="cls-2" d="M309.66,134.22l9,1.32,2.56-2.07,5.94,7.33-2.55,2.07-.59,9.12a10.16,10.16,0,0,1-3.74,7.26l-21,17.05-1.78-2.2,22.26-18a1.67,1.67,0,0,0-2.1-2.59l-22.25,18-14.66-18.09,21-17A10.19,10.19,0,0,1,309.66,134.22ZM288.53,162l1.49-1.21-6-7.43-1.49,1.21Zm9.91,4.28,1.5-1.21-12.05-14.86-1.49,1.21Zm-2.17-10.55,1.5-1.21-6-7.43-1.5,1.21Zm9.92,4.28,1.49-1.21-12-14.86-1.49,1.2ZM304,149.51l1.49-1.21-6-7.43-1.49,1.21Zm9.91,4.28,1.5-1.21-12.05-14.86-1.49,1.21Z"/><polygon class="cls-13" points="277.92 155.71 253.71 175.33 259.45 182.41 263.06 179.49 258.58 173.96 260.08 172.75 264.55 178.28 266.95 176.33 262.47 170.81 263.96 169.6 268.44 175.13 270.74 173.27 266.26 167.74 267.75 166.53 272.23 172.06 274.62 170.12 270.15 164.59 271.64 163.38 276.12 168.9 279.31 166.32 274.83 160.79 276.32 159.58 280.8 165.11 283.2 163.16 278.73 157.64 279.19 157.27 277.92 155.71"/><path class="cls-13" d="M274,185l-7.5,6.08,5.74,7.08,24.21-19.62-1.78-2.19L274,193.18a1.67,1.67,0,1,1-2.1-2.59l20.71-16.79-1.35-1.67-.46.37-.51-.63-7.08,5.74.51.63-1.5,1.21-.51-.62-6.18,5,.51.62-1.49,1.21Z"/><rect class="cls-14" x="264.91" y="186.61" width="9.65" height="1.65" transform="translate(-57.84 211.63) rotate(-39.02)"/><rect class="cls-14" x="274.09" y="179.86" width="7.96" height="1.65" transform="translate(-51.73 215.36) rotate(-39.02)"/><rect class="cls-10" x="289.67" y="170.22" width="0.59" height="1.65" transform="translate(-43 220.72) rotate(-39.02)"/><rect class="cls-14" x="281.64" y="173.27" width="9.12" height="1.65" transform="translate(-45.77 219.01) rotate(-39.02)"/><rect class="cls-10" x="285.3" y="162.21" width="0.59" height="6.86" transform="translate(-40.59 216.67) rotate(-39)"/><path class="cls-15" d="M252.3,173.73a2,2,0,1,0-3.1,2.51l7.08,8.74,3.1-2.51Z"/><path class="cls-15" d="M214.61,204.27a2,2,0,0,0-2.81-.29,2,2,0,0,0-.73,1.34,2,2,0,0,0,.43,1.47L232.72,233a2,2,0,0,0,3.54-1.05,2,2,0,0,0-.43-1.46l-7.08-8.74-1-1.29-1.7-2.09L221.69,213Z"/><polygon class="cls-16" points="280.75 153.42 277.92 155.71 279.19 157.27 280.22 156.43 292.26 171.29 291.23 172.13 292.58 173.8 295.41 171.51 280.75 153.42"/><polygon class="cls-10" points="280.22 156.43 279.19 157.27 283.66 162.79 287.98 168.12 289.68 170.22 290.72 171.5 291.23 172.13 292.26 171.29 280.22 156.43"/><rect class="cls-17" x="218.88" y="198.23" width="44.52" height="6.86" transform="translate(-73.17 196.8) rotate(-39.02)"/><rect class="cls-15" x="257.99" y="182.96" width="3.99" height="6.86" transform="translate(-59.35 205.26) rotate(-39.02)"/><polygon class="cls-14" points="263.06 179.49 259.45 182.41 262.98 186.77 263.77 187.74 271.27 181.67 266.95 176.33 264.55 178.28 266.1 180.18 264.6 181.39 263.06 179.49"/><polygon class="cls-14" points="270.74 173.27 268.44 175.13 272.76 180.46 278.94 175.45 274.62 170.12 272.23 172.06 273.77 173.96 272.28 175.17 270.74 173.27"/><polygon class="cls-14" points="279.31 166.32 276.12 168.9 280.44 174.23 287.52 168.5 283.2 163.16 280.8 165.11 282.35 167.01 280.85 168.22 279.31 166.32"/><rect class="cls-16" x="221.89" y="204.03" width="44.52" height="2.69" transform="translate(-74.84 199.52) rotate(-39.02)"/><rect class="cls-15" x="261" y="188.76" width="3.99" height="2.69" transform="translate(-61.02 208) rotate(-39.02)"/><rect class="cls-17" x="263.54" y="184.4" width="9.65" height="2.69" transform="translate(-57.08 210.38) rotate(-39.02)"/><rect class="cls-10" x="271.9" y="180.76" width="1.92" height="2.69" transform="translate(-53.79 212.41) rotate(-39.02)"/><rect class="cls-17" x="272.72" y="177.65" width="7.96" height="2.69" transform="translate(-50.97 214.13) rotate(-39.02)"/><rect class="cls-10" x="279.58" y="174.54" width="1.93" height="2.69" transform="translate(-48.16 215.86) rotate(-39.02)"/><rect class="cls-17" x="280.27" y="171.06" width="9.12" height="2.69" transform="translate(-45.01 217.78) rotate(-39.02)"/><rect class="cls-10" x="288.3" y="168.01" width="0.59" height="2.69" transform="translate(-42.26 219.39) rotate(-39)"/><rect class="cls-17" x="223.26" y="206.24" width="44.52" height="1.65" transform="translate(-75.6 200.76) rotate(-39.02)"/><rect class="cls-15" x="262.37" y="190.97" width="3.99" height="1.65" transform="translate(-61.78 209.21) rotate(-39.02)"/><path class="cls-15" d="M266.44,191.18l-3.11,2.51,7.08,8.74a2,2,0,0,0,2.81.3,2,2,0,0,0,.3-2.81Z"/><rect class="cls-18" x="293.23" y="172.29" width="3.63" height="3.33" transform="translate(-43.7 224.56) rotate(-39.02)"/><rect class="cls-16" x="295.17" y="174.93" width="3.63" height="2.82" transform="translate(-44.78 226.31) rotate(-39.02)"/><g class="cls-19"><path class="cls-73" d="M388,83l-56.1,45.46a4.78,4.78,0,0,1,1.53,1.24,3.46,3.46,0,0,1,.22.31L385.45,86.8A12.49,12.49,0,0,1,388,83Z"/><path class="cls-74" d="M385.45,86.8,333.64,130a4.39,4.39,0,0,1,.69,1.49L384.27,91A15.38,15.38,0,0,1,385.45,86.8Z"/><rect class="cls-75" x="260.61" y="172.57" width="1.92" height="7.11" transform="translate(-52.53 203.98) rotate(-39.02)"/><rect class="cls-76" x="263.62" y="178.61" width="1.92" height="2.45" transform="translate(-54.2 206.7) rotate(-39.02)"/><rect class="cls-77" x="264.5" y="169.42" width="1.92" height="7.11" transform="translate(-49.69 205.7) rotate(-39.02)"/><rect class="cls-78" x="268.9" y="174.97" width="1.92" height="6.86" transform="translate(-52.12 209.69) rotate(-39.02)"/><rect class="cls-79" x="274.05" y="184.35" width="1.92" height="0.81" transform="translate(-54.97 214.36) rotate(-39.02)"/><rect class="cls-80" x="273.27" y="182.97" width="1.92" height="1.65" transform="matrix(0.78, -0.63, 0.63, 0.78, -54.55, 213.61)"/><rect class="cls-81" x="268.29" y="166.35" width="1.92" height="7.11" transform="translate(-46.91 207.41) rotate(-39.02)"/><rect class="cls-82" x="271.3" y="172.39" width="1.92" height="2.45" transform="translate(-48.58 210.11) rotate(-39.01)"/><rect class="cls-83" x="272.17" y="163.19" width="1.93" height="7.11" transform="translate(-44.06 209.16) rotate(-39.02)"/><rect class="cls-84" x="276.57" y="168.75" width="1.93" height="6.86" transform="translate(-46.49 213.14) rotate(-39.02)"/><rect class="cls-85" x="280.95" y="176.75" width="1.93" height="1.65" transform="translate(-48.92 217.09) rotate(-39.02)"/><rect class="cls-86" x="281.72" y="178.13" width="1.93" height="0.81" transform="translate(-49.35 217.76) rotate(-39.01)"/><rect class="cls-87" x="276.86" y="159.4" width="1.92" height="7.11" transform="translate(-40.62 211.26) rotate(-39.02)"/><rect class="cls-88" x="279.87" y="165.44" width="1.92" height="2.45" transform="translate(-42.29 213.98) rotate(-39.02)"/><rect class="cls-89" x="280.9" y="156.66" width="0.59" height="7.11" transform="translate(-38.13 212.88) rotate(-39.04)"/><rect class="cls-90" x="290.45" y="171.6" width="0.59" height="0.81" transform="translate(-43.42 221.5) rotate(-39.03)"/><rect class="cls-91" x="285.31" y="152.9" width="1.92" height="9.56" transform="translate(-35.42 215.39) rotate(-39.02)"/><rect class="cls-92" x="292.21" y="148.69" width="1.92" height="19.13" transform="translate(-34.23 219.88) rotate(-39.02)"/><rect class="cls-93" x="293.05" y="146.63" width="1.92" height="9.56" transform="translate(-29.74 218.87) rotate(-39.02)"/><rect class="cls-94" x="299.96" y="142.41" width="1.92" height="19.13" transform="translate(-28.55 223.36) rotate(-39.02)"/><rect class="cls-95" x="300.73" y="140.41" width="1.92" height="9.56" transform="translate(-24.12 222.32) rotate(-39.02)"/><rect class="cls-96" x="307.63" y="136.19" width="1.92" height="19.13" transform="translate(-22.94 226.77) rotate(-39.01)"/><path class="cls-97" d="M309.66,134.22l9,1.32,2.55-2.07,5.94,7.33-2.55,2.07-.58,9.13a10.15,10.15,0,0,1-3.75,7.25l-21,17.05-1.77-2.19,22.25-18a1.66,1.66,0,0,0,.24-2.34,1.67,1.67,0,0,0-2.34-.24l-22.25,18-14.66-18.1,21-17A10.15,10.15,0,0,1,309.66,134.22ZM288.54,162l1.49-1.21-6-7.43-1.49,1.21Zm9.91,4.29,1.49-1.21-12-14.87-1.5,1.21Zm-2.17-10.56,1.49-1.21-6-7.43-1.49,1.21Zm9.91,4.28,1.49-1.21-12-14.86-1.49,1.21ZM304,149.51l1.49-1.21-6-7.43-1.49,1.21Zm9.92,4.28,1.49-1.21-12-14.86-1.5,1.21Z"/><polygon class="cls-98" points="277.93 155.71 253.71 175.33 259.45 182.41 263.06 179.49 258.59 173.96 260.08 172.75 264.56 178.28 266.95 176.34 262.48 170.81 263.97 169.6 268.44 175.13 270.74 173.27 266.26 167.74 267.75 166.53 272.23 172.06 274.63 170.12 270.15 164.59 271.65 163.38 276.12 168.91 279.31 166.32 274.84 160.8 276.33 159.59 280.81 165.11 283.2 163.17 278.73 157.64 279.19 157.27 277.93 155.71"/><path class="cls-99" d="M274,185.05l-7.5,6.07,5.74,7.09,24.21-19.62-1.77-2.2L274,193.18a1.67,1.67,0,0,1-2.1-2.59l20.72-16.79-1.36-1.67-.46.37-.51-.62-7.08,5.74.51.62-1.5,1.22-.51-.63-6.18,5,.51.63-1.49,1.21Z"/><rect class="cls-100" x="264.91" y="186.62" width="9.65" height="1.65" transform="translate(-57.84 211.63) rotate(-39.02)"/><rect class="cls-101" x="274.09" y="179.86" width="7.96" height="1.65" transform="translate(-51.73 215.37) rotate(-39.02)"/><rect class="cls-102" x="289.68" y="170.22" width="0.59" height="1.65" transform="translate(-43 220.74) rotate(-39.02)"/><rect class="cls-103" x="281.64" y="173.28" width="9.12" height="1.65" transform="translate(-45.77 219.02) rotate(-39.02)"/><rect class="cls-104" x="285.3" y="162.21" width="0.59" height="6.86" transform="translate(-40.58 216.75) rotate(-39.02)"/><path class="cls-105" d="M252.3,173.73a2,2,0,0,0-2.81-.29,2,2,0,0,0-.72,1.34,2,2,0,0,0,.43,1.47l7.08,8.73,3.1-2.51Z"/><path class="cls-106" d="M214.61,204.27a2,2,0,0,0-2.81-.29,2,2,0,0,0-.73,1.34,2,2,0,0,0,.44,1.47L232.72,233a2,2,0,0,0,2.82.29,2,2,0,0,0,.72-1.35,2,2,0,0,0-.43-1.46l-7.08-8.74-1-1.28-1.7-2.1L221.69,213Z"/><polygon class="cls-107" points="280.75 153.43 277.93 155.71 279.19 157.27 280.22 156.43 292.26 171.3 291.23 172.13 292.59 173.8 295.41 171.52 280.75 153.43"/><polygon class="cls-108" points="280.22 156.43 279.19 157.27 283.67 162.79 287.99 168.13 289.68 170.22 290.72 171.5 291.23 172.13 292.26 171.3 280.22 156.43"/><rect class="cls-109" x="218.89" y="198.23" width="44.52" height="6.86" transform="translate(-73.17 196.8) rotate(-39.02)"/><rect class="cls-110" x="257.99" y="182.96" width="3.99" height="6.86" transform="matrix(0.78, -0.63, 0.63, 0.78, -59.36, 205.26)"/><polygon class="cls-111" points="263.06 179.49 259.45 182.41 262.98 186.77 263.77 187.75 271.27 181.67 266.95 176.34 264.56 178.28 266.1 180.18 264.61 181.39 263.06 179.49"/><polygon class="cls-112" points="270.74 173.27 268.44 175.13 272.76 180.46 278.95 175.45 274.63 170.12 272.23 172.06 273.77 173.96 272.28 175.17 270.74 173.27"/><polygon class="cls-113" points="279.31 166.32 276.12 168.91 280.44 174.24 287.53 168.5 283.2 163.17 280.81 165.11 282.35 167.02 280.86 168.22 279.31 166.32"/><rect class="cls-114" x="221.9" y="204.03" width="44.52" height="2.69" transform="translate(-74.84 199.52) rotate(-39.02)"/><rect class="cls-115" x="261" y="188.76" width="3.99" height="2.69" transform="translate(-61.02 207.99) rotate(-39.02)"/><rect class="cls-116" x="263.54" y="184.41" width="9.65" height="2.69" transform="translate(-57.08 210.39) rotate(-39.02)"/><rect class="cls-117" x="271.91" y="180.76" width="1.92" height="2.69" transform="translate(-53.79 212.39) rotate(-39.01)"/><rect class="cls-118" x="272.72" y="177.65" width="7.96" height="2.69" transform="translate(-50.97 214.13) rotate(-39.02)"/><rect class="cls-119" x="279.58" y="174.54" width="1.93" height="2.69" transform="translate(-48.16 215.85) rotate(-39.02)"/><rect class="cls-120" x="280.27" y="171.07" width="9.12" height="2.69" transform="translate(-45.01 217.78) rotate(-39.02)"/><rect class="cls-121" x="288.31" y="168.01" width="0.59" height="2.69" transform="translate(-42.24 219.55) rotate(-39.03)"/><rect class="cls-122" x="223.26" y="206.24" width="44.52" height="1.65" transform="translate(-75.6 200.76) rotate(-39.02)"/><rect class="cls-123" x="262.37" y="190.97" width="3.99" height="1.65" transform="translate(-61.78 209.21) rotate(-39.02)"/><path class="cls-124" d="M266.44,191.18l-3.1,2.52,7.08,8.73a2,2,0,0,0,3.53-1,2,2,0,0,0-.43-1.47Z"/><rect class="cls-125" x="295.17" y="174.93" width="3.63" height="2.82" transform="translate(-44.78 226.29) rotate(-39.02)"/></g><path class="cls-126" d="M291.62,68.36,287,85.47l-2,7.41c-35.36-3.69-110.76-11.65-154.08-17,9.15-.83,19.22-1.58,29.67-2.26,29.48-1.92,62.24-3.25,87.64-4.08S291.62,68.36,291.62,68.36Z"/><path class="cls-126" d="M109.36,78.27c-1,16.77-4.39,71.06-10.5,109C98,192.88,97,198.08,96,202.76c.36-5.7.73-14.51,1.06-24.88,1.2-38.41,2-98,2-98,2.13-.39,4.52-.78,7.07-1.14C107.23,78.56,108.27,78.43,109.36,78.27Z"/><path class="cls-127" d="M304.36,94.91a452,452,0,0,1-5.46,46.85v0a750.07,750.07,0,0,1-23.11,96.72C238.87,226.78,96,202.76,96,202.76c1-4.68,2-9.88,2.83-15.45,6.11-38,9.54-92.27,10.5-109,.21-3.3.29-5.15.29-5.15,5.49.81,12.74,1.74,21.24,2.78,43.32,5.33,118.72,13.29,154.08,17C297,94.16,304.36,94.91,304.36,94.91Z"/><polygon class="cls-128" points="295.73 104.91 295.15 109.27 114.06 85.51 114.64 81.15 295.73 104.91"/><polygon class="cls-129" points="295.2 116.32 289.04 155.4 111.46 125.08 115.85 91.1 295.2 116.32"/><polygon class="cls-130" points="290.6 121.16 289.06 131.75 264.27 128.13 265.81 117.56 290.6 121.16"/><polygon class="cls-130" points="275.82 203.93 273.24 214.88 235.24 205.5 237.04 195.03 275.82 203.93"/><path class="cls-130" d="M158.05,197.53l-.56,2.81-51.3-8.94-2.46-.72.55-3.54Z"/><polygon class="cls-130" points="158.9 190.93 158.34 193.74 104.54 184.36 105.13 180.53 158.9 190.93"/><polygon class="cls-130" points="160.45 184.32 159.89 187.13 106.09 177.76 106.68 173.92 160.45 184.32"/><polygon class="cls-130" points="161.57 177.72 161.02 180.53 107.21 171.15 107.81 167.32 161.57 177.72"/><polygon class="cls-130" points="163.12 171.12 162.56 173.92 108.76 164.54 109.36 160.72 163.12 171.12"/><polygon class="cls-130" points="163.97 164.52 163.42 167.32 109.61 157.94 110.21 154.11 163.97 164.52"/><polygon class="cls-130" points="165.52 157.91 164.96 160.72 111.16 151.34 111.76 147.51 165.52 157.91"/><polygon class="cls-130" points="167.31 146.35 165.99 152.94 112.22 144.45 113.53 135.95 167.31 146.35"/><path class="cls-130" d="M224.79,211.11l-.57,2.81L172.93,205c-1-.27-1.78-.52-2.46-.72l.54-3.54Z"/><polygon class="cls-130" points="225.64 204.51 225.07 207.32 171.28 197.94 171.87 194.1 225.64 204.51"/><polygon class="cls-130" points="227.19 197.9 226.62 200.72 172.82 191.34 173.41 187.5 227.19 197.9"/><polygon class="cls-130" points="228.31 191.3 227.76 194.1 173.95 184.74 174.55 180.9 228.31 191.3"/><polygon class="cls-130" points="229.86 184.7 229.29 187.5 175.5 178.12 176.09 174.3 229.86 184.7"/><polygon class="cls-130" points="230.71 178.1 230.16 180.9 176.35 171.52 176.95 167.69 230.71 178.1"/><polygon class="cls-130" points="232.26 171.49 231.69 174.3 177.9 164.92 178.5 161.09 232.26 171.49"/><polygon class="cls-130" points="234.04 159.93 232.72 166.52 178.95 158.03 180.27 149.53 234.04 159.93"/><path class="cls-131" d="M277.31,151.09a128.94,128.94,0,0,1-52.93,24,226.75,226.75,0,0,1-116.64-6.85c-2-.66-4-1.42-5.89-2.25-.92,7.43-1.91,14.65-3,21.36C98,192.88,97,198.08,96,202.76c0,0,142.84,24,179.76,35.75a750.07,750.07,0,0,0,23.11-96.72v0c1-5.9,1.84-11.89,2.63-17.9A93.1,93.1,0,0,1,277.31,151.09Z"/><path class="cls-132" d="M109.92,78.27c-1,16.77-4.4,71.05-10.51,109-.88,5.56-1.82,10.76-2.83,15.44.36-5.69.73-14.5,1.07-24.88,5.74-19.42,9.1-99.14,9.1-99.14C107.79,78.55,108.83,78.42,109.92,78.27Z"/><path class="cls-132" d="M287.52,85.47l-2,7.41c-35.36-3.69-110.76-11.65-154.07-17,9.15-.83,19.21-1.59,29.66-2.26C198.4,80.63,287.52,85.47,287.52,85.47Z"/><path class="cls-128" d="M123.08,109.5c0,2.72.08,6.44.45,10.57h.09c1.5-3.49,3-7.3,4.16-10.89l2.79.67A113.85,113.85,0,0,1,124,124.41l-2.43-.59a150.46,150.46,0,0,1-1.16-15Z"/><path class="cls-128" d="M135,122.73l-3.22-.37-1.43,3.9-3-.72,6.24-14.94,3.91,1,.55,15-3.06-.74Zm-2.41-2.59,2.41.28,0-6.73Z"/><path class="cls-128" d="M146.71,119.12c.24-1.54.55-3.84-.54-4-1.4-.21-3,4.07-3.37,6.19s0,3.76,1.4,4c1.18.18,1.86-1.25,2.46-2.58l2.69.63c-1.19,3.15-2.81,5.12-5.58,4.69-3.21-.5-4.39-3.51-3.86-6.94.58-3.7,3-9.27,6.87-8.67,3.45.53,3.05,4.4,2.65,7.41Z"/><path class="cls-128" d="M157,120.72c.24-1.54.56-3.84-.54-4-1.39-.22-3,4.07-3.37,6.19s0,3.76,1.4,4c1.18.18,1.87-1.25,2.47-2.58l2.68.63c-1.19,3.15-2.81,5.12-5.57,4.69-3.21-.5-4.39-3.51-3.86-6.94.57-3.7,3-9.28,6.87-8.67,3.45.53,3,4.4,2.65,7.4Z"/><path class="cls-128" d="M166.44,115.68c-.48,2.23-.94,4.75-1.33,7.28-.43,2.83-.78,5.64-1,8.09l-2.85-.7c.28-3,.59-5.66,1-8.2.36-2.32.77-4.56,1.3-7.17Z"/><path class="cls-128" d="M166.44,131.24c.09-.89.2-1.73.34-2.59.64-4.13,1.59-8.46,2.44-12l2.81.72a61.57,61.57,0,0,0,2.44,9.48c.47-3.48.94-7.11,1.28-10.24l2.64.65c-.48,3.09-1,6.49-1.52,10-.25,1.61-.69,3.87-1,5.27l-2.36-.61c-.92-3.23-1.88-6.94-3.06-10.1-.47,3.17-1,6.51-1.54,10.11Z"/><path class="cls-128" d="M186.28,133.47a10.09,10.09,0,0,1-4.44.17l-3.25-.81c.22-1.7.44-3.4.75-5.43.39-2.53,1.17-6.4,1.72-8.79a46.64,46.64,0,0,1,7.24.55l-.41,2.63c-1.42-.22-3-.42-4.52-.55-.24,1.22-.47,2.48-.68,3.67a29.69,29.69,0,0,1,3.9.32l0,2.42c-1.25-.17-3.09-.28-4.36-.35-.23,1.5-.39,2.57-.55,3.71a39.38,39.38,0,0,0,4.56.05Z"/><path class="cls-128" d="M195.38,135.5a40.75,40.75,0,0,1,.46-4.27l.25-1.65c-1-3.5-1.86-7.11-1.78-9l2.64.67a26,26,0,0,0,1.08,6,67.25,67.25,0,0,0,3.85-6.58l2.45.62a93,93,0,0,1-5.24,8.6c-.17,1-.36,2-.51,3s-.31,2.19-.42,3.31Z"/><path class="cls-128" d="M209.5,122c2.51.39,4.49,2.89,3.68,8.12s-3.88,8.08-6.39,7.7-4.58-2.88-3.76-8.13S206.8,121.63,209.5,122Zm-2.32,13.29c1.09.17,2.59-2,3.15-5.61.53-3.43-.2-5-1.22-5.13-1.2-.18-2.68,2-3.24,5.58C205.34,133.6,206.11,135.16,207.18,135.33Z"/><path class="cls-128" d="M219.22,124.3a91.16,91.16,0,0,0-1.92,9.28c-.22,1.42.24,3,1.29,3.14,1.69.26,2.49-3.58,2.76-5.34.36-2.36.63-4.9.84-7.3l2.87.75c-.19,2.23-.44,4.82-.78,7-.39,2.54-1.82,8.07-6.08,7.41-2.8-.43-4.23-3.53-3.83-6.12a95.77,95.77,0,0,1,2-9.56Z"/><path class="cls-128" d="M225.28,140.17q1.11-5.29,1.93-10.62c.19-1.27.39-2.53.56-3.8a12,12,0,0,1,5.08-.35,4.3,4.3,0,0,1,3.72,5.27c-.29,1.93-2.23,3.36-4.33,4.31,1.09,1.9,2.17,4,3.16,6l-2.3,1.2c-1-2.13-2.33-4.64-3.81-7.39-.35,2-.75,4.14-1.15,6.16Zm4.3-6.83c2.3-.68,4.23-2.11,4.4-3.18a1.8,1.8,0,0,0-1.52-2.26,6.13,6.13,0,0,0-2,.06C230.16,129.74,229.87,131.58,229.58,133.34Z"/><path class="cls-128" d="M241.83,142.91c.22-1.83.47-3.57.72-5.18.5-3.25,1.06-6.3,1.72-9.69a11,11,0,0,1,3.83-.09,5,5,0,0,1,4.05,5.81c-.43,2.78-3.26,4.52-6.75,4.94-.24,1.54-.48,3.24-.7,4.94Zm3.95-6.65a3.8,3.8,0,0,0,3.44-2.95c.25-1.59-.59-2.71-1.51-2.85a5.59,5.59,0,0,0-.9,0C246.44,132.41,246.1,134.31,245.78,136.26Z"/><path class="cls-128" d="M259.65,144.84a10.21,10.21,0,0,1-4.43.16l-3.25-.81c.21-1.7.43-3.39.75-5.43.39-2.53,1.17-6.4,1.71-8.79a46.53,46.53,0,0,1,7.24.55l-.41,2.63c-1.41-.22-3-.42-4.52-.54-.23,1.21-.47,2.47-.67,3.66a29.4,29.4,0,0,1,3.89.32L260,139c-1.25-.17-3.1-.28-4.36-.34-.23,1.5-.4,2.57-.55,3.71a39,39,0,0,0,4.55,0Z"/><path class="cls-128" d="M263.05,145.87c.22-2.3.52-4.81.9-7.24.27-1.75.44-2.73.95-5.27-1.49-.05-2.67,0-2.67,0l-.09-2.55s2.16,0,4.24.1,4,.41,4,.41l0,2.44s-1.19-.12-2.69-.22c-.4,2-.69,3.58-1,5.57-.4,2.57-.74,5-1.07,7.45Z"/><path class="cls-128" d="M276.16,138.27a7.16,7.16,0,0,0,.54-1.63c.17-1.12-.36-1.81-1.07-1.92-.92-.14-1.63.78-1.78,1.74a3.19,3.19,0,0,0,1.32,2.84c2.12,1.84,3.48,3,3.13,5.26a4.21,4.21,0,0,1-4.87,3.57c-2.73-.42-3.74-3.36-4.27-5.33l2.24-.69c.34,1.63,1.13,3.31,2.33,3.5a1.33,1.33,0,0,0,1.6-1.13c.17-1.1-.72-2-1.62-2.89-1.62-1.54-3.18-3.1-2.8-5.54a4.47,4.47,0,0,1,5.07-3.84,4.52,4.52,0,0,1,3.63,5,5.88,5.88,0,0,1-.93,2.34Z"/><g class="cls-133"><path class="cls-134" d="M291.62,68.36,287,85.47l-2,7.41c-35.36-3.69-110.76-11.65-154.08-17,9.15-.83,19.22-1.58,29.67-2.26,29.48-1.92,62.24-3.25,87.64-4.08S291.62,68.36,291.62,68.36Z"/><path class="cls-135" d="M109.36,78.27c-1,16.77-4.39,71.06-10.5,109C98,192.88,97,198.08,96,202.76c.36-5.7.72-14.51,1.06-24.88,1.2-38.41,2-98,2-98,2.13-.39,4.52-.78,7.07-1.14C107.23,78.56,108.27,78.43,109.36,78.27Z"/><path class="cls-136" d="M304.36,94.91a452,452,0,0,1-5.46,46.85v0a750.07,750.07,0,0,1-23.11,96.72C238.87,226.78,96,202.76,96,202.76c1-4.68,2-9.88,2.83-15.45,6.11-38,9.54-92.27,10.5-109,.21-3.3.29-5.15.29-5.15,5.49.81,12.74,1.74,21.24,2.78,43.32,5.33,118.72,13.29,154.08,17C297,94.16,304.36,94.91,304.36,94.91Z"/><polygon class="cls-137" points="295.73 104.91 295.15 109.27 114.06 85.51 114.64 81.15 295.73 104.91"/><polygon class="cls-138" points="295.2 116.32 289.04 155.4 111.46 125.08 115.85 91.1 295.2 116.32"/><polygon class="cls-139" points="290.6 121.16 289.06 131.75 264.27 128.13 265.81 117.56 290.6 121.16"/><path class="cls-140" d="M128.12,107.64c-.08,1.6-.09,3.86-.15,6.27h.08a72.3,72.3,0,0,0,2.39-7.25l2,.43a92.61,92.61,0,0,1-3.92,10.23l-1.47-.32c-.26-1.66-.42-3.34-.56-4.95-.6,1.72-1.24,3.43-1.94,4.95l-1.47-.32c-.25-3.59-.46-7.2-.4-10.92l2,.43c-.07,1.87-.12,4.46-.16,7.28h.08c.72-2,1.45-4.06,2-6.15Z"/><path class="cls-141" d="M137.7,118.29a7.19,7.19,0,0,1-3.2.2l-2.36-.52c.12-1.24.25-2.47.44-3.94.24-1.83.73-4.64,1.08-6.38a34.07,34.07,0,0,1,5.24.27l-.25,1.91c-1-.14-2.19-.26-3.27-.32-.15.88-.3,1.8-.42,2.66a21.15,21.15,0,0,1,2.82.16l.07,1.75c-.9-.1-2.24-.15-3.15-.17-.14,1.09-.24,1.86-.33,2.69a28.82,28.82,0,0,0,3.29,0Z"/><path class="cls-142" d="M149.12,110.36c-.08,1.6-.09,3.86-.15,6.27h.08a72.3,72.3,0,0,0,2.39-7.25l2,.43A89.86,89.86,0,0,1,149.54,120l-1.48-.32c-.25-1.66-.42-3.33-.56-4.95-.6,1.72-1.23,3.43-1.93,4.95l-1.47-.32c-.25-3.59-.46-7.2-.41-10.92l2,.43c-.06,1.87-.11,4.46-.15,7.28h.08c.72-2,1.44-4.06,2-6.15Z"/><path class="cls-143" d="M157,110.2c-.31,1.61-.59,3.44-.83,5.27-.26,2-.47,4.1-.55,5.87l-2.08-.46c.15-2.21.33-4.09.57-5.94.22-1.68.47-3.3.81-5.2Z"/><path class="cls-144" d="M157.8,121.13c.13-2,.31-4,.56-5.91.21-1.61.46-3.22.79-4.79l2,.45c-.38,1.77-.69,3.51-.91,5.22-.15,1.14-.3,2.3-.37,3.46.89,0,1.89,0,2.79,0l.08,1.85c-1,0-1.95,0-3.36,0Z"/><path class="cls-145" d="M163.82,121.91c.13-2,.31-4,.56-5.91.21-1.61.47-3.22.8-4.79l2,.45c-.39,1.77-.69,3.51-.92,5.22-.14,1.14-.29,2.3-.36,3.46.88,0,1.89,0,2.79,0l.07,1.84c-1,0-1.94,0-3.35,0Z"/><path class="cls-146" d="M179.71,114.32c-.08,1.6-.09,3.86-.15,6.27h.08a72.3,72.3,0,0,0,2.39-7.25l2,.44A90.51,90.51,0,0,1,180.13,124l-1.47-.31c-.26-1.66-.42-3.34-.56-5-.6,1.72-1.24,3.42-1.94,4.94l-1.47-.32c-.25-3.58-.46-7.19-.4-10.91l2,.43c-.07,1.87-.12,4.45-.16,7.27h.08c.72-2,1.45-4.06,2-6.16Z"/><path class="cls-147" d="M187.58,114.16c-.3,1.62-.59,3.44-.83,5.28-.26,2-.46,4.09-.55,5.86l-2.07-.46c.14-2.2.32-4.09.56-5.94.22-1.68.48-3.3.82-5.2Z"/><path class="cls-148" d="M187.86,125.39c0-.64.12-1.25.2-1.87.39-3,1-6.14,1.55-8.7l2,.47a45.33,45.33,0,0,0,1.93,6.8c.28-2.52.56-5.15.74-7.42l1.92.42c-.29,2.24-.59,4.71-.92,7.23-.15,1.16-.43,2.8-.62,3.81l-1.72-.39c-.72-2.32-1.49-5-2.39-7.24-.28,2.3-.6,4.72-.94,7.33Z"/><path class="cls-149" d="M205.06,121.1c.15-1.12.33-2.78-.46-2.89-1-.13-2.13,3-2.32,4.53s.09,2.71,1.08,2.84,1.32-.93,1.73-1.9l1.95.41c-.8,2.29-1.93,3.74-3.94,3.48-2.33-.3-3.23-2.46-2.91-4.94.35-2.69,2-6.75,4.81-6.39,2.5.33,2.28,3.12,2,5.3Z"/><path class="cls-150" d="M212.17,125.92l-2.32-.21-1,2.85-2.15-.47,4.24-10.9,2.84.62.67,10.79-2.23-.48Zm-1.78-1.83,1.75.17-.15-4.87Z"/><path class="cls-151" d="M215.57,129c.05-.64.11-1.25.19-1.87.39-3,1-6.14,1.56-8.7l2,.47a44.18,44.18,0,0,0,1.93,6.8c.27-2.52.55-5.15.74-7.42l1.91.42c-.29,2.24-.59,4.71-.92,7.22-.15,1.17-.42,2.81-.62,3.82l-1.71-.39c-.73-2.32-1.49-5-2.4-7.24-.28,2.3-.59,4.72-.93,7.33Z"/><path class="cls-152" d="M229,124.2c.14-1.12.33-2.78-.46-2.88-1-.14-2.13,3-2.33,4.53s.09,2.71,1.09,2.84c.85.11,1.32-.94,1.73-1.91l2,.41c-.8,2.3-1.94,3.74-3.94,3.48-2.33-.3-3.23-2.45-2.91-4.94.35-2.68,2-6.75,4.8-6.38,2.5.32,2.28,3.12,2.05,5.3Z"/><path class="cls-153" d="M237.42,131.21a7.34,7.34,0,0,1-3.2.2l-2.36-.52c.12-1.24.25-2.47.44-3.94.24-1.83.73-4.64,1.08-6.38a34.07,34.07,0,0,1,5.24.27l-.25,1.91c-1-.14-2.19-.26-3.27-.32-.15.88-.3,1.8-.43,2.66a21.06,21.06,0,0,1,2.82.16l.08,1.75c-.9-.1-2.24-.15-3.15-.17-.14,1.08-.24,1.86-.34,2.69a28.73,28.73,0,0,0,3.29-.05Z"/><path class="cls-154" d="M238.58,131.84q.72-3.84,1.21-7.71c.12-.92.24-1.83.34-2.75a8.89,8.89,0,0,1,3.66-.35,3.11,3.11,0,0,1,2.78,3.74c-.18,1.4-1.55,2.47-3,3.19.82,1.35,1.64,2.83,2.39,4.27l-1.64.91c-.75-1.52-1.76-3.31-2.88-5.27-.22,1.44-.47,3-.72,4.47Zm3-5c1.65-.53,3-1.59,3.12-2.37a1.29,1.29,0,0,0-1.14-1.6,4.13,4.13,0,0,0-1.46.08C241.92,124.22,241.75,125.55,241.57,126.82Z"/><path class="cls-155" d="M249,130.93a1.91,1.91,0,0,1,0,1,4.17,4.17,0,0,1-.43,1.42l-1.81-.6a6,6,0,0,0,.37-1.63,5.56,5.56,0,0,0,.05-.62Zm-1.35-1.16a34.32,34.32,0,0,1,.25-4.13,31.73,31.73,0,0,1,.84-4.17l2.21.73a41.94,41.94,0,0,0-2.08,7.89Z"/><polygon class="cls-156" points="275.82 203.93 273.24 214.88 235.24 205.5 237.04 195.03 275.82 203.93"/><path class="cls-157" d="M158.05,197.53l-.56,2.81-51.3-8.94-2.46-.72.55-3.54Z"/><polygon class="cls-158" points="158.9 190.93 158.34 193.74 104.54 184.36 105.13 180.53 158.9 190.93"/><polygon class="cls-159" points="160.45 184.32 159.89 187.14 106.09 177.76 106.68 173.92 160.45 184.32"/><polygon class="cls-160" points="161.57 177.72 161.02 180.53 107.21 171.15 107.81 167.32 161.57 177.72"/><polygon class="cls-161" points="163.12 171.12 162.56 173.92 108.76 164.54 109.36 160.72 163.12 171.12"/><polygon class="cls-162" points="163.97 164.52 163.42 167.32 109.61 157.94 110.21 154.11 163.97 164.52"/><polygon class="cls-163" points="165.52 157.91 164.96 160.72 111.16 151.34 111.76 147.51 165.52 157.91"/><polygon class="cls-164" points="167.31 146.35 165.99 152.94 112.22 144.45 113.53 135.95 167.31 146.35"/><path class="cls-165" d="M224.79,211.11l-.57,2.81L172.93,205c-1-.27-1.78-.52-2.46-.72l.54-3.54Z"/><polygon class="cls-166" points="225.64 204.51 225.07 207.32 171.28 197.94 171.87 194.1 225.64 204.51"/><polygon class="cls-167" points="227.19 197.9 226.62 200.72 172.82 191.34 173.41 187.5 227.19 197.9"/><polygon class="cls-168" points="228.31 191.3 227.76 194.1 173.95 184.73 174.55 180.9 228.31 191.3"/><polygon class="cls-169" points="229.86 184.7 229.29 187.5 175.5 178.12 176.09 174.3 229.86 184.7"/><polygon class="cls-170" points="230.71 178.1 230.16 180.9 176.35 171.52 176.95 167.69 230.71 178.1"/><polygon class="cls-171" points="232.26 171.49 231.69 174.3 177.9 164.92 178.5 161.09 232.26 171.49"/><polygon class="cls-172" points="234.04 159.93 232.72 166.52 178.95 158.03 180.27 149.53 234.04 159.93"/><path class="cls-173" d="M277.31,151.09a128.94,128.94,0,0,1-52.93,24,226.75,226.75,0,0,1-116.64-6.85c-2-.66-4-1.42-5.89-2.25-.92,7.43-1.91,14.65-3,21.36C98,192.88,97,198.08,96,202.76c0,0,142.84,24,179.76,35.75a750.07,750.07,0,0,0,23.11-96.72v0c1-5.9,1.84-11.89,2.63-17.9A93.1,93.1,0,0,1,277.31,151.09Z"/><path class="cls-174" d="M109.92,78.27c-1,16.77-4.4,71.05-10.51,109-.88,5.56-1.82,10.76-2.83,15.44.36-5.69.73-14.5,1.07-24.88,5.74-19.42,9.1-99.14,9.1-99.14C107.79,78.55,108.83,78.42,109.92,78.27Z"/><path class="cls-175" d="M287.52,85.47l-2,7.41c-35.36-3.69-110.76-11.65-154.07-17,9.15-.83,19.21-1.59,29.66-2.26C198.4,80.63,287.52,85.47,287.52,85.47Z"/></g><path class="cls-176" d="M139.41,152.28s-1.55,6.28-7.08,15.22c-.37.59-.75,1.2-1.15,1.8,1-5.83-1.6-5.94-1.6-5.94a21.36,21.36,0,0,0-5.64,1s2.08-1.82,2.08-3-10.21.24-15.38,2.62S100,173.81,100,173.81a41.46,41.46,0,0,0-8.59-.39C105.26,162.54,121.68,153.7,139.41,152.28Z"/><path class="cls-176" d="M82.62,208.86c-1.61.74-3.28,1.46-5,2.17l0,0s0,0-.06,0c-1.25.39-15.41,4.64-17,1.18s5.35-13.79,6.11-14.93c0,0,0-.06,0-.07a.06.06,0,0,0,0,0c.44-.49.87-1,1.31-1.5a22.9,22.9,0,0,0,6.08,6.4s-.46,1.3,3,3.1A34.54,34.54,0,0,1,82.62,208.86Z"/><path class="cls-177" d="M60.51,212.25c1.66,3.55,16.43-1,17.1-1.2a182.84,182.84,0,0,1-28.34,9.11,200.86,200.86,0,0,1,17.41-22.91C66.26,197.86,58.85,208.72,60.51,212.25Z"/><path class="cls-177" d="M130.66,205.36h0l-6.83,4.9L95.25,230.62c-1.26,0-2.49,0-3.69,0,38.13-22.68,40.72-62.11,40.77-63.14,5.53-8.94,7.08-15.22,7.08-15.22C146,180.36,131,204.74,130.66,205.36Z"/><path class="cls-178" d="M132.33,167.5c-.05,1-2.64,40.46-40.77,63.14-29.18-.27-42.29-10.48-42.29-10.48a183.36,183.36,0,0,0,28.27-9.09s0,0,.06,0l0,0c1.7-.71,3.37-1.43,5-2.17a130,130,0,0,0,28.31-17.4A103.91,103.91,0,0,0,125.51,177l0,0a92.31,92.31,0,0,0,5.65-7.67C131.58,168.7,132,168.09,132.33,167.5Z"/><path class="cls-179" d="M93,183.14a65.49,65.49,0,0,0-9.06-1C80.88,182.23,88.13,178.15,93,183.14Z"/><path class="cls-179" d="M88.52,199.93s-1,3.48-10.27,5.28H77c-3.41-1.8-3-3.1-3-3.1S80.66,205.9,88.52,199.93Z"/><path class="cls-180" d="M70,184.12s-.2,4.74-4.41,5.25a15.84,15.84,0,0,1,.21-5.82S67.63,183.88,70,184.12Z"/><path class="cls-180" d="M127.42,171.58a26.62,26.62,0,0,0-1.89,5.39l0,0a103.91,103.91,0,0,1-14.58,14.46s-3.19-.88-2-10S124.7,167,127,167,128.45,169.83,127.42,171.58Z"/><path class="cls-179" d="M126,161.42c0,1.15-2.08,3-2.08,3-9.25,3-16.2,11.23-16.2,11.23a44.73,44.73,0,0,0-7.74-1.81s5.48-7.39,10.64-9.77S126,160.29,126,161.42Z"/><path class="cls-181" d="M129.58,163.36a21.36,21.36,0,0,0-5.64,1c-9.25,3-16.2,11.23-16.2,11.23a44.73,44.73,0,0,0-7.74-1.81,41.46,41.46,0,0,0-8.59-.39c-.41,0-.83,0-1.25.09-9.08.91-11.56,10-11.56,10a11,11,0,0,1-4.78.79c-1.28,0-2.63-.1-3.84-.22,0,0-.2,4.74-4.41,5.25A16.85,16.85,0,0,0,68,195.71a22.9,22.9,0,0,0,6.08,6.4s6.58,3.79,14.44-2.18c0,0-1,3.48-10.27,5.28H77a34.54,34.54,0,0,1,5.59,3.65,130,130,0,0,0,28.31-17.4s-3.19-.88-2-10S124.7,167,127,167s1.42,2.79.39,4.54a26.62,26.62,0,0,0-1.89,5.39,92.31,92.31,0,0,0,5.65-7.67C132.19,163.47,129.58,163.36,129.58,163.36ZM83.92,182.15c-3,.08,4.21-4,9.06,1A65.49,65.49,0,0,0,83.92,182.15Z"/><path class="cls-182" d="M223.87,222.27a37.92,37.92,0,0,0-7.58-11.51c.46-.25,13.64-8,8.42-30.2C224.71,180.56,240.86,199.71,223.87,222.27Z"/><path class="cls-179" d="M114.78,297.63c0,1.74-2.65,5.43-2.65,5.43H100.4s-.67-5.58,1.89-6.19a6.28,6.28,0,0,1,4.84,1.2s-.76-10.43-2.11-21.46l-1.41-22c4,3.91,13.31,9,17.28,16.6-2,5.44-6,14.13-6.8,18.14C113,294.83,114.78,295.89,114.78,297.63Z"/><path class="cls-179" d="M203.4,292.55l-.51.54c-2.58,2.74-6.07,6.62-6.07,6.62H186.61s-1.37-5.34,2.95-6.58,4.54,2.61,4.54,2.61c2.62-2.16,2.72-6.58.9-12.79s-6.65-10.73-16.34-17.23c-5-3.34-8.23-8.84-10.26-13.38a143,143,0,0,0,14.95-7.76s3.24,14.63,12.93,21.14c1.75,1.18,3.36,2.28,4.81,3.36a8.34,8.34,0,0,0-.86,4C201,287.1,206,289.84,203.4,292.55Z"/><path class="cls-181" d="M217.83,273.05c0,14.07,5.79,16.79,3.19,19.5s-6.58,7.16-6.58,7.16H204.23s-.9-3.5,1-5.49a4.17,4.17,0,0,1,1.91-1.09c4.3-1.25,4.52,2.61,4.52,2.61,2.62-2.16,2.74-6.58.91-12.79-1.48-5.08-5-9-11.52-13.87-1.45-1.08-3.06-2.18-4.81-3.36-9.69-6.51-12.93-21.14-12.93-21.14a143,143,0,0,1-14.95,7.76c-21,9.28-32.16,6.94-32.16,6.94s3.17,4.92,3.39,7.57-6.8,16.93-7.93,22.46.68,6.58.68,8.32-2.63,5.43-2.63,5.43H118s-.69-5.58,1.89-6.19a6.3,6.3,0,0,1,4.84,1.2s-.76-10.43-2.13-21.46a16,16,0,0,0-1.73-5.44c-4-7.57-13.23-12.69-17.28-16.6-.19-.19-.34-.34-.49-.51-4.54-4.84-7.87-23.44-7.87-23.44l28.56-20.36,6.83-4.9h0a88.46,88.46,0,0,1,67.66-5.43,45.83,45.83,0,0,1,13,6.51,41.73,41.73,0,0,1,4.94,4.32,37.92,37.92,0,0,1,7.58,11.51,42.79,42.79,0,0,1,2.7,9.15C227.94,238.89,217.83,259,217.83,273.05Z"/><path class="cls-183" d="M211.42,206.44l0,0s-.52,7.83-12.17,11-11.35-.79-30.1,4.83-21.79-3.16-31.76-3.92-13.5-8.11-13.5-8.11l6.84-4.9h0a88.49,88.49,0,0,1,67.67-5.43A46.1,46.1,0,0,1,211.42,206.44Z"/><path class="cls-182" d="M183.27,244.66a144,144,0,0,1-15,7.76c-21,9.28-32.16,6.93-32.16,6.93l-.83-1.55L128.67,245c.74,1,7,8.91,17.19,9.4a22.64,22.64,0,0,0,9-1.49A122.77,122.77,0,0,0,166.63,248c6.78-3.35,8.93-5.87,9.45-8.08.73-3.05,6.48-9.6,6.94-10.11A25.39,25.39,0,0,0,183.27,244.66Z"/><path class="cls-184" d="M277.55,272.14c4.44,10.11,2.89,20.8,2.89,20.8s1.91,2,2.31,6.38a7.94,7.94,0,0,0,.74,3,5.7,5.7,0,0,1,1.43.46,3.06,3.06,0,0,1,1.39,1.37,16.06,16.06,0,0,0,2.46.06,21,21,0,0,0,5.51-.84s4.84-6.2,0-7.21-4.86,1.75-4.86,1.75-1.24-1-3.74-18c-2.45-16.75-.07-46.24,0-47.14,0,.08-.07.16-.09.23a1.23,1.23,0,0,0-.13.29c-.58,1.37-2.18,5.3-3.85,10.23a.28.28,0,0,1,0,.12,99.92,99.92,0,0,0-3.89,24.84c-.06,1.29-.1,2.51-.13,3.69Z"/><path class="cls-177" d="M324.05,190.76a98.15,98.15,0,0,1,13.11,18.76,212.77,212.77,0,0,1-33.25-19.3c1.5,1,14.07,8.93,18.28,7.76C326.66,196.74,324.05,190.76,324.05,190.76Z"/><path class="cls-176" d="M302.61,189.28c.4.31.8.57,1.2.88,0,0,.06,0,.1.06a.46.46,0,0,0,.15.09c2.08,1.34,14,8.79,18.13,7.66,4.32-1.2,2-6.8,1.88-7.18v0a134.06,134.06,0,0,0-14.59-14.09,13.43,13.43,0,0,1-1.73,3.34s.44.38-.48,1.7a11.78,11.78,0,0,1-1.37,1.62A13.2,13.2,0,0,0,302.61,189.28Z"/><path class="cls-185" d="M310.14,173.61a9.68,9.68,0,0,0-.38-3.56,27.22,27.22,0,0,1-5.38-.23C304.36,170.05,304.27,173.63,310.14,173.61Z"/><path class="cls-186" d="M307.26,181.72c.92-1.32.48-1.7.48-1.7s-3.57,1.91-6.81,1.41S302,184.12,307.26,181.72Z"/><path class="cls-176" d="M302.46,222.1c-3.29.69-6.74,1.29-10.3,1.72,0,0-17.54-10.87-28.6-26.31,0,0-5.69-20.11-.58-45.53C263.08,153.2,268.1,216,302.46,222.1Z"/><path class="cls-186" d="M289.69,173.8c.57.44,2.09-2,4.9-3.5s2.49-2.59,1.9-3-3.92.52-6.8,5C289.69,172.34,289.12,173.35,289.69,173.8Z"/><path class="cls-187" d="M267.37,155.07c.43.59.89,1.22,1.41,1.88,11.11,2.54,10.42,12.15,10.42,12.15a176,176,0,0,0,23.41,20.18,13.2,13.2,0,0,1,3.28-5.94,11.78,11.78,0,0,0,1.37-1.62c-5.24,2.4-9.57-.81-6.33-.29s6.81-1.41,6.81-1.41a13.43,13.43,0,0,0,1.73-3.34,12.65,12.65,0,0,0,.67-3.07c-5.87,0-5.78-3.56-5.76-3.79-1.6-.25-3.07-.76-3.69-1.68-1.66-2.42-7-8.33-13.29-7.62l-1,.11c-5.36.75-5.7,2-5.7,2S275.2,153.33,267.37,155.07Zm22.32,17.27c2.88-4.48,6.19-5.34,6.8-5s.88,1.43-1.9,3-4.33,3.94-4.9,3.5S289.69,172.34,289.69,172.34Z"/><path class="cls-187" d="M206.85,295.23c.09,6.76,13.05,16.39,27.16,19.82s40.71.29,47.67-3.24c5.21-2.65,5.66-5.81,4.63-7.68a3.06,3.06,0,0,0-1.39-1.37,5.7,5.7,0,0,0-1.43-.46,8.12,8.12,0,0,0-2.88-.17c0-3.78-3.88-4.24-3.88-4.24s0-1.2.34-11.55c.11-3.54.27-8.17.48-14.2v0c0-1.18.07-2.4.13-3.69a99.92,99.92,0,0,1,3.89-24.84.28.28,0,0,0,0-.12,72.7,72.7,0,0,1,3.85-10.23,1.23,1.23,0,0,1,.13-.29c0-.07.06-.15.09-.23a40.86,40.86,0,0,1,3.09-5.56c-14.83-6-29.22-27.37-29.22-27.37S248.8,199,237,207.51c-8,5.79-16.58,15.87-22.58,33.47a118.24,118.24,0,0,0-5,19.15v0c-2.06,12.39-.76,21,1.76,27C211.14,287.13,206.75,288.46,206.85,295.23Zm38,.66s10.49-.47,16.78-6.86c3-3,3.83-7,3.47-11a24.79,24.79,0,0,0-4.58-12,14.21,14.21,0,0,0,5.61-6.39s.84,8.68.26,11.46a29.31,29.31,0,0,0-.64,6.94,10.72,10.72,0,0,0,.38,2.59l2.67,19.54s-.35-.16-1-.38a45.68,45.68,0,0,0-9.41-2C251.74,296.94,244.87,295.89,244.87,295.89Z"/><path class="cls-188" d="M268.78,157A136.63,136.63,0,0,0,279.2,169.1S279.89,159.49,268.78,157Z"/><path class="cls-176" d="M263.57,149.27a58.08,58.08,0,0,0,3.8,5.8c7.83-1.74,13.36,7.6,13.36,7.6s.34-1.29,5.7-2A171.88,171.88,0,0,0,263.57,149.27Z"/><path class="cls-178" d="M263,152v0c.1,1.22,5.11,64,39.48,70.13a131.85,131.85,0,0,0,34.69-12.58,212.71,212.71,0,0,1-33.09-19.22.46.46,0,0,1-.15-.09s-.08-.06-.1-.06c-.4-.31-.8-.57-1.2-.88A176,176,0,0,1,279.2,169.1,136.63,136.63,0,0,1,268.78,157c-.52-.66-1-1.29-1.41-1.88a58.08,58.08,0,0,1-3.8-5.8h0Z"/><path class="cls-178" d="M259.55,199.79s14.39,21.36,29.22,27.37a5.46,5.46,0,0,0,3.4-3.34S274.63,213,263.55,197.5C263.55,197.5,260.31,197.23,259.55,199.79Z"/><path class="cls-186" d="M265.78,277.94a12.44,12.44,0,0,0,.37,2.59l2.67,19.54s.15,1.68.2,3.26a8.52,8.52,0,0,1-.2,2.76s8.67-2.4,9.74-3.26a4.32,4.32,0,0,1,2.07-.7c0-3.8-3.9-4.23-3.9-4.23s0-1.2.34-11.55c0,0-4.92.76-5.68-8.11s-1.89-23.77-5.28-30.67a41.54,41.54,0,0,1,0,12s.85,8.68.28,11.44A29.88,29.88,0,0,0,265.78,277.94Z"/><path class="cls-186" d="M264.06,211.8c.19,1.71,4,5.63,2.57,11.16s-3.15,4.57-6.49,8.19-3.71,8.58-4.8,12.49-5.11,4.1-11.68,4.38-9.73-.19-9.83-6.19,6-11.16,9.15-14.68a14.43,14.43,0,0,0,3.25-8.39c.28-2.19.38-9.63,7.24-11S263.87,210.08,264.06,211.8Z"/><path class="cls-184" d="M242,259.09c12.2-.86,18.53,6.86,18.53,6.86a14.23,14.23,0,0,0,5.59-6.39,41.54,41.54,0,0,0,0-12,33.56,33.56,0,0,0-3.47-11c2.93,12.37,0,17.23-.78,19.88s-4.86.88-10.56.11A11.92,11.92,0,0,0,242,259.09Z"/><path class="cls-184" d="M214.68,293.13a20.8,20.8,0,0,0,7.59,6,84.8,84.8,0,0,0,40.83,8.26s5.24-.57,5.72-1.34a8.52,8.52,0,0,0,.2-2.76c0-1.58-.2-3.26-.2-3.26s-.33-.13-1-.36C243.81,309.66,219.92,296.35,214.68,293.13Z"/><path class="cls-186" d="M209.39,260.14h0a118.68,118.68,0,0,1,5-19.17c6-17.58,14.55-27.67,22.58-33.46a16,16,0,0,1,2.58,10.88c-.76,6.48-.09,7-4,10.39s-10.87,7.43-11.34,15.73-1.24,14.58-4.58,17.35S209.75,264.12,209.39,260.14Z"/></g></g></svg>